<svg xmlns="http://www.w3.org/2000/svg" height="250" viewBox="0 0 250 249.99815" width="250"><g transform="matrix(1.25 0 0 -1.25 -77.41 620.32)"><g><g><path stroke-linejoin="round" d="m162.21 494.16c-54.11 0-97.977-43.867-97.977-97.977 0-54.111 43.867-97.976 97.977-97.976 54.112 0 97.979 43.866 97.979 97.976 0 54.111-43.867 97.977-97.979 97.977z" stroke="#000" stroke-linecap="round" stroke-width="2.4446" fill="#dab006"/><path stroke-linejoin="round" d="m162.21 469.92c-40.303 0-72.974-32.671-72.974-72.974 0-40.301 32.671-72.973 72.974-72.973s72.973 32.672 72.973 72.973c0 40.303-32.67 72.974-72.973 72.974z" stroke="#000" stroke-linecap="round" stroke-width="2.4446" fill="#fff"/><g><path d="m221.14 440.59-0.1721 0.0733c-17.664 6.2424-37.967 9.5328-58.76 9.5328-20.789 0-41.086-3.2884-58.701-9.5093-0.0479-0.0186-0.22979-0.0958-0.22979-0.0958-0.30605-0.13103-0.49966-0.44002-0.48695-0.77248l0.13396-3.2571c0.9612-24.517 3.5114-89.644 58.946-113.4 0.0997-0.043 0.20534-0.0645 0.31486-0.0645h0.044c0.10952 0 0.21708 0.0215 0.31584 0.0645 20.45 8.7632 33.697 23.16 42.329 39.066 0.11831 0.10952 0.19263 0.25423 0.23076 0.41655 0.0147 0.0303 0.0323 0.0567 0.044 0.088 14.508 27.101 15.74 58.452 16.342 73.829l0.13298 3.2581c0.0137 0.33246-0.17894 0.64047-0.48402 0.7715"/><path d="m184.26 413.81v-17.916h0.0422c0-4.9145 4.3088-8.9125 9.6047-8.9125 5.2949 0 9.6016 3.998 9.6016 8.9125h0.0125v17.916h-19.261z" fill="#bf2519"/><path d="m152.86 61.152v26.1h24.07v-21.988c-7.78-1.786-15.84-3.161-24.07-4.112zm-25.06 56.008l-30.683 28.3h58.713l-28.03-28.3zm25.03 14.89v7.61l24.08 24.31v-31.86c-2.45 3.84-6.91 6.43-12.02 6.43-5.13 0-9.62-2.62-12.06-6.49z" transform="matrix(.8 0 0 -.8 61.928 496.26)" fill="#dab006"/><path d="m140.25 9.3828l-0.08 0.3945 2.21 1.2637c0.57 0.323 0.62 0.536 0.08 3.184l-2.05 10.187c-0.44 2.167-0.57 2.256-1.41 2.35l-2.32 0.299-0.08 0.39c2.05 0.297 4.78 0.729 7.25 1.229 1.58 0.317 5.89 1.306 7.33 1.715l0.44-2.139c0.16-0.817 0.44-1.637 0.67-2.444l-0.4-0.08c-0.84 1.56-1.34 2.397-1.76 2.75-0.35 0.282-0.78 0.225-3.78-0.382-1.27-0.256-2.58-0.606-3.9-0.901 0.19-1.194 0.36-2.506 0.62-3.801l0.78-3.828 2.92 0.59c3.41 0.687 3.71 0.806 3.84 1.477l0.3 2.287 0.39 0.08c0.21-1.188 0.4-2.264 0.63-3.418 0.21-1.04 0.46-2.105 0.7-3.168l-0.4-0.082-1.13 1.852c-0.38 0.568-0.7 0.563-4.1-0.126l-2.93-0.591 0.7-3.461c0.24-1.181 0.53-2.208 0.78-3.182 1.05 0.183 2.35 0.416 3.99 0.746 3.23 0.653 3.46 0.697 3.58 1.543l0.31 2.26 0.39 0.08c0.1-0.654 0.24-1.622 0.32-2.045 0.09-0.423 0.35-1.424 0.52-2.123-2.5-0.386-5.17-0.807-7.84-1.346-2.14-0.431-4.26-0.9759-6.57-1.5602zm-38.27 1.9712c-0.79-0.014-1.65 0.088-2.576 0.302-1.985 0.459-3.528 1.049-4.982 1.385-1.512 0.35-2.851 0.54-3.912 0.67l0.09 0.391 2.529 0.24c0.661 0.052 0.791 0.231 1.398 2.861l2.342 10.125c0.498 2.154 0.409 2.294-0.314 2.727l-1.987 1.224 0.092 0.393c1.317-0.422 2.913-0.91 4.338-1.238 0.979-0.227 2.882-0.55 4.112-0.715l-0.09-0.393-2.41-0.238c-0.783-0.055-1.015-0.679-1.856-4.317l-0.742-3.214 2.148-0.5c2.26 1.866 5.58 4.871 8.07 7.48 0.68-0.217 1.37-0.438 2.04-0.592 0.65-0.148 1.33-0.247 1.99-0.34l-0.09-0.392c-1.64 0.082-1.82-0.081-4.01-2.141l-5.19-4.871c2.48-1.013 4.18-2.821 3.53-5.648-0.48-2.097-2.16-3.16-4.52-3.199zm-1.4 1.453c1.69 0.047 2.89 0.886 3.32 2.73 0.71 3.08-1.6 4.054-4.201 4.654l-1.902 0.44-1.617-6.994c0.839-0.193 1.673-0.417 2.568-0.623 0.658-0.152 1.272-0.223 1.832-0.207zm85.73 12.306l-0.25 0.317c0.63 0.908 0.99 1.521 1.08 2.002 0.07 0.277-0.03 0.82-0.51 2.019-2.02 5.069-3.91 10.288-6 15.16l0.61 0.481c4.14-2.792 8.79-5.214 13.17-7.707-1.52 4.85-2.9 9.844-4.62 14.533l0.61 0.484c1.87-1.333 7.41-4.918 14.03-8.748 1.51-0.886 2.26-1.17 3.62-0.67l0.25-0.314c-0.85-0.537-1.69-1.056-2.47-1.686-0.86-0.678-1.66-1.467-2.44-2.236l-0.25 0.311c1.14 1.65 1.5 2.12 1.18 2.525-0.63 0.785-2.96 2.232-7.9 5.381l-2.94 1.801c1.47-4.925 3.08-9.744 4.74-14.588l-0.45-0.36c-4.18 2.655-8.62 5.097-13.03 7.532 1.21-3.589 4.31-11.107 4.69-11.58 0.21-0.269 0.61-0.21 1.31 0.056l1.58 0.6 0.25-0.315c-1.1-0.734-2.23-1.486-3.26-2.31s-2.02-1.754-3-2.688zm-127.18 7.172c-2.386-0.072-4.703 0.795-6.367 2.115-1.801 1.428-3.163 2.806-3.928 3.411-0.876 0.696-1.804 1.284-2.842 1.962l0.248 0.313 2.391-0.869c0.618-0.235 0.811-0.129 2.49 1.984l6.461 8.143c1.373 1.732 1.354 1.893 0.885 2.595l-1.268 1.957 0.25 0.317c0.739-0.733 1.431-1.43 2.221-2.055 1.169-0.928 2.437-1.64 5-3.674 4.364-3.464 4.304-8.804 1.236-12.673-1.937-2.441-4.391-3.453-6.777-3.526zm-1.781 1.596c2.141-0.027 4.336 1.045 6.344 3.576 4.141 5.219 2.549 8.569-0.622 11.086-0.496 0.392-1.161 0.849-1.804 1.285-1.279-1.331-0.676-0.709-2.116-2.389l-5.71-7.197c-0.786-0.99-1.505-2.034-2.241-3.099 0.4-0.466 0.825-0.948 1.364-1.375 1.486-1.18 3.119-1.866 4.785-1.887zm67.996 25.693c-25.602 0-50.59 4.026-72.244 11.612l0.136 3.357c0.741 18.858 2.242 57.157 19.694 90.427l53.834-49.64v-55.74c-0.47-0.004-0.95-0.016-1.42-0.016zm89.81 5.41l-4.29 2.733 2.73 4.279 4.29-2.73-2.73-4.282zm-179.79 0.293l-2.715 4.289 4.295 2.717 2.715-4.289-4.295-2.717zm93.387 9.539v12.469h22.16v-12.469h-22.16zm24.16 14.448v11.836h24.08v-11.836h-24.08zm85.05 2.748l-0.39 0.095-0.08 1.375c-0.09 1.498-0.29 1.899-1.35 2.153l-4.28 1.019-9.29-2.451c-1.63-0.408-2.65-0.725-3.09-1.922l-0.39 0.094c0.33 0.84 0.64 1.68 0.86 2.572 0.23 0.978 0.35 2.01 0.48 3.014l0.39-0.094c-0.01-0.912-0.01-2.27 0.44-2.375 0.69-0.166 6.58 1.351 9.08 1.965-0.72 0.792-6.26 5.653-6.91 5.813-0.61 0.14-0.99-0.33-1.77-1.85l-0.39 0.09c0.41 1.23 0.82 2.43 1.12 3.69 0.29 1.23 0.47 2.45 0.64 3.68l0.39-0.09c0.07-0.58 0.13-1.3 0.36-1.83 2.17-2.29 4.31-4.21 8.59-7.948l4.33-1.033c1.06-0.252 1.42 0.018 2.17 1.314l0.7 1.187 0.39-0.09c-0.41-1.2-0.9-2.795-1.24-4.191-0.3-1.286-0.58-2.932-0.76-4.187zm-206.42 0.338l-1.234 1.839c-0.484 0.717-1.064 0.675-3.416 0.151l-7.877-1.76c-4.288-0.957-6.684 1.481-7.592 5.543-0.932 4.177 0.493 7.287 5.916 8.557 4.977 1.17 7.286 1.63 8.844 2.03 0.581 0.16 0.745 0.61 0.892 1.41l0.199 1.34 0.395 0.09c0.137-1.15 0.269-2.27 0.508-3.33 0.275-1.24 0.653-2.41 1.035-3.6l-0.393-0.08-0.818 1.43c-0.422 0.7-0.739 1.07-1.256 1.02-1.984-0.21-6.446-1.18-9.893-1.95-3.363-0.75-4.791-2.92-4.132-5.862 0.993-4.455 3.528-4.745 7.115-3.942 4.315 0.963 6.727 1.501 8.361 1.953 0.968 0.275 1.029 0.524 1.274 2.198l0.189 1.393 0.393 0.09c0.218-1.51 0.432-2.992 0.763-4.477 0.296-1.317 0.701-2.61 1.12-3.959l-0.393-0.084zm97.205 10.73v11.67h22.16v-11.67h-22.16zm94.84 29.61c-0.3 2.48-0.6 4.93-1.02 7.4-0.41 2.46-0.94 4.87-1.48 7.32l4.82 0.81 0.06-0.39-2.11-1.24c-0.9-0.55-0.97-0.86-0.24-5.1l12.34 2.09c1.41 0.24 2.14 0.42 2.51 0.66 0.34 0.2 0.57 0.88 0.92 3.16l0.4 0.06c0.11-1.35 0.2-2.61 0.5-4.37 0.3-1.75 0.63-2.98 0.96-4.29l-0.39-0.07c-1.08 2.04-1.52 2.57-1.91 2.68-0.43 0.1-1.17 0.03-2.59-0.21l-12.34-2.09c0.72-4.25 0.88-4.51 1.91-4.74l2.41-0.47 0.07-0.4-4.82-0.81zm-195.94 2.54l-0.388 0.09c-0.082 0.96-0.2 1.9-0.401 2.85l-0.48 0.49-5.551 1.23c-3.588 0.79-7.809 1.52-8.728 1.61-0.261 0.03-0.568-0.17-0.795-0.53l-1.287-1.95-0.391 0.08c0.379 1.18 0.751 2.34 1.018 3.54 0.272 1.23 0.44 2.52 0.601 3.78l0.393-0.08 0.179-1.99c0.073-0.87 0.254-1.11 0.684-1.29 0.513-0.21 6.025-1.48 9.725-2.3l3.138-0.7 0.014 0.06-6.395 7.38c-2.157 2.48-4.28 4.98-6.546 7.37l0.15 0.67c3.182-0.77 6.404-1.48 7.555-1.74 1.625-0.35 6.639-1.23 8.927-1.65 0.511-0.08 0.853 0.14 1.213 0.71l1.09 1.72 0.533-0.11c-0.398-1.27-0.789-2.5-1.068-3.77-0.256-1.14-0.402-2.35-0.545-3.52l-0.393 0.09-0.349 2.01c-0.157 0.89-0.329 1.16-1.102 1.39-1.355 0.39-2.723 0.72-4.07 1.02l-6.781 1.5-0.071-0.04 8.899-10.29c0.748-0.87 1.514-1.66 2.377-2.41-0.296-0.82-0.594-1.63-0.781-2.48-0.197-0.89-0.284-1.81-0.374-2.74zm184.46 34.84c-0.64 1.29-1.27 2.56-2 3.79-0.83 1.38-1.65 2.53-2.46 3.65l0.35 0.21 1.93-1.66c0.45-0.36 0.64-0.28 2.98 1.05 1.49 0.86 3.03 1.71 4.51 2.6 1.48 0.88 2.95 1.83 4.41 2.74 1.88 1.16 1.94 1.29 1.79 2.04l-0.49 2.28 0.34 0.21c0.57-1.17 1.32-2.66 2.06-3.89 0.65-1.08 1.6-2.45 2.39-3.55l-0.34-0.21-1.78 1.52c-0.59 0.48-0.73 0.49-2.64-0.62-1.49-0.86-3.03-1.71-4.51-2.59-1.47-0.89-2.95-1.83-4.41-2.75-2.29-1.43-2.44-1.56-2.34-2.13l0.55-2.48-0.34-0.21zm-169.67 5.75l-0.331 0.23 0.717 2.44c0.144 0.56-0.004 0.7-2.185 2.29-1.401 1.01-2.808 2.05-4.223 3.03-1.413 0.99-2.885 1.94-4.316 2.9-1.834 1.24-1.98 1.23-2.598 0.79l-1.873-1.39-0.332 0.23c0.831 0.99 1.875 2.3 2.695 3.47 0.719 1.04 1.574 2.48 2.25 3.65l0.33-0.23-0.646-2.24c-0.197-0.74-0.153-0.87 1.646-2.16 1.399-1 2.804-2.05 4.221-3.04 1.414-0.98 2.888-1.93 4.316-2.89 2.252-1.49 2.433-1.58 2.909-1.25l2.037 1.52 0.33-0.22c-0.913-1.12-1.813-2.21-2.629-3.39-0.918-1.32-1.624-2.54-2.318-3.74zm147.95 22.3c-1.29 0.31-2.96 1.16-3.91 1.9-2.44 1.92-3.92 5.24-1.77 7.97 3.34 4.24 10.19-1.58 12.71 1.62 1.65 2.1 0.64 4.21-1.16 5.63-0.57 0.44-1.74 1.14-2.71 1.29l-3.06-2.31-0.32 0.25 2.51 3.98c1.68-0.51 2.76-1.14 3.84-1.99 4.44-3.5 4.14-6.91 2.6-8.87-3.68-4.68-10.04 1.78-12.82-1.76-1.19-1.52-0.75-3.65 0.67-4.77 0.77-0.6 1.62-1.05 2.62-1.36l2.85 1.81 0.25-0.19-2.3-3.2zm-126.37 2.35l-0.221 0.33 0.513 0.69c0.594 0.77 0.713 0.95 0.514 2.09-0.777 4.47-2.307 12.12-3.619 17.52l0.549 0.36c6.154-4.55 11.159-8.02 14.832-10.32 0.919-0.56 1.428-0.6 2.633-0.19l0.222-0.33c-0.783-0.38-1.567-0.76-2.31-1.25-0.912-0.6-1.758-1.29-2.608-1.99l-0.22 0.33c0.833 1.04 1.404 1.79 1.23 2.05-0.173 0.27-0.442 0.47-0.871 0.8-2.591 2.12-6.206 4.69-9.975 7.23 0.546-3.29 2.385-12.77 2.717-13.27 0.174-0.27 0.468-0.24 1.776 0.17l0.998 0.31 0.22-0.33c-1.072-0.57-2.165-1.15-3.173-1.82-1.102-0.72-2.167-1.56-3.207-2.38zm89.06 17.6c-0.78 0-1.64 0.13-2.56 0.37-1.98 0.51-3.5 1.15-4.94 1.52-1.51 0.39-2.84 0.62-3.9 0.78l0.1 0.39 2.54 0.17c0.66 0.03 0.8 0.21 1.47 2.82l2.62 10.06c0.56 2.14 0.48 2.28-0.23 2.73l-1.96 1.28 0.11 0.39c1.3-0.46 2.88-0.99 4.3-1.36 0.97-0.25 2.86-0.63 4.09-0.83l-0.1-0.38-2.42-0.18c-0.78-0.03-1.03-0.65-1.97-4.26l-0.84-3.19 2.15-0.56c2.3 1.8 5.7 4.71 8.26 7.25 0.68-0.24 1.36-0.47 2.03-0.65 0.64-0.16 1.32-0.28 1.97-0.39l-0.1-0.39c-1.63 0.13-1.82-0.03-4.06-2.03l-5.32-4.73c2.45-1.08 4.1-2.93 3.37-5.74-0.54-2.08-2.24-3.1-4.61-3.07zm-51.54 0.95l-0.07 0.39 2.25 1.18c0.59 0.31 0.65 0.52 0.21 3.18l-1.67 10.26c-0.36 2.18-0.49 2.28-1.33 2.4l-2.299 0.38-0.063 0.4c2.062 0.22 4.802 0.55 7.292 0.96 1.59 0.26 5.93 1.08 7.39 1.44l0.35-2.16c0.13-0.82 0.38-1.65 0.57-2.46l-0.39-0.07c-0.78 1.59-1.25 2.45-1.66 2.82-0.33 0.29-0.76 0.25-3.79-0.25-1.28-0.2-2.6-0.51-3.93-0.75 0.14-1.2 0.27-2.52 0.48-3.82l0.63-3.86 2.95 0.48c3.43 0.56 3.73 0.67 3.89 1.34l0.38 2.27 0.4 0.07c0.16-1.2 0.31-2.28 0.5-3.44 0.17-1.05 0.37-2.12 0.58-3.19l-0.4-0.07-1.06 1.89c-0.36 0.58-0.68 0.59-4.11 0.03l-2.95-0.48 0.57-3.49c0.2-1.19 0.45-2.22 0.67-3.2 1.06 0.14 2.36 0.32 4.01 0.59 3.26 0.53 3.48 0.57 3.63 1.41l0.39 2.25 0.4 0.06c0.08-0.66 0.18-1.63 0.25-2.05 0.07-0.43 0.29-1.44 0.44-2.14-2.51-0.3-5.2-0.62-7.89-1.06-2.15-0.35-4.29-0.81-6.62-1.31zm50.19 0.54c1.68 0 2.91 0.8 3.39 2.64 0.79 3.05-1.49 4.09-4.07 4.76l-1.9 0.5-1.8-6.95c0.83-0.22 1.66-0.46 2.55-0.69 0.65-0.17 1.26-0.26 1.83-0.26z" transform="matrix(.8 0 0 -.8 61.928 496.26)" fill="#1b458f"/><path d="m219.85 436.62c-0.57789-14.718-1.7366-44.237-14.756-70.386v77.417c5.1228-1.2301 10.095-2.6782 14.865-4.3474l-0.10854-2.6831" fill="#00674e"/><path d="m128.75 59.672v13.185h22.17v-11.853c-7.29-0.779-14.7-1.228-22.17-1.332zm0 29.553v11.835h22.16v-11.835h-22.16zm1.45 27.565l20.77 20.97v-20.97h-20.77zm-13.26 30.67v20.08h-42.686c3.274 5.91 7.072 11.65 11.482 17.05h31.204v25.75c2.67 1.44 5.44 2.78 8.34 4.04 2.93-1.27 5.75-2.63 8.44-4.09v-25.7h31.11c4.41-5.4 8.21-11.14 11.48-17.05h-42.59v-20.08h-16.78z" transform="matrix(.8 0 0 -.8 61.928 496.26)" fill="#858a9d"/><path d="m132.81 62.146c-0.23 0-0.43 0.102-0.49 0.247l-1.94 4.308c-0.03 0.066-0.03 0.137 0 0.203l1.94 4.309c0.06 0.145 0.26 0.244 0.49 0.244 0.22 0 0.42-0.099 0.49-0.244l1.94-4.309c0.03-0.066 0.03-0.137 0-0.203l-1.94-4.308c-0.07-0.145-0.27-0.247-0.49-0.247zm6.83 0c-0.22 0-0.42 0.102-0.49 0.247l-1.94 4.308c-0.03 0.066-0.03 0.137 0 0.203l1.94 4.309c0.07 0.145 0.27 0.244 0.49 0.244 0.23 0 0.43-0.099 0.49-0.244l1.94-4.309c0.03-0.066 0.03-0.137 0-0.203l-1.94-4.308c-0.06-0.145-0.26-0.247-0.49-0.247zm6.84 0c-0.23 0-0.43 0.102-0.49 0.247l-1.94 4.308c-0.03 0.066-0.03 0.137 0 0.203l1.94 4.309c0.06 0.145 0.26 0.244 0.49 0.244 0.22 0 0.42-0.099 0.49-0.244l1.94-4.309c0.03-0.066 0.03-0.137 0-0.203l-1.94-4.308c-0.07-0.145-0.27-0.247-0.49-0.247zm18.56 3.297c-0.1 0.08-0.24 0.201-0.24 0.203l-0.02 0.02s-0.02 0.013-0.02 0.014c-2.96 2.444-4.8 5.06-4.8 10.537 0 1.084 0.09 2.183 0.29 3.357l0.02 0.137h-0.02l0.21 0.971c0.09 0.421 0.19 0.856 0.31 1.254l0.1 0.324c0.13-0.023 0.33-0.059 0.33-0.059 0.11-0.017 0.21-0.028 0.31-0.039 0.08-0.01 0.16-0.019 0.23-0.031l0.22-0.031-0.06 0.209c-0.3 1.147-0.55 1.887-0.73 2.191 0 0-0.07 0.105-0.08 0.102l-0.11-0.049-0.07-0.028c-0.05-0.022-0.11-0.051-0.18-0.078-0.36-0.144-1.07-0.929-2.19-2.201-0.52-0.59-1.05-1.19-1.5-1.652-0.01 0.281 0.05 0.848 0.12 1.342l0.02 0.148-0.14 0.016c-0.59 0.068-1.14 0.192-1.29 0.283 0.95 0.928 3.58 2.741 4.55 3.127 0.05 0.022 0.1 0.04 0.16 0.064 0.29 0.126 0.68 0.299 1.12 0.086 0.58-0.285 0.96-1.152 1.56-3.555v-0.041l0.02-0.109 0.11-0.006c0.65-0.051 1.23-0.078 1.78-0.078 0.5 0 1.01 0.033 1.47 0.063l0.12 0.009 0.01 0.123c0.15 2.079 0.59 3.326 1.29 3.604 1.17 0.468 5.32-2.562 6.53-3.707-0.53 0.167-0.96 0.279-1.17 0.103-0.23-0.195-0.11-0.717 0.08-1.38l-4.92 3.886-0.1 0.022-0.05-0.088c-0.19-0.33-0.39-1.242-0.5-2.268l-0.01-0.177 0.17 0.023 0.32 0.035c0.19 0.022 0.4 0.046 0.59 0.08l0.33 0.059 0.1-0.324c0.1-0.326 0.2-0.683 0.3-1.122v-0.015l0.01-0.014 0.09-0.199c0.49-1.029 0.87-1.998 1.16-2.959 1.57-5.207 0.57-8.224-1.56-11.4l-0.11-0.163c-0.08 0.037-0.18 0.075-0.18 0.075-0.75 0.316-1.4 0.631-1.99 0.965l-0.1 0.052-0.07-0.078c-0.46-0.464-0.97-0.932-1.57-1.431l-0.25-0.202zm-90.561 6.51c-0.079 0-0.155 0.032-0.211 0.084-1.291 1.189-2.329 3.262-2.729 4.127-1.024-0.847-2.592-1.547-2.664-1.58-0.134-0.059-0.291-0.017-0.377 0.098-0.915 1.238-1.326 2.023-1.51 2.461-1.278-0.713-3.576-0.704-3.683-0.702-0.127 0.002-0.241 0.081-0.287 0.2-0.021 0.055-0.033 0.164-0.032 0.269-0.017 0.026-0.042 0.044-0.056 0.072-0.046 0.123-0.014 0.254 0.08 0.342 3.187 2.939 3.446 4.122 3.914 6.274 0.058 0.273 0.121 0.559 0.193 0.863v0.002c0 1.511 3.673 2.301 7.303 2.301 3.628 0 7.303-0.79 7.303-2.301 0 0-0.004 0-0.004-0.002 0.072-0.304 0.134-0.59 0.193-0.863 0.469-2.152 0.726-3.335 3.916-6.274 0.021-0.019 0.043-0.06 0.065-0.109 0.01-0.025 0.02-0.045 0.025-0.07 0.062-0.176 0.106-0.421 0.076-0.5-0.045-0.12-0.154-0.2-0.281-0.204-0.279-0.007-2.544-0.037-3.729 0.698-0.2-0.42-0.623-1.204-1.461-2.446-0.085-0.127-0.249-0.171-0.384-0.109-0.076 0.033-1.658 0.742-2.68 1.594-0.504-0.987-1.851-3.523-2.742-4.166-0.052-0.038-0.116-0.059-0.182-0.059h-0.056zm31.201 0c-0.08 0-0.15 0.032-0.21 0.084-1.29 1.189-2.33 3.262-2.73 4.127-1.02-0.847-2.59-1.547-2.66-1.58-0.134-0.059-0.29-0.017-0.377 0.098-0.915 1.238-1.325 2.023-1.51 2.461-1.277-0.713-3.576-0.704-3.683-0.702-0.126 0.002-0.241 0.081-0.287 0.2-0.021 0.055-0.033 0.164-0.032 0.269-0.019 0.026-0.044 0.044-0.056 0.072-0.045 0.123-0.014 0.254 0.08 0.342 3.188 2.939 3.448 4.122 3.916 6.274 0.058 0.273 0.12 0.559 0.191 0.863v0.002c0 1.511 3.678 2.301 7.298 2.301 3.63 0 7.31-0.79 7.31-2.301v-0.002c0.07-0.304 0.13-0.59 0.19-0.863 0.47-2.152 0.72-3.335 3.91-6.274 0.02-0.019 0.04-0.06 0.07-0.109 0.01-0.025 0.02-0.045 0.02-0.07 0.06-0.176 0.11-0.421 0.08-0.5-0.04-0.12-0.15-0.2-0.28-0.204-0.28-0.007-2.55-0.037-3.73 0.698-0.2-0.42-0.62-1.204-1.46-2.446-0.09-0.127-0.25-0.171-0.39-0.109-0.07 0.033-1.65 0.742-2.68 1.594-0.5-0.987-1.85-3.523-2.74-4.166-0.05-0.038-0.12-0.059-0.18-0.059h-0.06zm-34.008 5.551c0.294 0.237 0.676 0.589 0.937 0.937-0.493 0.025-0.977 0.065-1.441 0.114 0.153-0.323 0.313-0.659 0.504-1.051zm5.465 0c0.193 0.392 0.355 0.728 0.506 1.051-0.467-0.049-0.944-0.089-1.44-0.114 0.262-0.348 0.643-0.7 0.934-0.937zm25.743 0c0.29 0.237 0.67 0.589 0.93 0.937-0.49 0.025-0.97 0.065-1.44 0.114 0.15-0.323 0.32-0.659 0.51-1.051zm5.46 0c0.19 0.392 0.36 0.728 0.51 1.051-0.47-0.049-0.95-0.089-1.44-0.114 0.26-0.348 0.64-0.7 0.93-0.937zm-41.082 0.957c0.506 0.329 0.701 0.459 0.871 0.633-0.381 0.107-0.723 0.221-1.02 0.345 0.02-0.334 0.071-0.657 0.149-0.978zm14.299 0c0.075 0.321 0.127 0.644 0.146 0.978-0.297-0.124-0.641-0.238-1.023-0.345 0.172-0.174 0.369-0.304 0.877-0.633zm16.906 0c0.507 0.329 0.701 0.459 0.873 0.633-0.383 0.107-0.724 0.221-1.02 0.345 0.02-0.334 0.07-0.657 0.147-0.978zm14.297 0c0.08 0.321 0.13 0.644 0.15 0.978-0.3-0.124-0.64-0.238-1.02-0.345 0.17-0.174 0.36-0.304 0.87-0.633zm69.7 6.232c-0.02-0.005-0.04-0.002-0.07 0.01-0.12 0.052-0.18 0.189-0.13 0.309 0.01 0.014 0.66 1.649-0.2 2.605-0.03-0.005-0.12 0.023-0.15 0.026l-0.16-0.225-0.13-0.508c0.09-0.381 0.34-0.43 0.55-0.642l0.05-0.098c0.1-0.092 0.13-0.153 0.03-0.246-0.09-0.092-0.16 0.047-0.25 0.138l-0.19 0.157c-0.07 0.069-0.07-0.112-0.18 0.008l0.22-0.86c-0.09-0.154-0.05-0.253-0.17-0.285-0.13-0.032-0.15 0.062-0.18 0.189l-0.28 0.663c-0.39-0.136-0.62-0.455-0.64-0.461-0.13-0.03-0.25 0.048-0.28 0.173l0.76 0.651 0.47 1.435c-0.09 0.079-0.19 0.338-0.44 0.44-0.17 0.068-0.42 0.229-0.67 0.351-0.42 0.2-0.77 0.347-0.82 0.586-0.06 0.209 0.04 0.292 0.11 0.317 0.35 0.123 0.76-0.083 1.24 0.168 0.09 0.132 0.51 0.407-0.1 1.832-0.47 1.103-0.5 1.593 0.08 2.158 0 0.019-0.01 0.04-0.01 0.061l-0.47 4.064c-0.02 0.127 0.07 0.246 0.2 0.26 0.13 0.016 0.37 0.002 0.38-0.127l-0.12-0.44 0.22-1.519c0.11 0.32 0.19 0.544 0.37 0.818l0.12 0.408c-0.07 0.097 0 0.422-0.07 0.631-0.04 0.124 0.03 0.256 0.15 0.297 0.12 0.04 0.37 0.075 0.42-0.049 0.04-0.14-0.03-0.421-0.03-0.525 0-0.352 0.15-0.238-0.06-0.586-0.06-0.104-0.1-0.36-0.18-0.469-0.2-0.296-0.26-0.519-0.31-0.82-0.05-0.274 0.23-1.081 0.44-1.574 0.3 0.018 0.91-0.076 1.22-0.127 0.14 0.1 0.59 0.637 1.09 1.201-0.15 0.467-0.71 1.846-0.64 2.295 0.03 0.127 0.14 0.204 0.28 0.193 0.32-0.025 0.32-0.111 0.19-0.271-0.34-0.4 0.3-1.031 0.52-1.649-0.15 0.702 0.26 1.689 0.26 1.735 0.03 0.128 0.15 0.209 0.28 0.181 0.13-0.023 0.33-0.013 0.31-0.14l-0.12-0.133c-0.32-0.306-0.17-1.193 0.05-1.647 0.22-0.423 0.14-0.619 0.01-0.832l-0.03-0.283c0.07-0.06 0.17-0.197 0.12-0.441-0.06-0.314 0.13-0.777 0.32-1.223 0.24-0.581 0.52-1.137 0.26-1.623 0.07-0.088 0.08-0.09 0.27-0.059 0.17 0.029 0.23 0.116 0.29-0.031s-0.21-0.352-0.35-0.467h-0.01c-0.13-0.107-0.41 0.009-0.52 0.141-0.46-0.236-1.38-0.114-2.52 0.074-0.31 0.053-0.61 0.099-0.76 0.104-0.03-0.039-0.28-0.166-0.3-0.26 0.12-0.949 0.17-2.04 0-2.287l0.27-0.264c0.07-0.076 0.11-0.201 0.06-0.293-0.06-0.091-0.18-0.101-0.27-0.205 0.72-1.182 1.21-1.061 1.23-1.057 0.13 0 0.24 0.042 0.24-0.085 0-0.131-0.1-0.237-0.23-0.237-0.04 0-0.28 0.012-0.62 0.221 0-0.04 0.01-0.082 0.02-0.125 0.33-0.19 0.56-0.848 0.65-1.031v-0.118c-0.11-0.058-0.28-0.104-0.34 0.012-0.09 0.17-0.26 0.467-0.36 0.602-0.03-0.367-0.08-0.644-0.18-0.879l-0.06-0.115c-0.04-0.091-0.08-0.18-0.15-0.198zm8.43 0c-0.02-0.005-0.05-0.002-0.08 0.01-0.12 0.052-0.17 0.189-0.12 0.309 0 0.014 0.66 1.649-0.21 2.605-0.03-0.005-0.11 0.023-0.14 0.026l-0.17-0.225-0.13-0.508c0.09-0.381 0.35-0.43 0.56-0.642l0.05-0.098c0.09-0.092 0.12-0.153 0.03-0.246-0.09-0.092-0.16 0.047-0.26 0.138l-0.19 0.157c-0.07 0.069-0.06-0.112-0.17 0.008l0.21-0.86c-0.08-0.154-0.04-0.253-0.17-0.285-0.12-0.032-0.14 0.062-0.18 0.189l-0.27 0.663c-0.4-0.136-0.62-0.455-0.65-0.461-0.12-0.03-0.25 0.048-0.28 0.173l0.77 0.651 0.47 1.435c-0.09 0.079-0.19 0.338-0.44 0.44-0.17 0.068-0.42 0.229-0.68 0.351-0.41 0.2-0.76 0.347-0.82 0.586-0.05 0.209 0.04 0.292 0.12 0.317 0.35 0.123 0.76-0.083 1.23 0.168 0.1 0.132 0.52 0.407-0.09 1.832-0.47 1.103-0.5 1.593 0.08 2.158-0.01 0.019-0.01 0.04-0.02 0.061l-0.47 4.064c-0.01 0.127 0.08 0.246 0.21 0.26 0.13 0.016 0.36 0.002 0.38-0.127l-0.12-0.44 0.22-1.519c0.1 0.32 0.18 0.544 0.36 0.818l0.12 0.408c-0.07 0.097 0.01 0.422-0.06 0.631-0.04 0.124 0.02 0.256 0.15 0.297 0.12 0.04 0.37 0.075 0.41-0.049 0.05-0.14-0.03-0.421-0.03-0.525 0-0.352 0.15-0.238-0.06-0.586-0.06-0.104-0.1-0.36-0.17-0.469-0.2-0.296-0.27-0.519-0.32-0.82-0.04-0.274 0.24-1.081 0.45-1.574 0.3 0.018 0.91-0.076 1.21-0.127 0.14 0.1 0.59 0.637 1.09 1.201-0.15 0.467-0.7 1.846-0.63 2.295 0.02 0.127 0.14 0.204 0.27 0.193 0.33-0.025 0.33-0.111 0.19-0.271-0.33-0.4 0.3-1.031 0.52-1.649-0.15 0.702 0.26 1.689 0.27 1.735 0.03 0.128 0.15 0.209 0.28 0.181 0.12-0.023 0.33-0.011 0.3-0.138l-0.12-0.135c-0.32-0.306-0.17-1.193 0.06-1.647 0.21-0.423 0.13-0.619 0.01-0.832l-0.04-0.283c0.07-0.06 0.18-0.197 0.13-0.441-0.06-0.314 0.13-0.777 0.32-1.223 0.24-0.581 0.51-1.137 0.26-1.623 0.07-0.088 0.08-0.09 0.26-0.059 0.18 0.029 0.24 0.116 0.29-0.031 0.06-0.147-0.2-0.352-0.35-0.467-0.13-0.107-0.41 0.009-0.53 0.141-0.45-0.236-1.38-0.114-2.52 0.074-0.31 0.053-0.61 0.101-0.75 0.106-0.03-0.039-0.29-0.168-0.3-0.262 0.11-0.949 0.17-2.04 0-2.287l0.26-0.264c0.08-0.076 0.12-0.201 0.06-0.293-0.05-0.091-0.17-0.101-0.26-0.205 0.71-1.176 1.2-1.062 1.22-1.057 0.13 0 0.25 0.042 0.25-0.085 0-0.131-0.11-0.237-0.24-0.237-0.04 0-0.27 0.012-0.62 0.221 0.01-0.04 0.02-0.082 0.02-0.125 0.34-0.19 0.56-0.848 0.66-1.031v-0.118c-0.12-0.058-0.29-0.104-0.35 0.012-0.08 0.17-0.26 0.467-0.36 0.602-0.03-0.367-0.07-0.644-0.17-0.879l-0.06-0.115c-0.04-0.091-0.08-0.18-0.15-0.198zm-26.51 5.11c-0.05-0.001-0.09 0.002-0.13 0.015l-2.64 0.62c-0.11 0.025-0.2 0.095-0.25 0.195l-1.19 2.279-0.03 0.053-0.06 0.017-0.56 0.166c-0.17 0.049-0.28 0.214-0.27 0.391l0.16 2.229c0.01 0.187 0.17 0.336 0.35 0.351l0.28 0.02 0.1 0.007 0.02 0.096 0.54 1.83c0.02 0.088 0.08 0.163 0.16 0.213l0.62 0.406 0.09 0.061-0.03 0.102-0.29 0.951-0.06 0.191-0.16-0.119c-0.78-0.557-1.61-0.784-2.47-0.672-1.18 0.155-2.44 0.945-3.72 2.355-0.07 0.08-0.15 0.15-0.22 0.23l0.43-0.11c1.07-1.04 2.1-1.64 3.04-1.76 0.96-0.126 1.82-0.21 2.67 0.64 0.1 0.1 0.25 0.14 0.39 0.11 0.15-0.04 0.26-0.15 0.31-0.29l0.5-1.116 0.06-0.2 0.18 0.114 1.8 1.172c0.07 0.04 0.15 0.07 0.23 0.07h0.31c0.08 0 0.16-0.03 0.22-0.07l1.81-1.172 0.17-0.114 0.06 0.2 0.45 1.116c0.05 0.14 0.16 0.25 0.3 0.29 0.15 0.03 0.3-0.01 0.4-0.11 0.85-0.85 1.76-0.766 2.72-0.64 0.94 0.12 1.97 0.72 3.04 1.76l0.22-0.12c-1.29-1.41-2.54-2.2-3.73-2.355-0.86-0.112-1.69 0.117-2.46 0.674l-0.16 0.117-0.06-0.191-0.3-0.951-0.03-0.102 0.09-0.061 0.63-0.406c0.08-0.05 0.13-0.125 0.16-0.213l0.53-1.83 0.03-0.096 0.1-0.005 0.27-0.02c0.19-0.015 0.34-0.166 0.35-0.353l0.16-2.227c0.02-0.177-0.1-0.344-0.27-0.393l-0.56-0.166-0.06-0.017-0.02-0.053-1.2-2.279c-0.05-0.1-0.14-0.17-0.25-0.195 0 0-2.63-0.618-2.64-0.622-0.04-0.01-0.08-0.014-0.13-0.013zm-80.329 1.195c-0.971 0.07-1.83 0.381-2.502 0.856-1.782 1.256-5.004 0.937-7.221 0.281-0.041-0.013-0.082-0.008-0.125-0.008-0.024-0.001-0.046-0.007-0.072-0.006-0.08 0.013-0.156 0.038-0.223 0.088l-0.002 0.002h-0.004l-3.496 2.685c-0.12 0.09-0.187 0.228-0.187 0.375v0.827h-2.303c-0.183-0.415-0.596-0.705-1.076-0.705-0.653 0-1.182 0.528-1.182 1.179 0 0.652 0.529 1.182 1.182 1.182 0.48 0 0.893-0.29 1.076-0.703h2.303v2.226h-2.303c-0.183-0.414-0.596-0.705-1.076-0.705-0.653 0-1.182 0.53-1.182 1.182 0 0.656 0.529 1.186 1.182 1.186 0.48 0 0.893-0.3 1.076-0.71h2.303v2.23h-2.303c-0.183-0.42-0.596-0.71-1.076-0.71-0.653 0-1.182 0.53-1.182 1.18 0 0.66 0.529 1.19 1.182 1.19 0.48 0 0.893-0.3 1.076-0.71h2.303v2.23h-2.303c-0.183-0.42-0.596-0.71-1.076-0.71-0.653 0-1.182 0.53-1.182 1.18 0 0.66 0.529 1.18 1.182 1.18 0.48 0 0.893-0.29 1.076-0.7h2.303v2.23h-2.303c-0.183-0.42-0.596-0.71-1.076-0.71-0.653 0-1.182 0.53-1.182 1.18 0 0.66 0.529 1.18 1.182 1.18 0.48 0 0.893-0.29 1.076-0.7h2.303v2.23h-2.303c-0.183-0.42-0.596-0.71-1.076-0.71-0.653 0-1.182 0.53-1.182 1.18 0 0.66 0.529 1.18 1.182 1.18 0.48 0 0.893-0.29 1.076-0.7h2.303v2.23h-2.303c-0.183-0.42-0.596-0.71-1.076-0.71-0.653 0-1.182 0.53-1.182 1.18 0 0.66 0.529 1.18 1.182 1.18 0.48 0 0.893-0.29 1.076-0.7h2.303v2c0 0.09 0.028 0.16 0.064 0.23 0.01 0.02 0.022 0.04 0.035 0.05 0.039 0.06 0.086 0.1 0.145 0.13 0.007 0.01 0.011 0.02 0.023 0.02h0.01c0.062 0.03 0.128 0.05 0.199 0.05h15.106c0.052 0 0.069 0.01 0.07 0.01 0.035 0.03 0.105 0.18 0.15 0.28 0.354 0.8 1.007 1.96 3.356 1.96 2.364 0 2.86-1.16 3.213-1.96 0.045-0.1 0.115-0.26 0.15-0.28 0 0 0.02-0.01 0.072-0.01h15.108c0.07 0 0.14-0.02 0.2-0.05 0.13 0.05 0.26 0.06 0.38 0 0.16-0.08 0.27-0.24 0.27-0.43v-2h3.37c0.27 0 0.48-0.21 0.48-0.48 0-0.26-0.21-0.47-0.48-0.47h-3.37v-2.23h3.37c0.27 0 0.48-0.21 0.48-0.48 0-0.26-0.21-0.47-0.48-0.47h-3.37v-2.23h3.37c0.27 0 0.48-0.21 0.48-0.48 0-0.26-0.21-0.47-0.48-0.47h-3.37v-2.23h3.37c0.27 0 0.48-0.21 0.48-0.48 0-0.26-0.21-0.48-0.48-0.48h-3.37v-2.22h3.37c0.27 0 0.48-0.21 0.48-0.48 0-0.26-0.21-0.47-0.48-0.47h-3.37v-2.23h3.37c0.27 0 0.48-0.21 0.48-0.476 0-0.264-0.21-0.477-0.48-0.477h-3.37v-2.226h3.37c0.27 0 0.48-0.212 0.48-0.479 0-0.263-0.21-0.474-0.48-0.474h-3.37v-0.827c0-0.147-0.07-0.285-0.19-0.375l-3.5-2.685v-0.002c-0.07-0.05-0.15-0.076-0.23-0.088-0.02-0.001-0.04 0.005-0.07 0.006-0.04 0-0.08-0.005-0.12 0.008-2.22 0.656-5.443 0.975-7.226-0.281-1.792-1.266-4.912-1.367-7.942 1.162-1.894-1.581-3.823-2.134-5.441-2.018zm75.039 15.212c-0.7 0-1.27 0.63-1.27 1.4 0 0.29 0.08 0.56 0.22 0.79-0.26 0.56-0.23 1.14 0.11 1.61 0.22 0.3 0.41 0.64 0.58 0.94 0.15 0.27 0.29 0.53 0.43 0.71 0.18 0.25 0.43 0.39 0.69 0.4 0.02 0.08 0.06 0.16 0.11 0.23-0.25-0.01-0.53-0.04-0.82-0.08 0-0.01-0.01-0.02-0.01-0.03 0-0.04-0.01-0.09-0.01-0.11v0.03c0-0.63-0.52-1.14-1.15-1.14s-1.14 0.51-1.14 1.14v0.02c-0.49 0.13-0.85 0.58-0.85 1.11 0 0.63 0.51 1.14 1.14 1.14 0.07 0 0.13-0.01 0.2-0.02 0.19 0.37 0.57 0.61 1.01 0.61 0.17 0 0.66-0.04 0.9-0.61 0.34 0.04 0.67 0 0.96-0.05-0.07 0.11-0.14 0.22-0.2 0.31-0.49-0.16-1.04 0.01-1.33 0.46-0.34 0.53-0.19 1.24 0.34 1.58 0.01 0.01 0.01 0.01 0.02 0.01-0.06 0.19-0.07 0.4-0.03 0.6 0.07 0.3 0.24 0.55 0.5 0.72 0.26 0.16 0.56 0.22 0.86 0.15 0.3-0.06 0.55-0.24 0.72-0.5 0.03-0.05 0.06-0.11 0.09-0.17 0.41 0.03 0.83-0.15 1.07-0.52 0.16-0.26 0.22-0.57 0.15-0.87-0.06-0.29-0.24-0.55-0.5-0.71-0.03-0.02-0.05-0.04-0.08-0.05 0.38-0.57 0.99-0.63 1.85-0.52 0.56 0.07 1.04 0.08 1.43 0.04l-0.03 0.27c-0.18-0.09-0.37-0.13-0.58-0.12-0.3 0.02-0.58 0.15-0.78 0.38-0.22 0.25-0.32 0.56-0.28 0.86 0.03 0.27 0.17 0.56 0.39 0.76-0.09 0.18-0.14 0.38-0.12 0.59 0.02 0.31 0.15 0.58 0.38 0.79 0.23 0.2 0.52 0.3 0.83 0.28 0.3-0.02 0.58-0.15 0.79-0.38 0.04-0.05 0.08-0.11 0.11-0.16 0.4 0.1 0.84-0.02 1.14-0.35 0.15-0.18 0.25-0.39 0.27-0.61 0.13 0.13 0.28 0.23 0.45 0.3h0.02c-0.05 0.51 0.25 1 0.74 1.18 0.29 0.11 0.6 0.1 0.88-0.03s0.49-0.36 0.59-0.65c0.03-0.06 0.04-0.12 0.05-0.19 0.41-0.05 0.78-0.32 0.93-0.74 0.22-0.59-0.09-1.25-0.68-1.46v-0.01c-0.1-0.03-0.2-0.05-0.3-0.06-0.02-0.3 0-0.47 0.03-0.64l0.02-0.13 0.04-0.31-0.25-0.2c-0.23-0.2-0.66-0.79-0.65-1.08 0-0.16 0.04-0.49 0.07-0.63 0.22-0.34 0.16-0.87 0.16-0.88v-0.01c0.41-0.41 0.61-0.99 0.48-1.48-0.08-0.28-0.33-0.77-1.19-0.9-0.34-0.05-0.66-0.08-0.97-0.1-0.41-0.04-1.04-0.09-1.14-0.21v-0.04c0.01-0.06 0.03-0.21 0.29-0.31 0.61-0.24 1.64 0 1.83 0.17 0.32 0.27 0.77 0.37 1.21 0.27 0.42-0.09 0.75-0.36 0.91-0.72 0.12-0.27 0.09-0.54-0.08-0.75-0.43-0.5-0.71-0.68-1.32-0.46-0.1 0.04-0.21 0.08-0.37 0.12-0.08 0.01-0.35-0.04-0.55-0.07-0.82-0.15-2.05-0.37-3.05 0.54-0.74 0.66-0.75 1.24-0.63 1.61 0.26 0.76 1.28 1.19 2.18 1.27 0.18 0.02 0.35 0.07 0.47 0.11-0.01 0.02-0.03 0.04-0.04 0.06-0.47 0-2.71 0.02-4.18 0.05 0.14-0.25 0.29-0.51 0.46-0.75 0.34-0.47 0.38-1.05 0.11-1.61 0.15-0.23 0.22-0.5 0.22-0.79 0-0.77-0.56-1.4-1.26-1.4-0.4 0-0.77 0.21-1 0.55-0.25-0.07-0.49-0.11-0.71-0.11h-0.17c-0.22 0-0.46 0.04-0.7 0.11-0.24-0.34-0.61-0.55-1.01-0.55zm25.74 0.64c-0.03-0.01-0.08-0.01-0.13 0.01-0.2 0.09-0.29 0.32-0.21 0.52 0.02 0.02 1.11 2.75-0.34 4.34-0.05 0-0.19 0.05-0.24 0.05l-0.28-0.37-0.21-0.85c0.14-0.63 0.57-0.72 0.93-1.08l0.08-0.16c0.15-0.15 0.2-0.25 0.05-0.41-0.15-0.15-0.28 0.08-0.43 0.23l-0.32 0.26c-0.12 0.12-0.1-0.18-0.29 0.01l0.36-1.43c-0.14-0.26-0.08-0.42-0.28-0.47-0.21-0.06-0.25 0.1-0.3 0.31l-0.46 1.11c-0.67-0.23-1.04-0.76-1.08-0.77-0.21-0.05-0.42 0.08-0.47 0.29l1.28 1.08 0.78 2.4c-0.14 0.13-0.31 0.57-0.73 0.74-0.29 0.11-0.71 0.38-1.13 0.58-0.69 0.34-1.27 0.58-1.37 0.98-0.08 0.35 0.07 0.49 0.19 0.53 0.59 0.21 1.28-0.14 2.07 0.28 0.16 0.22 0.85 0.68-0.16 3.06-0.78 1.84-0.84 2.66 0.14 3.6-0.02 0.04-0.03 0.07-0.03 0.1l-0.78 6.79c-0.03 0.22 0.12 0.41 0.34 0.43 0.21 0.03 0.6 0.01 0.63-0.21l-0.2-0.73 0.37-2.54c0.17 0.54 0.31 0.91 0.61 1.37l0.2 0.68c-0.12 0.16 0.01 0.7-0.11 1.05-0.07 0.21 0.04 0.43 0.25 0.5 0.2 0.07 0.62 0.13 0.69-0.08 0.08-0.24-0.05-0.71-0.05-0.88 0-0.59 0.25-0.39-0.1-0.98-0.1-0.17-0.17-0.6-0.29-0.78-0.33-0.5-0.44-0.87-0.53-1.37-0.07-0.46 0.39-1.8 0.75-2.63 0.5 0.03 1.52-0.13 2.03-0.21 0.23 0.16 0.98 1.06 1.81 2-0.24 0.78-1.18 3.09-1.05 3.84 0.03 0.21 0.23 0.34 0.45 0.32 0.55-0.04 0.54-0.18 0.32-0.45-0.55-0.67 0.5-1.73 0.87-2.76-0.25 1.17 0.43 2.82 0.45 2.9 0.04 0.21 0.25 0.35 0.46 0.31 0.21-0.05 0.55-0.03 0.51-0.24l-0.2-0.23c-0.54-0.51-0.28-1.99 0.09-2.74 0.36-0.71 0.23-1.03 0.02-1.39l-0.06-0.47c0.11-0.11 0.29-0.34 0.21-0.74-0.1-0.53 0.22-1.3 0.53-2.04 0.4-0.97 0.86-1.9 0.43-2.72 0.12-0.14 0.13-0.14 0.44-0.09 0.3 0.05 0.4 0.19 0.49-0.05 0.1-0.25-0.34-0.59-0.58-0.79-0.23-0.18-0.7 0.02-0.89 0.24-0.76-0.4-2.3-0.19-4.2 0.12-0.53 0.09-1.02 0.17-1.26 0.18-0.05-0.06-0.48-0.28-0.51-0.44 0.2-1.58 0.28-3.4 0-3.82l0.45-0.43c0.12-0.13 0.19-0.34 0.09-0.5-0.09-0.15-0.29-0.17-0.44-0.34 1.2-1.97 2.01-1.77 2.05-1.76 0.21 0 0.4 0.07 0.4-0.15 0-0.21-0.17-0.39-0.39-0.39-0.07 0-0.45 0.02-1.03 0.37 0.02-0.07 0.02-0.14 0.04-0.21 0.56-0.31 0.93-1.42 1.08-1.72v-0.2c-0.19-0.1-0.47-0.17-0.57 0.02-0.14 0.28-0.43 0.78-0.6 1.01-0.05-0.62-0.13-1.08-0.29-1.47l-0.1-0.2c-0.06-0.15-0.13-0.29-0.25-0.32zm-24 4.36c0.07 0.11 0.16 0.2 0.27 0.27 0.08 0.02 0.14 0.06 0.18 0.12 0.04 0.05 0.06 0.11 0.06 0.18s-0.03 0.14-0.07 0.19c-0.06 0.06-0.14 0.11-0.24 0.11h-0.01c-0.06 0.01-0.13 0.02-0.19 0.02h-0.1c-0.03 0-0.05 0.01-0.08 0.01-0.1 0-0.18-0.04-0.24-0.11-0.05-0.05-0.07-0.12-0.07-0.19 0-0.04 0-0.08 0.02-0.11 0.04-0.09 0.12-0.16 0.22-0.18 0.09-0.09 0.18-0.2 0.25-0.31zm-1.74 9.82c-0.7 0-1.27 0.63-1.27 1.41 0 0.28 0.08 0.55 0.22 0.78-0.26 0.57-0.23 1.14 0.11 1.62 0.22 0.29 0.41 0.64 0.58 0.94 0.15 0.27 0.29 0.52 0.43 0.71 0.18 0.24 0.43 0.38 0.69 0.4 0.02 0.08 0.06 0.16 0.11 0.23-0.25-0.01-0.53-0.04-0.82-0.08 0-0.01-0.01-0.02-0.01-0.03 0-0.04-0.01-0.1-0.01-0.11v0.03c0-0.63-0.52-1.14-1.15-1.14s-1.14 0.51-1.14 1.14v0.02c-0.49 0.13-0.85 0.57-0.85 1.1 0 0.63 0.51 1.15 1.14 1.15 0.07 0 0.13-0.01 0.2-0.02 0.19 0.36 0.57 0.61 1.01 0.61 0.17 0 0.66-0.05 0.9-0.61 0.34 0.03 0.67-0.01 0.96-0.06-0.07 0.11-0.14 0.22-0.2 0.32-0.49-0.17-1.04 0.01-1.33 0.46-0.34 0.53-0.19 1.24 0.34 1.58 0.01 0 0.01 0.01 0.02 0.01-0.06 0.19-0.07 0.39-0.03 0.6 0.07 0.29 0.24 0.55 0.5 0.71 0.26 0.17 0.56 0.22 0.86 0.16 0.3-0.07 0.55-0.24 0.72-0.5l0.09-0.18c0.41 0.04 0.83-0.15 1.07-0.52 0.16-0.26 0.22-0.56 0.15-0.86-0.06-0.3-0.24-0.55-0.5-0.72-0.03-0.02-0.05-0.03-0.08-0.05 0.38-0.56 0.99-0.62 1.85-0.51 0.56 0.07 1.04 0.07 1.43 0.04-0.01 0.09-0.02 0.17-0.03 0.26-0.18-0.09-0.37-0.13-0.58-0.12-0.3 0.02-0.58 0.16-0.78 0.39-0.22 0.24-0.32 0.56-0.28 0.86 0.03 0.27 0.17 0.56 0.39 0.76-0.09 0.18-0.14 0.38-0.12 0.59 0.02 0.3 0.15 0.58 0.38 0.78s0.52 0.31 0.83 0.29c0.3-0.02 0.58-0.16 0.79-0.39 0.04-0.05 0.08-0.1 0.11-0.16 0.4 0.11 0.84-0.02 1.14-0.35 0.15-0.17 0.25-0.38 0.27-0.61 0.13 0.14 0.28 0.24 0.45 0.3 0.01 0 0.02 0.01 0.02 0.01-0.05 0.5 0.25 1 0.74 1.18 0.29 0.11 0.6 0.09 0.88-0.04s0.49-0.35 0.59-0.64c0.03-0.06 0.04-0.13 0.05-0.19 0.41-0.05 0.78-0.33 0.93-0.74 0.22-0.6-0.09-1.25-0.68-1.47-0.1-0.03-0.2-0.05-0.3-0.06-0.02-0.3 0-0.47 0.03-0.64l0.02-0.14 0.04-0.31c0 0.01-0.25-0.2-0.25-0.2-0.23-0.2-0.66-0.78-0.65-1.08 0-0.15 0.04-0.48 0.07-0.62 0.22-0.34 0.16-0.88 0.16-0.88v-0.02c0.41-0.41 0.61-0.99 0.48-1.47-0.08-0.28-0.33-0.78-1.19-0.91-0.34-0.05-0.66-0.07-0.97-0.1-0.41-0.03-1.04-0.08-1.14-0.21v-0.03c0.01-0.07 0.03-0.21 0.29-0.32 0.61-0.23 1.64 0.01 1.83 0.17 0.32 0.28 0.77 0.38 1.21 0.28 0.42-0.1 0.75-0.36 0.91-0.72 0.12-0.27 0.09-0.54-0.08-0.75-0.43-0.51-0.71-0.69-1.32-0.46-0.1 0.03-0.21 0.07-0.37 0.11-0.08 0.02-0.35-0.03-0.55-0.07-0.82-0.14-2.05-0.37-3.05 0.54-0.74 0.66-0.75 1.24-0.63 1.61 0.26 0.76 1.28 1.19 2.18 1.28 0.18 0.01 0.35 0.06 0.47 0.11-0.01 0.02-0.03 0.04-0.04 0.05-0.47 0.01-2.71 0.03-4.18 0.06 0.14-0.25 0.29-0.52 0.46-0.75 0.34-0.48 0.38-1.05 0.11-1.62 0.15-0.23 0.22-0.5 0.22-0.78 0-0.78-0.56-1.41-1.26-1.41-0.4 0-0.77 0.21-1 0.56-0.25-0.07-0.49-0.11-0.71-0.11h-0.17c-0.22 0-0.46 0.04-0.7 0.11-0.24-0.35-0.61-0.56-1.01-0.56zm-75.168 1.57c-0.121 0-0.236 0.04-0.324 0.13-1.978 1.82-3.572 5-4.184 6.33-1.574-1.3-3.976-2.38-4.09-2.43-0.204-0.09-0.442-0.02-0.578 0.16-1.403 1.89-2.035 3.1-2.316 3.77-1.963-1.1-5.487-1.08-5.651-1.08-0.195 0.01-0.369 0.13-0.441 0.31-0.033 0.08-0.051 0.25-0.049 0.41-0.028 0.04-0.067 0.07-0.084 0.11-0.072 0.19-0.023 0.4 0.121 0.53 4.893 4.51 5.288 6.33 6.004 9.62 0.093 0.43 0.188 0.86 0.297 1.33 0 2.32 5.638 3.53 11.207 3.53 5.567 0 11.201-1.21 11.201-3.53 0.109-0.47 0.205-0.9 0.297-1.33 0.719-3.29 1.113-5.11 6.008-9.62 0.03-0.03 0.06-0.1 0.1-0.17 0.01-0.04 0.03-0.07 0.04-0.11 0.09-0.27 0.16-0.64 0.12-0.77-0.07-0.18-0.24-0.3-0.44-0.31-0.43-0.01-3.903-0.05-5.717 1.07-0.31-0.64-0.959-1.84-2.244-3.75-0.128-0.19-0.379-0.26-0.59-0.17-0.113 0.05-2.542 1.14-4.113 2.45-0.772-1.52-2.838-5.4-4.205-6.39-0.081-0.06-0.182-0.09-0.281-0.09h-0.088zm41.358 2.06c-0.84 0-1.64 0.32-2.24 0.9l-0.05 0.04-0.06-0.02c-0.19-0.08-0.39-0.14-0.59-0.16-0.12-0.02-0.25 0.06-0.29 0.19-0.01 0.06-0.03 0.13-0.05 0.18-0.08 0.25-0.16 0.49-0.12 0.73l0.01 0.09-0.09 0.02c-0.18 0.03-0.31 0.1-0.46 0.18-0.08 0.04-0.15 0.08-0.23 0.12-0.79 0.37-1.38 1.02-1.68 1.83-0.3 0.82-0.26 1.7 0.11 2.48 0.06 0.14 0.14 0.28 0.24 0.43l0.03 0.05-0.03 0.05c-0.07 0.1-0.11 0.19-0.15 0.27-0.05 0.12-0.02 0.26 0.09 0.33 0.07 0.05 0.12 0.12 0.16 0.17 0.05 0.07 0.1 0.12 0.15 0.15l0.07 0.03-0.01 0.07c-0.02 0.16 0 0.28 0.02 0.42 0.01 0.08 0.02 0.16 0.03 0.25 0.08 0.86 0.48 1.64 1.15 2.2 0.66 0.56 1.5 0.82 2.37 0.75 0.1-0.01 0.2-0.02 0.29-0.02 0.2 0 0.38 0 0.58-0.09l0.08-0.03 0.04 0.07c0.05 0.08 0.13 0.13 0.22 0.18 0.07 0.04 0.15 0.09 0.22 0.15 0.1 0.09 0.24 0.1 0.34 0.02l0.18-0.15 0.04-0.04 0.05 0.02c0.08 0.03 0.16 0.05 0.25 0.08 0.83 0.22 1.7 0.11 2.45-0.33 0.76-0.43 1.29-1.13 1.52-1.97 0.09-0.33 0.12-0.67 0.1-1.02v-0.1h0.1c0.37 0 0.74-0.09 1.06-0.27 0.11-0.06 0.16-0.2 0.12-0.32-0.06-0.18-0.15-0.35-0.26-0.52l-0.04-0.04 0.03-0.06c0.39-0.66 0.52-1.42 0.39-2.18-0.15-0.85-0.63-1.59-1.34-2.09-0.2-0.14-0.43-0.26-0.68-0.36l-0.09-0.04 0.04-0.09c0.17-0.4 0.22-0.84 0.13-1.26-0.02-0.12-0.14-0.21-0.27-0.21-0.4 0.01-0.79 0.13-1.13 0.36l-0.08 0.04-0.05-0.07c-0.61-0.89-1.61-1.41-2.67-1.41zm35.55 1.38c0.07 0.11 0.16 0.19 0.27 0.27 0.08 0.01 0.14 0.06 0.18 0.12 0.04 0.05 0.06 0.11 0.06 0.17 0 0.08-0.03 0.14-0.07 0.19-0.06 0.07-0.14 0.11-0.24 0.11h-0.01c-0.06 0.02-0.13 0.03-0.19 0.03-0.03 0-0.07 0-0.1-0.01-0.03 0.01-0.05 0.01-0.08 0.01-0.1 0-0.18-0.04-0.24-0.1-0.05-0.06-0.07-0.12-0.07-0.2 0-0.03 0-0.07 0.02-0.11 0.04-0.09 0.12-0.16 0.22-0.18 0.09-0.09 0.18-0.19 0.25-0.3zm-81.211 5.07c0.451 0.37 1.034 0.91 1.434 1.44-0.757 0.04-1.494 0.1-2.209 0.17 0.234-0.49 0.483-1 0.775-1.61zm8.385 0c0.294 0.61 0.543 1.12 0.777 1.61-0.717-0.07-1.453-0.13-2.211-0.17 0.4-0.53 0.985-1.07 1.434-1.44zm-15.162 1.47c0.78 0.51 1.076 0.71 1.34 0.97-0.587 0.17-1.109 0.34-1.565 0.53 0.033-0.51 0.107-1.01 0.225-1.5zm21.939 0c0.12 0.49 0.195 0.99 0.227 1.5-0.457-0.19-0.979-0.36-1.565-0.53 0.263-0.26 0.562-0.46 1.338-0.97zm27.249 35.25c-0.16 0.02-0.35 0.11-0.56 0.3 0 0-0.27-0.27-0.9-0.07-0.63 0.21-0.61 1.02-0.54 1.3 0 0-2 1.88-2.14 2.23s0.2 1.43 0.83 1.22c0 0-0.35 0.79 0.32 0.71 0.83-0.1 0.82 0.17 0.62 0.77-0.1 0.34-1.81 1.33-3.14-0.14s-2.31-2.1-3.01-1.54-1.26 1.26-0.35 1.68 0.98-0.21 1.33 0.07 1.52 3.26 3.77 3.36c0 0-0.65 2.96-1.16 2.96-0.61 0-1.45-0.14-1.97 0.44-0.36 0.41-0.17 1.17 0.53 1.31s1.75 0.17 2.1-0.18 2.31-1.22 2.14-1.96c-0.22-0.95 0.53-1.52 1.23-1.66s5.25 0.77 5.88 0.56c0 0 0.03 1.76-0.12 2.32-0.13 0.56-1.36 0.15-1.85 0.64s-0.56 1.12-0.07 1.33 2.67-0.37 2.67-0.37 0.84-0.77 1.05-1.26 1.19-1.12 1.12-1.61-0.47-0.69-0.47-1.25 0.75-0.71 1.03-0.5 1.46 1.4 1.96 1.75c0.49 0.35 2.51 0.42 3.42 0.49s0.28 0.91-0.35 0.98c-0.62 0.07-0.07 1.47 0.49 1.4s1.9-0.49 2.1-1.33c0.21-0.84 0.28-1.96-0.28-2.87s-2.16 0.14-2.72-0.84 0.07-3.36-0.49-3.92-3.15-0.7-4.55-0.56-3.43-1.03-2.24-2.66c1.33-1.82 2.17-1.47 2.66-1.96s0.28-0.69-0.35-0.63c-0.63 0.07-3.29 0-3.85-0.06-0.56-0.07-1.33 0.83-0.84 1.33 0.62 0.62 1.19-0.07 1.61-0.57 0.42-0.48 2.67-0.19 2.03 0.07-1.64 0.69-2.4 2.54-2.34 2.87 0.26 1.44 1.5 2.17 3.46 2.1 0 0-4.55 0.48-4.72 0.09-0.33-0.73-0.62-2.15-0.36-2.37 0.42-0.34-0.79-1.45-1-1.87s-0.99-0.82-0.99-0.82-0.28-1.34-0.99-1.28zm6.38 11.52c0.27 0 0.49 0.4 0.49 0.89s-0.22 0.89-0.49 0.89-0.5-0.4-0.5-0.89 0.23-0.89 0.5-0.89z" transform="matrix(.8 0 0 -.8 61.928 496.26)"/><path d="m105.61 72.896c-1.2 1.213-2.18 3.259-2.48 3.922 0.38 0.297 1.19 0.988 1.46 1.657 0.01 0.001 0.01 0.026 0.02 0.029 0.03 0.093 0.02 0.199-0.04 0.281-0.05 0.083-0.14 0.136-0.24 0.141-0.86 0.03-1.68 0.097-2.45 0.197-0.12 0.014-0.23-0.036-0.29-0.125-0.07-0.092-0.08-0.213-0.04-0.314 0.26-0.552 0.49-1.032 0.81-1.7-0.73-0.65-1.92-1.252-2.417-1.49-0.871 1.208-1.21 1.923-1.326 2.233l0.063 0.041c0.916 0.594 0.97 0.628 1.43 1.195 0.07 0.084 0.09 0.197 0.06 0.301-0.04 0.1-0.12 0.175-0.227 0.201-0.767 0.181-1.379 0.396-1.822 0.633-0.073 0.041-0.163 0.045-0.242 0.019-0.081-0.025-0.152-0.086-0.19-0.162-0.018-0.042-0.026-0.086-0.029-0.133-0.01-0.637 0.067-1.236 0.231-1.824-0.638-0.424-1.804-0.606-2.674-0.668 2.766 2.674 3.048 3.972 3.498 6.029 0.01 0.048 0.023 0.104 0.033 0.151 0.997-0.88 3.532-1.375 6.172-1.446 0.23-0.007 0.45-0.009 0.68-0.009s0.45 0.002 0.68 0.009c2.64 0.071 5.18 0.566 6.17 1.446 0.02-0.047 0.03-0.103 0.04-0.151 0.45-2.06 0.73-3.36 3.51-6.045-0.91 0.051-2.14 0.229-2.71 0.684 0.16 0.589 0.23 1.187 0.22 1.824 0 0.047-0.01 0.097-0.03 0.137-0.04 0.078-0.1 0.135-0.19 0.16-0.07 0.026-0.16 0.02-0.24-0.021-0.44-0.237-1.05-0.452-1.82-0.633-0.1-0.026-0.19-0.101-0.22-0.201-0.04-0.104-0.02-0.217 0.05-0.301 0.46-0.567 0.52-0.601 1.43-1.195l0.07-0.039c-0.15-0.332-0.53-1.045-1.31-2.229-0.51 0.24-1.7 0.849-2.43 1.504 0.32 0.659 0.55 1.134 0.8 1.68 0.05 0.101 0.04 0.222-0.03 0.314-0.07 0.089-0.18 0.138-0.29 0.125-0.77-0.1-1.59-0.167-2.45-0.197-0.09-0.005-0.18-0.057-0.24-0.133-0.06-0.078-0.07-0.182-0.04-0.272 0-0.011 0.01-0.035 0.01-0.046 0.28-0.674 1.1-1.371 1.48-1.664-0.54-1.06-1.7-3.192-2.45-3.915zm-31.278 0.17c-1.203 1.213-2.188 3.257-2.488 3.92 0.38 0.3 1.193 0.99 1.468 1.657 0.003 0.003 0.01 0.026 0.01 0.031 0.037 0.093 0.024 0.197-0.031 0.281-0.054 0.084-0.146 0.135-0.246 0.139-0.857 0.033-1.68 0.099-2.451 0.197-0.111 0.015-0.223-0.033-0.289-0.125-0.068-0.092-0.08-0.211-0.032-0.314 0.255-0.549 0.483-1.029 0.807-1.698-0.733-0.652-1.922-1.255-2.418-1.492-0.873 1.209-1.21 1.926-1.33 2.234l0.064 0.042c0.918 0.591 0.974 0.628 1.436 1.197 0.066 0.084 0.088 0.194 0.053 0.295-0.033 0.101-0.118 0.18-0.223 0.203-0.767 0.183-1.381 0.394-1.822 0.633-0.075 0.039-0.165 0.046-0.244 0.019-0.082-0.024-0.147-0.086-0.186-0.162-0.019-0.041-0.033-0.084-0.033-0.131-0.01-0.639 0.071-1.236 0.232-1.826-0.638-0.422-1.804-0.606-2.673-0.668 2.764 2.674 3.046 3.972 3.494 6.029 0.012 0.051 0.025 0.104 0.035 0.153 0.995-0.883 3.534-1.375 6.178-1.448 0.224-0.006 0.451-0.009 0.677-0.009 0.225 0 0.449 0.003 0.676 0.009 2.644 0.073 5.179 0.565 6.174 1.448 0.012-0.049 0.025-0.103 0.037-0.153h-0.002c0.449-2.06 0.732-3.359 3.512-6.043-0.908 0.052-2.141 0.227-2.715 0.684 0.161 0.588 0.243 1.187 0.23 1.824 0 0.047-0.012 0.097-0.033 0.137-0.038 0.077-0.105 0.134-0.185 0.16-0.08 0.027-0.168 0.018-0.243-0.021-0.441-0.239-1.054-0.452-1.824-0.635-0.102-0.023-0.185-0.102-0.22-0.203-0.033-0.101-0.014-0.211 0.054-0.295 0.461-0.569 0.515-0.606 1.432-1.197l0.064-0.042c-0.152-0.33-0.525-1.041-1.312-2.228-0.504 0.242-1.7 0.849-2.426 1.504 0.32 0.659 0.549 1.137 0.801 1.68 0.046 0.103 0.036 0.222-0.031 0.314-0.068 0.092-0.179 0.14-0.291 0.125-0.77-0.098-1.595-0.164-2.45-0.197-0.095-0.004-0.182-0.055-0.238-0.133-0.056-0.077-0.072-0.179-0.047-0.272 0.004-0.011 0.012-0.034 0.018-0.046 0.277-0.671 1.097-1.37 1.472-1.664-0.536-1.059-1.698-3.19-2.441-3.913zm31.268 9.838c-0.22 0-0.44 0.003-0.65 0.01-3.16 0.094-5.1 0.868-5.12 1.432 0 0.005-0.003 0.01-0.004 0.013 0.008 0.605 2.204 1.448 5.774 1.448s5.77-0.843 5.77-1.448v-0.013c-0.02-0.564-1.96-1.338-5.12-1.432-0.21-0.007-0.43-0.01-0.65-0.01zm-31.28 0.166c-0.222 0-0.442 0.006-0.652 0.012-3.16 0.095-5.098 0.868-5.121 1.434 0 0.005-0.002 0.006-0.002 0.009 0.006 0.608 2.203 1.452 5.775 1.452s5.766-0.844 5.772-1.452c0-0.003-0.002-0.004-0.002-0.009-0.022-0.566-1.963-1.339-5.121-1.434-0.212-0.006-0.427-0.012-0.649-0.012zm108.13 1.637c-0.02-0.006-0.05-0.003-0.07 0.01-0.12 0.052-0.18 0.189-0.13 0.308 0.01 0.016 0.66 1.65-0.21 2.602-0.03-0.004-0.11 0.026-0.15 0.031l-0.16-0.226-0.12-0.508c0.08-0.38 0.34-0.43 0.55-0.643l0.05-0.097c0.09-0.092 0.12-0.154 0.03-0.245-0.09-0.092-0.16 0.044-0.26 0.135l-0.19 0.158c-0.07 0.071-0.06-0.112-0.17 0.006l0.21-0.857c-0.08-0.157-0.04-0.254-0.17-0.285-0.12-0.031-0.14 0.062-0.17 0.189l-0.28 0.662c-0.4-0.134-0.62-0.455-0.65-0.461-0.12-0.029-0.25 0.047-0.28 0.174l0.77 0.651 0.47 1.433c-0.09 0.081 0.82 0.076 0.73-0.029 0.72-1.181 1.2-1.059 1.22-1.055 0.13 0 0.25 0.045 0.25-0.086s-0.11-0.234-0.24-0.234c-0.04 0-0.27 0.009-0.62 0.221 0.01-0.043 0.02-0.085 0.03-0.127 0.33-0.19 0.56-0.848 0.65-1.032v-0.119c-0.12-0.057-0.29-0.104-0.35 0.014-0.08 0.17-0.26 0.467-0.36 0.601-0.02-0.366-0.07-0.643-0.17-0.878l-0.06-0.118c-0.04-0.089-0.08-0.178-0.15-0.195zm8.47 0c-0.02-0.006-0.05-0.003-0.08 0.01-0.12 0.052-0.17 0.189-0.12 0.308 0 0.016 0.66 1.65-0.21 2.602-0.03-0.004-0.12 0.026-0.15 0.031l-0.16-0.226-0.13-0.508c0.09-0.38 0.34-0.43 0.56-0.643l0.05-0.097c0.09-0.092 0.12-0.154 0.03-0.245-0.09-0.092-0.17 0.044-0.26 0.135l-0.19 0.158c-0.07 0.071-0.07-0.112-0.17 0.006l0.21-0.857c-0.08-0.157-0.05-0.254-0.17-0.285-0.13-0.031-0.15 0.062-0.18 0.189l-0.27 0.662c-0.4-0.134-0.63-0.455-0.65-0.461-0.12-0.029-0.25 0.047-0.28 0.174l0.77 0.651 0.46 1.433c-0.08 0.081 0.83 0.076 0.73-0.029 0.72-1.175 1.2-1.06 1.23-1.055 0.13 0 0.24 0.045 0.24-0.086s-0.1-0.234-0.23-0.234c-0.04 0-0.27 0.009-0.62 0.221 0.01-0.043 0.02-0.085 0.02-0.127 0.34-0.19 0.56-0.848 0.65-1.032v-0.119c-0.11-0.057-0.28-0.104-0.34 0.014-0.08 0.17-0.26 0.467-0.36 0.601-0.03-0.366-0.07-0.643-0.18-0.878l-0.05-0.118c-0.04-0.089-0.08-0.178-0.15-0.195zm-124 10.625c-0.652 0-1.18 0.528-1.18 1.18s0.528 1.181 1.18 1.181c0.483 0 0.892-0.291 1.078-0.703h2.303v-0.953h-2.303c-0.186-0.414-0.595-0.705-1.078-0.705zm41.81 0.705v0.953h3.38c0.26 0 0.47-0.214 0.47-0.478 0-0.263-0.21-0.475-0.47-0.475h-3.38zm-41.81 2.475c-0.652 0-1.18 0.529-1.18 1.181 0 0.647 0.528 1.187 1.18 1.187 0.483 0 0.892-0.3 1.078-0.71h2.303v-0.955h-2.303c-0.186-0.412-0.595-0.703-1.078-0.703zm41.81 0.703v0.955h3.38c0.26 0 0.47-0.214 0.47-0.477 0-0.264-0.21-0.478-0.47-0.478h-3.38zm-41.81 2.475c-0.652 0-1.18 0.53-1.18 1.18 0 0.66 0.528 1.18 1.18 1.18 0.483 0 0.892-0.29 1.078-0.7h2.303v-0.95h-2.303c-0.186-0.42-0.595-0.71-1.078-0.71zm41.81 0.71v0.95h3.38c0.26 0 0.47-0.21 0.47-0.48 0-0.26-0.21-0.47-0.47-0.47h-3.38zm-41.81 2.47c-0.652 0-1.18 0.53-1.18 1.18 0 0.66 0.528 1.18 1.18 1.18 0.483 0 0.892-0.29 1.078-0.7h2.303v-0.96h-2.303c-0.186-0.41-0.595-0.7-1.078-0.7zm41.81 0.7v0.96h3.38c0.26 0 0.47-0.21 0.47-0.48 0-0.26-0.21-0.48-0.47-0.48h-3.38zm50.27 1.1c-0.38 0-0.69 0.38-0.69 0.84 0 0.24 0.08 0.47 0.23 0.63 0.07 0.07 0.08 0.17 0.03 0.25-0.2 0.31-0.36 0.78-0.04 1.22 0.24 0.34 0.44 0.7 0.62 1.02 0.15 0.26 0.28 0.5 0.4 0.66 0.14 0.19 0.28 0.18 0.37 0.16 0.31-0.07 0.61-0.46 0.68-0.71l-0.5-1.36-0.33-0.18-0.12-0.06c-0.01-0.11 0.01-0.12-0.01-0.11l0.07-0.15 0.25-0.06c0.02 0 0.18-0.19 0.19-0.19l0.34-0.03 0.13 0.12-0.03 0.45 0.19 1.16 0.15 0.03 0.16-1.23-0.03-0.41s0.09-0.12 0.19-0.15l0.37 0.25h0.43l0.1 0.25c-0.01 0.12-0.15 0.17-0.15 0.17l-0.39 0.05c-0.03 0.02-0.05 0.01-0.07 0.02l-0.48 1.43c0.07 0.25 0.37 0.64 0.68 0.71 0.09 0.02 0.24 0.03 0.37-0.16 0.12-0.16 0.26-0.4 0.4-0.66 0.18-0.32 0.38-0.68 0.62-1.02 0.32-0.44 0.16-0.91-0.03-1.22-0.06-0.08-0.05-0.18 0.02-0.25 0.15-0.16 0.24-0.39 0.24-0.63 0-0.46-0.31-0.84-0.7-0.84-0.27 0-0.52 0.21-0.63 0.52-0.02 0.05-0.06 0.1-0.11 0.12-0.06 0.03-0.12 0.03-0.17 0.01-0.3-0.12-0.58-0.19-0.83-0.19h-0.17c-0.25 0-0.54 0.07-0.84 0.19-0.05 0.02-0.11 0.02-0.17-0.01-0.05-0.02-0.09-0.07-0.11-0.12-0.1-0.31-0.35-0.52-0.63-0.52zm25.81 0.15c-0.04-0.01-0.08-0.01-0.13 0.01-0.2 0.09-0.29 0.32-0.21 0.52 0.01 0.02 1.11 2.75-0.34 4.35-0.05-0.01-0.2 0.04-0.25 0.04l-0.27-0.37-0.22-0.85c0.15-0.63 0.58-0.72 0.93-1.07l0.09-0.17c0.15-0.15 0.2-0.25 0.05-0.41-0.16-0.15-0.28 0.08-0.43 0.23l-0.32 0.26c-0.12 0.12-0.11-0.18-0.29 0.02l0.36-1.44c-0.14-0.26-0.08-0.42-0.29-0.47-0.21-0.06-0.24 0.1-0.29 0.31l-0.47 1.11c-0.66-0.23-1.03-0.76-1.07-0.77-0.21-0.05-0.42 0.08-0.47 0.29l1.27 1.08 0.79 2.4c-0.14 0.14 1.37 0.13 1.22-0.05 1.2-1.96 2-1.77 2.04-1.76 0.22 0 0.41 0.07 0.41-0.15 0-0.21-0.18-0.39-0.39-0.39-0.07 0-0.45 0.02-1.03 0.37l0.03-0.21c0.57-0.31 0.94-1.42 1.09-1.72v-0.2c-0.19-0.09-0.47-0.17-0.57 0.02-0.14 0.29-0.44 0.78-0.6 1.01-0.05-0.61-0.13-1.08-0.3-1.47l-0.09-0.19c-0.07-0.15-0.14-0.3-0.25-0.33zm-14.94 0.64c-0.13 0-0.29 0.1-0.66 0.2-0.2 0.05-0.47 0-0.81-0.06-0.76-0.14-1.81-0.33-2.61 0.4-0.29 0.25-0.6 0.64-0.47 1.01 0.14 0.44 0.86 0.82 1.71 0.9 0.48 0.04 0.99 0.27 1.09 0.45 0.15 0.3-0.25 0.65-0.39 0.89-0.04 0.07-0.17 0.02-0.24 0.02-0.05 0-3.91 0.04-5.26 0.07 0.01 0.02 0.02 0.03 0.02 0.05 0.06 0.3-0.11 0.64-0.49 1.03-0.65 0.64-2.14 0.52-3.28 0.29 0.06-0.09-0.05-0.51-0.05-0.61 0-0.32-0.25-0.57-0.57-0.57-0.31 0-0.57 0.25-0.57 0.57 0 0.09 0.03 0.19 0.08 0.28 0.05 0.07 0.04 0.17-0.01 0.24-0.06 0.06-0.14 0.09-0.22 0.07-0.06-0.01-0.11-0.02-0.15-0.02-0.31 0-0.57 0.26-0.57 0.57 0 0.32 0.26 0.57 0.57 0.57 0.12 0 0.24-0.03 0.33-0.11 0.07-0.04 0.15-0.05 0.22-0.02 0.07 0.04 0.12 0.11 0.12 0.19 0.01 0.31 0.26 0.55 0.57 0.55 0.28 0 0.39-0.25 0.44-0.53 0.02-0.11 0-0.21 0.35-0.13 0.47 0.11 0.99-0.02 1.4-0.08 0.16-0.03 0.32-0.05 0.46-0.06 0.08-0.01 0.15 0.03 0.19 0.09 0.05 0.07 0.05 0.16 0 0.23l-0.84 1.34c-0.03 0.05-0.09 0.08-0.15 0.09s-0.13-0.01-0.18-0.05c-0.01-0.02-0.03-0.03-0.05-0.04-0.26-0.17-0.62-0.09-0.79 0.17s-0.09 0.62 0.18 0.79c0.08 0.05 0.18 0.08 0.28 0.08 0.09 0.01 0.16 0.06 0.19 0.14s0.01 0.17-0.06 0.23c-0.04 0.04-0.07 0.08-0.09 0.11-0.17 0.27-0.09 0.62 0.17 0.79 0.27 0.17 0.62 0.09 0.79-0.17 0.06-0.1 0.09-0.22 0.09-0.34-0.01-0.08 0.03-0.15 0.1-0.2 0.07-0.03 0.15-0.03 0.22 0 0.26 0.16 0.6 0.09 0.77-0.17 0.08-0.13 0.11-0.28 0.08-0.43-0.04-0.15-0.13-0.28-0.25-0.36-0.1-0.06-0.21-0.09-0.32-0.09-0.07 0-0.14-0.03-0.17-0.09-0.04-0.06-0.05-0.13-0.03-0.2 0.55-1.41 1.71-1.42 2.71-1.29 2.2 0.27 2.6-0.5 2.64-0.54 0.05-0.05 0.17-0.48 0.25-0.45 0.07 0.02 0.12 0.13 0.1 0.21-0.35 1.75 1.56 2.13 1.63 2.14l0.39 0.23c-0.02 0.05-0.06 0.1-0.11 0.12-0.06 0.03-0.13 0.03-0.19 0-0.04-0.03-0.07-0.04-0.09-0.05-0.15-0.05-0.3-0.05-0.44 0.02-0.14 0.06-0.24 0.18-0.3 0.32-0.05 0.14-0.04 0.3 0.02 0.43 0.07 0.14 0.18 0.25 0.32 0.3 0.1 0.03 0.2 0.04 0.3 0.02 0.09-0.01 0.17 0.02 0.22 0.1 0.04 0.07 0.04 0.16-0.01 0.23-0.03 0.05-0.05 0.09-0.07 0.13-0.11 0.29 0.05 0.62 0.34 0.73 0.14 0.05 0.3 0.04 0.44-0.02s0.24-0.18 0.29-0.32c0.04-0.11 0.05-0.23 0.01-0.35-0.02-0.07 0.01-0.16 0.06-0.21 0.06-0.05 0.14-0.07 0.22-0.05 0.29 0.1 0.6-0.05 0.71-0.34s-0.04-0.62-0.34-0.73c-0.15-0.06-0.29-0.03-0.38 0-0.1 0.03-0.24 0-0.26-0.1-0.11-0.8-0.04-1.07 0-1.38-0.25-0.22-0.9-0.97-0.88-1.57 0-0.19 0.06-0.88 0.16-0.95 0.05-0.03 0.1-0.36 0.08-0.48-0.01-0.08 0-0.16-0.01-0.23-0.02-0.08 0.01-0.16 0.07-0.21 0.34-0.26 0.52-0.7 0.44-1.02-0.09-0.33-0.44-0.45-0.73-0.49-0.32-0.05-0.64-0.07-0.95-0.1-0.73-0.06-1.31-0.11-1.57-0.43-0.11-0.13-0.15-0.29-0.13-0.48 0.05-0.37 0.28-0.65 0.67-0.81 0.8-0.31 2.09-0.05 2.48 0.28 0.17 0.15 0.45 0.21 0.71 0.15 0.24-0.05 0.43-0.2 0.52-0.4 0.04-0.09 0.01-0.12-0.01-0.14-0.23-0.27-0.32-0.36-0.45-0.35zm-102.95 0.59c-0.652 0-1.18 0.53-1.18 1.18s0.528 1.18 1.18 1.18c0.483 0 0.892-0.29 1.078-0.7h2.303v-0.96h-2.303c-0.186-0.41-0.595-0.7-1.078-0.7zm41.81 0.7v0.96h3.38c0.26 0 0.47-0.21 0.47-0.48 0-0.26-0.21-0.48-0.47-0.48h-3.38zm-41.81 2.48c-0.652 0-1.18 0.53-1.18 1.18 0 0.66 0.528 1.18 1.18 1.18 0.483 0 0.892-0.29 1.078-0.7h2.303v-0.96h-2.303c-0.186-0.41-0.595-0.7-1.078-0.7zm41.81 0.7v0.96h3.38c0.26 0 0.47-0.21 0.47-0.48 0-0.26-0.21-0.48-0.47-0.48h-3.38zm57.69 2.13c-0.3 0.27-0.33 0.26-0.69 0.36 0 0.7-0.18 1.6-0.19 1.64-0.01 0.01-0.01 0.02-0.02 0.03 0 0-0.01 0.02-0.02 0.03-0.05 0.07-0.13 0.11-0.22 0.09-0.08-0.02-0.14-0.08-0.16-0.16-0.03-0.11-0.09-0.21-0.18-0.28-0.23-0.21-0.59-0.19-0.8 0.04-0.1 0.12-0.16 0.27-0.14 0.42 0.02 0.19 0.17 0.49 0.46 0.52 0.08 0.01 0.14 0.08 0.16 0.17 0.02 0.08-0.02 0.17-0.09 0.21-0.05 0.03-0.08 0.06-0.11 0.1-0.1 0.11-0.15 0.26-0.14 0.41s0.08 0.29 0.19 0.39 0.26 0.15 0.41 0.14 0.29-0.07 0.4-0.19c0.07-0.09 0.12-0.2 0.13-0.32 0.01-0.08 0.06-0.14 0.13-0.17 0.08-0.04 0.16-0.02 0.22 0.03 0.24 0.2 0.59 0.17 0.79-0.06 0.1-0.12 0.15-0.26 0.14-0.41s-0.07-0.29-0.19-0.39v-0.01c-0.01 0-0.02-0.01-0.03-0.02-0.05-0.04-0.08-0.1-0.09-0.16 0-0.06 0.03-0.12 0.08-0.16l0.88-0.79c-0.62-0.2-0.92-1.46-0.92-1.46zm-99.5 0.35c-0.652 0-1.18 0.53-1.18 1.18 0 0.66 0.528 1.18 1.18 1.18 0.483 0 0.892-0.29 1.078-0.7h2.303v-0.95h-2.303c-0.186-0.42-0.595-0.71-1.078-0.71zm41.81 0.71v0.95h3.38c0.26 0 0.47-0.21 0.47-0.48 0-0.26-0.21-0.47-0.47-0.47h-3.38zm50.27 6.38c-0.38 0-0.69 0.38-0.69 0.84 0 0.24 0.08 0.46 0.23 0.62 0.07 0.07 0.08 0.18 0.03 0.26-0.2 0.31-0.36 0.77-0.04 1.22 0.24 0.33 0.44 0.7 0.62 1.02 0.15 0.25 0.28 0.5 0.4 0.66 0.14 0.19 0.28 0.18 0.37 0.16 0.31-0.08 0.61-0.47 0.68-0.72l-0.5-1.36-0.33-0.18-0.12-0.06c-0.01-0.11 0.01-0.11-0.01-0.11l0.07-0.14 0.25-0.07c0.02 0 0.18-0.18 0.19-0.18l0.34-0.03 0.13 0.12-0.03 0.44 0.19 1.16 0.15 0.03 0.16-1.22-0.03-0.41s0.09-0.13 0.19-0.16l0.37 0.25h0.43l0.1 0.26c-0.01 0.11-0.15 0.16-0.15 0.16l-0.39 0.06c-0.03 0.01-0.05 0.01-0.07 0.01l-0.48 1.43c0.07 0.25 0.37 0.64 0.68 0.72 0.09 0.02 0.24 0.03 0.37-0.16 0.12-0.16 0.26-0.41 0.4-0.66 0.18-0.32 0.38-0.69 0.62-1.02 0.32-0.45 0.16-0.91-0.03-1.22-0.06-0.08-0.05-0.19 0.02-0.26 0.15-0.16 0.24-0.38 0.24-0.62 0-0.46-0.31-0.84-0.7-0.84-0.27 0-0.52 0.2-0.63 0.51-0.02 0.06-0.06 0.11-0.11 0.13-0.06 0.02-0.12 0.02-0.17 0-0.3-0.12-0.58-0.18-0.83-0.18h-0.17c-0.25 0-0.54 0.06-0.84 0.18-0.05 0.02-0.11 0.02-0.17 0-0.05-0.02-0.09-0.07-0.11-0.13-0.1-0.31-0.35-0.51-0.63-0.51zm10.87 0.78c-0.13 0.01-0.29 0.11-0.66 0.2-0.2 0.05-0.47 0-0.81-0.06-0.76-0.14-1.81-0.33-2.61 0.4-0.29 0.26-0.6 0.64-0.47 1.02 0.14 0.44 0.86 0.81 1.71 0.89 0.48 0.05 0.99 0.28 1.09 0.45 0.15 0.3-0.25 0.65-0.39 0.89-0.04 0.07-0.17 0.02-0.24 0.02-0.05 0-3.91 0.04-5.26 0.07 0.01 0.02 0.02 0.04 0.02 0.05 0.06 0.3-0.11 0.65-0.49 1.03-0.65 0.65-2.14 0.52-3.28 0.3 0.06-0.1-0.05-0.52-0.05-0.62 0-0.32-0.25-0.57-0.57-0.57-0.31 0-0.57 0.25-0.57 0.57 0 0.1 0.03 0.2 0.08 0.29 0.05 0.07 0.04 0.16-0.01 0.23-0.06 0.07-0.14 0.1-0.22 0.08-0.06-0.02-0.11-0.02-0.15-0.02-0.31 0-0.57 0.25-0.57 0.57 0 0.31 0.26 0.57 0.57 0.57 0.12 0 0.24-0.04 0.33-0.11 0.07-0.05 0.15-0.06 0.22-0.02 0.07 0.03 0.12 0.1 0.12 0.18 0.01 0.31 0.26 0.56 0.57 0.56 0.28 0 0.39-0.26 0.44-0.53 0.02-0.12 0-0.21 0.35-0.13 0.47 0.11 0.99-0.02 1.4-0.09 0.16-0.02 0.32-0.04 0.46-0.06 0.08 0 0.15 0.03 0.19 0.1 0.05 0.07 0.05 0.16 0 0.23l-0.84 1.34c-0.03 0.05-0.09 0.08-0.15 0.09s-0.13-0.02-0.18-0.06c-0.01-0.01-0.03-0.03-0.05-0.04-0.26-0.17-0.62-0.09-0.79 0.18-0.17 0.26-0.09 0.61 0.18 0.78 0.08 0.06 0.18 0.09 0.28 0.09 0.09 0 0.16 0.06 0.19 0.14s0.01 0.17-0.06 0.23c-0.04 0.04-0.07 0.07-0.09 0.11-0.17 0.26-0.09 0.62 0.17 0.79 0.27 0.16 0.62 0.09 0.79-0.18 0.06-0.09 0.09-0.21 0.09-0.34-0.01-0.07 0.03-0.15 0.1-0.19s0.15-0.04 0.22 0c0.26 0.16 0.6 0.08 0.77-0.18 0.08-0.13 0.11-0.28 0.08-0.43-0.04-0.15-0.13-0.27-0.25-0.36-0.1-0.06-0.21-0.09-0.32-0.09-0.07 0-0.14-0.03-0.17-0.09-0.04-0.05-0.05-0.13-0.03-0.19 0.55-1.42 1.71-1.42 2.71-1.3 2.2 0.28 2.6-0.49 2.64-0.53 0.05-0.06 0.17-0.48 0.25-0.46 0.07 0.03 0.12 0.14 0.1 0.21-0.35 1.75 1.56 2.14 1.63 2.15l0.39 0.22c-0.02 0.06-0.06 0.11-0.11 0.13-0.06 0.03-0.13 0.02-0.19-0.01-0.04-0.02-0.07-0.03-0.09-0.04-0.15-0.06-0.3-0.05-0.44 0.01-0.14 0.07-0.24 0.18-0.3 0.32-0.05 0.15-0.04 0.3 0.02 0.44 0.07 0.14 0.18 0.24 0.32 0.29 0.1 0.04 0.2 0.05 0.3 0.03 0.09-0.02 0.17 0.02 0.22 0.09 0.04 0.08 0.04 0.17-0.01 0.24-0.03 0.05-0.05 0.08-0.07 0.12-0.11 0.3 0.05 0.63 0.34 0.74 0.14 0.05 0.3 0.04 0.44-0.02 0.14-0.07 0.24-0.18 0.29-0.32 0.04-0.12 0.05-0.24 0.01-0.35-0.02-0.08 0.01-0.16 0.06-0.22 0.06-0.05 0.14-0.06 0.22-0.04 0.29 0.1 0.6-0.05 0.71-0.35 0.11-0.29-0.04-0.62-0.34-0.73-0.15-0.05-0.29-0.03-0.38 0-0.1 0.04-0.24 0.01-0.26-0.1-0.11-0.8-0.04-1.06 0-1.38-0.25-0.21-0.9-0.97-0.88-1.57 0-0.18 0.06-0.87 0.16-0.94 0.05-0.03 0.1-0.36 0.08-0.49-0.01-0.07 0-0.15-0.01-0.23-0.02-0.07 0.01-0.15 0.07-0.2 0.34-0.27 0.52-0.71 0.44-1.03-0.09-0.32-0.44-0.44-0.73-0.48-0.32-0.05-0.64-0.08-0.95-0.1-0.73-0.06-1.31-0.11-1.57-0.43-0.11-0.13-0.15-0.3-0.13-0.49 0.05-0.37 0.28-0.65 0.67-0.8 0.8-0.31 2.09-0.05 2.48 0.28 0.17 0.15 0.45 0.21 0.71 0.15 0.24-0.06 0.43-0.2 0.52-0.4 0.04-0.09 0.01-0.12-0.01-0.14-0.23-0.28-0.32-0.36-0.45-0.36zm-86.015 1.9c-1.845 1.86-3.355 5-3.816 6.02 0.584 0.45 1.829 1.52 2.252 2.54 0.002 0 0.013 0.04 0.016 0.04 0.055 0.14 0.036 0.31-0.049 0.44-0.086 0.13-0.226 0.2-0.379 0.21-1.314 0.05-2.579 0.15-3.762 0.3-0.171 0.02-0.343-0.05-0.445-0.19s-0.121-0.32-0.049-0.48c0.39-0.84 0.744-1.58 1.244-2.6-1.126-1-2.952-1.93-3.711-2.29-1.339 1.85-1.859 2.95-2.041 3.42l0.1 0.07c1.408 0.91 1.493 0.96 2.201 1.83 0.104 0.13 0.132 0.3 0.082 0.46-0.055 0.15-0.184 0.27-0.342 0.31-1.179 0.28-2.121 0.6-2.797 0.97-0.115 0.06-0.252 0.07-0.377 0.03-0.122-0.04-0.228-0.14-0.285-0.25-0.029-0.06-0.046-0.13-0.049-0.2-0.015-0.98 0.106-1.9 0.358-2.8-0.98-0.65-2.77-0.93-4.106-1.03 4.245 4.11 4.679 6.1 5.366 9.25 0.016 0.08 0.034 0.16 0.052 0.24 1.528-1.36 5.421-2.11 9.479-2.22 0.343-0.01 0.691-0.02 1.037-0.02s0.693 0.01 1.039 0.02c4.054 0.11 7.949 0.86 9.479 2.22 0.017-0.08 0.033-0.16 0.05-0.24 0.688-3.16 1.12-5.15 5.387-9.27-1.392 0.08-3.28 0.35-4.164 1.05 0.251 0.9 0.37 1.82 0.355 2.8-0.003 0.07-0.022 0.15-0.054 0.21-0.056 0.12-0.159 0.2-0.281 0.24-0.126 0.04-0.26 0.03-0.374-0.03-0.677-0.37-1.617-0.69-2.794-0.97-0.161-0.04-0.292-0.16-0.344-0.31-0.052-0.16-0.021-0.33 0.082-0.46 0.71-0.87 0.793-0.92 2.201-1.83l0.096-0.07c-0.235-0.5-0.808-1.6-2.014-3.42-0.774 0.37-2.605 1.31-3.723 2.31 0.493 1.01 0.845 1.75 1.231 2.58 0.072 0.16 0.055 0.34-0.049 0.48-0.101 0.14-0.273 0.21-0.445 0.19-1.183-0.15-2.449-0.25-3.76-0.3-0.147 0-0.28-0.08-0.365-0.2-0.086-0.12-0.112-0.28-0.073-0.42 0.007-0.02 0.018-0.05 0.024-0.07 0.428-1.03 1.69-2.1 2.266-2.55-0.823-1.63-2.606-4.9-3.749-6.01zm82.565 4.71c-0.3 0.27-0.33 0.25-0.69 0.35 0 0.71-0.18 1.6-0.19 1.64-0.01 0.01-0.01 0.03-0.02 0.04 0 0-0.01 0.01-0.02 0.03-0.05 0.07-0.13 0.1-0.22 0.09-0.08-0.02-0.14-0.08-0.16-0.16-0.03-0.11-0.09-0.21-0.18-0.29-0.23-0.21-0.59-0.19-0.8 0.05-0.1 0.11-0.16 0.26-0.14 0.41 0.02 0.19 0.17 0.5 0.46 0.52 0.08 0.01 0.14 0.09 0.16 0.17 0.02 0.09-0.02 0.17-0.09 0.22-0.05 0.03-0.08 0.06-0.11 0.09-0.1 0.12-0.15 0.26-0.14 0.41 0.01 0.16 0.08 0.3 0.19 0.4s0.26 0.15 0.41 0.14 0.29-0.08 0.4-0.19c0.07-0.09 0.12-0.2 0.13-0.32 0.01-0.08 0.06-0.15 0.13-0.18 0.08-0.03 0.16-0.02 0.22 0.03 0.24 0.2 0.59 0.18 0.79-0.06 0.1-0.11 0.15-0.25 0.14-0.41-0.01-0.15-0.07-0.29-0.19-0.39-0.01 0-0.02-0.01-0.03-0.02-0.05-0.04-0.08-0.1-0.09-0.16 0-0.07 0.03-0.13 0.08-0.17l0.88-0.78c-0.62-0.2-0.92-1.46-0.92-1.46zm-82.586 10.65c-0.34 0-0.67 0-0.994 0.01-4.85 0.15-7.826 1.33-7.861 2.2 0 0.01-0.002 0.01-0.004 0.02 0.009 0.93 3.38 2.22 8.859 2.22 5.482 0 8.849-1.29 8.861-2.22-0.001-0.01-0.004-0.01-0.004-0.02-0.033-0.87-3.01-2.05-7.859-2.2-0.324-0.01-0.656-0.01-0.998-0.01z" transform="matrix(.8 0 0 -.8 61.928 496.26)" fill="#dab006"/><path d="m122.41 125.79l-0.02 0.08c-0.18 0.5-0.13 1.06 0.14 1.51 0.27 0.47 0.72 0.78 1.25 0.87l0.08 0.01 0.02-0.07c0.18-0.5 0.13-1.06-0.14-1.52s-0.72-0.77-1.25-0.86l-0.08-0.02zm6.77 0.38h-0.08c-0.54 0.01-1.04 0.26-1.37 0.68-0.33 0.41-0.46 0.95-0.36 1.48l0.02 0.07h0.08c0.53-0.01 1.03-0.26 1.36-0.67 0.33-0.42 0.47-0.96 0.36-1.48l-0.01-0.08zm-7.62 5.1c-0.13 0-0.26 0-0.39 0.02-0.51 0.09-0.94 0.4-1.18 0.82 0.37 0.32 0.87 0.47 1.39 0.39 0.52-0.09 0.94-0.4 1.18-0.82-0.27-0.24-0.62-0.39-1-0.41zm7.8 0.28c-0.38-0.02-0.74 0.08-1.05 0.29 0.2 0.44 0.58 0.8 1.08 0.95 0.51 0.15 1.02 0.05 1.43-0.22-0.2-0.44-0.58-0.8-1.08-0.95-0.13-0.04-0.26-0.06-0.38-0.07zm-3.93 1.88l-0.06 0.05c-0.42 0.33-0.68 0.82-0.71 1.35-0.02 0.53 0.19 1.05 0.58 1.41l0.06 0.05 0.06-0.04c0.43-0.33 0.69-0.82 0.71-1.35 0.03-0.53-0.18-1.05-0.58-1.41l-0.06-0.06z" transform="matrix(.8 0 0 -.8 61.928 496.26)" fill="#2d9b63"/><path d="m164.4 90.121l-0.04 0.012-2.56 0.599-0.07 0.02-0.03 0.062-0.68 1.639-0.17 0.328 0.36-0.103 3.09-0.916-0.02 0.008c0.06-0.019 0.1-0.026 0.14-0.026 0.05 0 0.11 0.016 0.17 0.045l0.01 0.008 0.02 0.002 2.96 0.879 0.36 0.103-0.17-0.328-0.67-1.639-0.03-0.062-0.08-0.02-2.56-0.599-0.03-0.012zm0 2.131l-0.05 0.014-4.62 1.365-0.12 0.035 0.01 0.127 0.11 1.838 0.01 0.137 0.13 0.007h0.01l4.5 0.33h0.03l4.5-0.33 0.14-0.007 0.01-0.137 0.11-1.838 0.01-0.127-0.12-0.035-4.62-1.365-0.04-0.014zm-3.57 4.098l0.41 1.539 3.16 2.052 3.15-2.052 0.41-1.537-3.54 0.259c0.03-0.001 0.05-0.015 0.08-0.021-0.04 0.007-0.08 0.025-0.12 0.025-0.01 0-0.02-0.004-0.02-0.004l-3.53-0.261z" transform="matrix(.8 0 0 -.8 61.928 496.26)" fill="#858a9d"/><path d="m169.01 66.67l-0.11 0.049c-0.58 0.25-1.07 0.486-1.5 0.724l-0.15 0.084 0.11 0.135c1.9 2.206 2.75 4.849 2.75 8.568 0 0.481-0.04 0.963-0.07 1.43v0.029l0.28 0.053c0.01-0.032 0.02-0.069 0.04-0.105 0.01-0.046 0.03-0.091 0.04-0.137 1.49-4.947 0.6-7.773-1.32-10.729l-0.07-0.101zm-3.72 0.006l-0.03 0.269-0.01 0.002c-0.47 3.58-0.71 7.3-0.71 11.051l0.01 0.949v0.16 0.145l0.15-0.002c0.05 0 0.11-0.004 0.17-0.008 0.05-0.005 0.11-0.008 0.17-0.008 1.24 0 2.54 0.113 3.87 0.34l0.14 0.024 0.02-0.145c0.18-1.127 0.27-2.181 0.27-3.223 0-4.916-1.54-7.301-3.85-9.373l-0.2-0.181zm-0.8 0.234l-0.29 0.278c-2.09 1.988-3.49 4.285-3.49 9.042 0 1.043 0.09 2.099 0.27 3.227l0.03 0.143 0.14-0.026c0.78-0.132 1.62-0.225 2.5-0.275l0.14-0.008v-0.137-0.129l-0.01-1.029c0-3.604 0.22-7.198 0.66-10.687l0.05-0.399zm0.55 13.088c-1.21 0-2.46 0.108-3.74 0.324l-0.15 0.026 0.04 0.146c0.07 0.314 0.13 0.57 0.19 0.805l0.04 0.121 0.12-0.02c1.21-0.185 2.39-0.279 3.5-0.279 0.52 0 1.08 0.024 1.76 0.076l0.05 0.004 0.03-0.023c0.1-0.061 0.19-0.094 0.27-0.098 0.16-0.007 0.31 0.054 0.43 0.17l0.03 0.031 0.05 0.006c0.35 0.04 0.61 0.077 0.86 0.113l0.12 0.018 0.04-0.123c0.06-0.232 0.12-0.486 0.19-0.801l0.03-0.148-0.14-0.024c-1.28-0.215-2.53-0.324-3.72-0.324zm20.2 11.168c-0.52-0.031-1.41 0.117-1.9 0.199-0.38 0.061-0.68 0.134-0.85 0.112-0.87-0.119-0.98 0-1.25 0.144-0.48 0.27-0.31 1.315 0.09 1.674 0.67 0.613 1.74 0.158 2.47-0.035 0.52-0.134 0.7-0.26 0.9-0.231 0.09 0.014 0.08 0.322 0.07 0.416 0 0 0.05 0.492 0.11 0.639 0.06 0.145 0.23 0.126 0.26 0 0.03-0.117-0.03-0.322-0.03-0.322-0.09-0.454 0.09-0.566 0.3-1.078 0.29-0.691 0.46-1.164 0.2-1.42-0.07-0.059-0.2-0.088-0.37-0.098zm8.43 0c-0.52-0.031-1.41 0.117-1.9 0.199-0.38 0.061-0.69 0.134-0.86 0.112-0.86-0.119-0.98 0-1.24 0.144-0.48 0.27-0.32 1.315 0.08 1.674 0.68 0.613 1.75 0.158 2.48-0.035 0.52-0.134 0.69-0.26 0.9-0.231 0.09 0.014 0.08 0.322 0.07 0.416 0 0 0.05 0.492 0.1 0.639 0.06 0.145 0.24 0.126 0.27 0 0.03-0.117-0.03-0.322-0.03-0.322-0.09-0.454 0.09-0.566 0.3-1.078 0.29-0.691 0.46-1.164 0.19-1.42-0.06-0.059-0.19-0.088-0.36-0.098zm-109.42 0.754c-0.836 0.039-1.569 0.292-2.135 0.691-1.899 1.342-4.972 1.199-7.431 0.577v21.792c5.642 0.28 7.118-0.19 8.302-0.57 0.785-0.25 1.462-0.46 3.006-0.41 1.121 0.05 2.126 0.37 3.002 0.97l0.555 0.39 0.468-0.39c0.877-0.6 1.909-1.16 3.03-1.2 1.545-0.06 2.196 0.39 2.982 0.64 1.182 0.38 2.66 0.85 8.297 0.57v-21.792c-2.46 0.622-5.527 0.765-7.428-0.577-1.509-1.065-4.206-1.089-6.881 1.2l-0.468 0.478-0.555-0.478c-1.671-1.431-3.351-1.957-4.744-1.891zm21.036 1.682v21.658l2.54 1.95v-21.657l-2.54-1.951zm78.96 0c-0.14-0.043-0.45 0.095-0.43 0.166 0.03 0.072 0.62 0.736 0.72 0.712 0.09-0.025 0.07-0.072 0.02-0.238s-0.07-0.57-0.31-0.64zm8.43 0c-0.15-0.043-0.45 0.095-0.43 0.166 0.02 0.072 0.62 0.736 0.71 0.712 0.1-0.025 0.07-0.072 0.02-0.238-0.04-0.166-0.07-0.57-0.3-0.64zm-119.01 0.058l-2.545 1.951v21.659l2.545-1.95v-21.66zm19.476 21.09c-1.24 0.05-2.336 0.75-3.209 1.61-0.099 0.1-0.191 0.55-0.328 0.54-0.132 0.01-0.313-0.44-0.412-0.54-0.885-0.87-1.925-1.32-3.181-1.37-1.377-0.05-1.952 0.14-2.68 0.37-1.275 0.41-2.867 0.91-8.916 0.59l-2.244 1.72h13.699c0.713 0 0.941 0.52 1.092 0.86 0.226 0.5 0.479 1.07 2.422 1.07 1.927 0 2.182-0.57 2.406-1.07 0.153-0.34 0.381-0.86 1.09-0.86h14.073l-2.24-1.72c-6.053 0.32-7.644-0.18-8.919-0.59-0.729-0.23-1.276-0.66-2.653-0.61zm96.342 2.89c-0.86-0.05-2.35 0.19-3.17 0.33-0.64 0.11-1.14 0.23-1.43 0.19-1.45-0.2-1.63 0-2.07 0.24-0.81 0.45-0.53 2.19 0.13 2.8 1.14 1.02 2.92 0.26 4.14-0.06 0.87-0.23 1.16-0.44 1.5-0.39 0.15 0.02 0.14 0.54 0.12 0.7 0 0 0.08 0.82 0.17 1.06 0.1 0.25 0.39 0.22 0.45 0 0.05-0.19-0.05-0.54-0.05-0.54-0.15-0.75 0.14-0.94 0.5-1.8 0.48-1.15 0.77-1.94 0.32-2.37-0.1-0.09-0.32-0.14-0.61-0.16zm-1.87 4.06c-0.24 0.04-0.53 0.19-0.5 0.28 0.04 0.12 1.03 1.23 1.19 1.19s0.12-0.12 0.04-0.39c-0.08-0.28-0.12-0.95-0.51-1.07-0.06-0.02-0.14-0.02-0.22-0.01z" transform="matrix(.8 0 0 -.8 61.928 496.26)" fill="#fff"/></g></g><path stroke-linejoin="round" d="m184.48 357.46h-1.1245c-0.35593 0-0.41362-0.47229-0.41362-0.82821 0-0.35593-0.0156-1.9097 0-2.2656 0.0215-0.53096-0.35593-0.82235-1.1333-0.68741l0.30215-0.0235s0.88884-0.0577 1.1264 0.17991c0.23565 0.23566 0.0812 1.8706 0.14667 2.6254 0.0645 0.71087 1.0961 0.99933 1.0961 0.99933zm-5.069 0h1.1235c0.35592 0 0.41655-0.47229 0.41655-0.82821 0-0.35593 0.0127-1.9097 0-2.2656-0.0245-0.53096 0.35397-0.82235 1.1313-0.68741l-0.30508-0.0235s-0.88689-0.0577-1.1235 0.17991c-0.23761 0.23566-0.0812 1.8706-0.14863 2.6254-0.0626 0.71087-1.0942 0.99933-1.0942 0.99933zm-33.471 0h-1.1245c-0.35495 0-0.4146-0.47229-0.4146-0.82821 0-0.35593-0.0157-1.9097 0-2.2656 0.0215-0.53096-0.35593-0.82235-1.1323-0.68741l0.30313-0.0235s0.88884-0.0577 1.1245 0.17991c0.23761 0.23566 0.0812 1.8706 0.14863 2.6254 0.0626 0.71087 1.0952 0.99933 1.0952 0.99933zm-5.07 0h1.1255c0.35495 0 0.4146-0.47229 0.4146-0.82821 0-0.35593 0.0147-1.9097 0-2.2656-0.0225-0.53096 0.35593-0.82235 1.1313-0.68741l-0.30215-0.0235s-0.88884-0.0577-1.1245 0.17991c-0.23761 0.23566-0.0812 1.8706-0.14863 2.6254-0.0626 0.71087-1.0961 0.99933-1.0961 0.99933zm24.194-15.853h-1.1264c-0.35495 0-0.41362-0.47326-0.41362-0.82723 0-0.35495-0.0156-1.9116 0-2.2656 0.0215-0.53291-0.35495-0.82137-1.1333-0.68839l0.30312-0.0215s0.88884-0.0596 1.1264 0.17699c0.23566 0.23565 0.0812 1.8735 0.14765 2.6284 0.0616 0.70795 1.0961 0.99738 1.0961 0.99738zm-5.07 0h1.1245c0.35593 0 0.41362-0.47326 0.41362-0.82723 0-0.35495 0.0156-1.9116 0-2.2656-0.0225-0.53291 0.35593-0.82137 1.1323-0.68839l-0.30312-0.0215s-0.88689-0.0596-1.1245 0.17699c-0.23761 0.23565-0.0821 1.8735-0.14863 2.6284-0.0626 0.70795-1.0942 0.99738-1.0942 0.99738zm5.07 29.657h-1.1264c-0.35495 0-0.41362-0.47229-0.41362-0.82821 0-0.35495-0.0156-1.9107 0-2.2656 0.0215-0.53291-0.35495-0.82137-1.1333-0.68741l0.30312-0.0225s0.88884-0.0587 1.1264 0.17699c0.23566 0.23761 0.0812 1.8725 0.14765 2.6284 0.0616 0.70989 1.0961 0.99835 1.0961 0.99835zm-5.07 0h1.1245c0.35593 0 0.41362-0.47229 0.41362-0.82821 0-0.35495 0.0156-1.9107 0-2.2656-0.0225-0.53291 0.35593-0.82137 1.1323-0.68741l-0.30312-0.0225s-0.88689-0.0587-1.1245 0.17699c-0.23761 0.23761-0.0821 1.8725-0.14863 2.6284-0.0626 0.70989-1.0942 0.99835-1.0942 0.99835z" stroke="#000" stroke-linecap="round" stroke-width=".68252" fill="none"/><path stroke-linejoin="round" d="m179.84 351.95c-0.0137-0.0724-0.0245-0.14472-0.0245-0.22196 0-0.80671 0.89862-1.4648 2.0094-1.4648 1.1098 0 2.0094 0.65807 2.0094 1.4648 0 0.0772-0.01 0.1496-0.0244 0.22196m-1.9879 1.2223c-0.0518-1.1333 1.5107-1.6506 2.5013-0.99835 0.99054 0.65123 0.0518 1.7747 0.31193 2.3096 0.26108 0.53096 1.5655 0.82821 1.5655 2.1307 0 1.3024-2.7633 3.6121-4.3787 3.6042h0.007c-1.6154 0.008-4.3777-2.3018-4.3777-3.6042 0-1.3025 1.3025-1.5997 1.5626-2.1307 0.26108-0.53487-0.67763-1.6584 0.3129-2.3096 0.98956-0.6522 2.5541-0.13494 2.5022 0.99835h-0.007zm-40.521-1.2223c-0.0156-0.0724-0.0245-0.14472-0.0245-0.22196 0-0.80671 0.8996-1.4648 2.0084-1.4648 1.1098 0 2.0104 0.65807 2.0104 1.4648 0 0.0772-0.0108 0.1496-0.0264 0.22196m-1.9869 1.2223c-0.0518-1.1333 1.5117-1.6506 2.5003-0.99835 0.99053 0.65123 0.0538 1.7747 0.31388 2.3096 0.26108 0.53096 1.5635 0.82821 1.5635 2.1307 0 1.3024-2.7614 3.6121-4.3777 3.6042h0.006c-1.6154 0.008-4.3767-2.3018-4.3767-3.6042 0-1.3025 1.3025-1.5997 1.5626-2.1307 0.2601-0.53487-0.67665-1.6584 0.31388-2.3096 0.99054-0.6522 2.5521-0.13494 2.5003 0.99835h-0.006zm19.125-16.061v0.55638m-1.984-1.5704c-0.0147-0.0733-0.0254-0.14667-0.0254-0.22099 0-0.80963 0.90057-1.4648 2.0094-1.4648 1.1108 0 2.0104 0.65514 2.0104 1.4648 0 0.0743-0.009 0.14765-0.0254 0.22099m-1.9879 1.2213c-0.0518-1.1323 1.5127-1.6506 2.5022-0.99934 0.99054 0.65123 0.0518 1.7757 0.3129 2.3106 0.26011 0.53194 1.5626 0.82724 1.5626 2.1307 0 1.3024-2.7623 3.6101-4.3777 3.6042h0.008c-1.6163 0.006-4.3777-2.3018-4.3777-3.6042 0-1.3034 1.3025-1.5987 1.5635-2.1307 0.2601-0.53487-0.67861-1.6594 0.31192-2.3106 0.99054-0.65122 2.5541-0.13298 2.5022 0.99934h-0.008zm-1.9811 28.435c-0.0147-0.0714-0.0254-0.14472-0.0254-0.22099 0-0.80963 0.90057-1.4658 2.0094-1.4658 1.1108 0 2.0104 0.65612 2.0104 1.4658 0 0.0763-0.009 0.14961-0.0254 0.22099m-1.9879 1.2232c-0.0518-1.1343 1.5127-1.6506 2.5022-0.99933 0.99054 0.65123 0.0518 1.7757 0.3129 2.3076 0.26011 0.53292 1.5626 0.83017 1.5626 2.1326s-2.7623 3.6111-4.3777 3.6052h0.008c-1.6163 0.006-4.3777-2.3028-4.3777-3.6052 0-1.3025 1.3025-1.5997 1.5635-2.1326 0.2601-0.53193-0.67861-1.6564 0.31192-2.3076 0.99054-0.65123 2.5541-0.13494 2.5022 0.99933h-0.008z" stroke="#000" stroke-linecap="round" stroke-width=".95631" fill="none"/><path d="m166.52 72.434c-0.29-0.015-0.53 0.207-0.55 0.496-0.02 0.407 0.02 0.633 0.05 0.836 0.03 0.17 0.05 0.317 0.04 0.605-0.01 0.287 0.22 0.532 0.51 0.539 0.29 0.008 0.53-0.219 0.54-0.508 0.02-0.393-0.02-0.613-0.06-0.808-0.03-0.177-0.05-0.319-0.03-0.61 0.01-0.287-0.21-0.535-0.5-0.55zm-4.37 0.418c-0.29-0.018-0.53 0.206-0.55 0.496-0.02 0.287-0.01 0.436 0.01 0.58 0 0.116 0.01 0.224 0 0.439-0.01 0.289 0.22 0.533 0.51 0.543s0.53-0.215 0.54-0.506c0.01-0.269 0-0.42-0.01-0.55-0.01-0.124-0.01-0.229-0.01-0.452 0.02-0.289-0.2-0.538-0.49-0.55zm-87.736 6.732c-0.216 0-0.393 0.454-0.393 1.01s0.177 1.01 0.393 1.01 0.393-0.454 0.393-1.01-0.177-1.01-0.393-1.01zm31.206 0c-0.22 0-0.39 0.454-0.39 1.01s0.17 1.01 0.39 1.01 0.39-0.454 0.39-1.01-0.17-1.01-0.39-1.01zm-37.401 0.824c-0.209 0.059-0.254 0.541-0.1 1.076 0.15 0.537 0.445 0.925 0.654 0.868 0.208-0.062 0.252-0.546 0.1-1.082-0.153-0.537-0.446-0.92-0.654-0.862zm12.511 0c-0.207-0.058-0.5 0.325-0.654 0.862-0.151 0.536-0.107 1.02 0.102 1.082 0.209 0.057 0.502-0.331 0.654-0.868 0.153-0.535 0.108-1.017-0.102-1.076zm18.694 0c-0.209 0.059-0.254 0.541-0.102 1.076 0.152 0.537 0.446 0.925 0.655 0.868 0.213-0.062 0.253-0.546 0.103-1.082-0.155-0.537-0.447-0.92-0.656-0.862zm12.516 0c-0.21-0.058-0.51 0.325-0.66 0.862-0.15 0.536-0.11 1.02 0.1 1.082 0.21 0.057 0.5-0.331 0.66-0.868 0.15-0.535 0.1-1.017-0.1-1.076zm51.2 1.69c-0.01 0.01-0.01 0.022-0.01 0.019 0-0.002 0.01-0.008 0.01-0.01v-0.009zm-7.45 0.234c0.01 0.018 0.01 0.062 0 0.08 0.01-0.011 0.04-0.018 0.06-0.029-0.02-0.015-0.05-0.035-0.06-0.051zm-17.2 7.34l-0.45 1.197-1.05 2.84h-4.11l1.06 0.848 2.12 1.709-1.19 4.104 1.09-0.739 2.53-1.711 2.53 1.711 1.15 0.779-0.43-1.324-0.92-2.82 2.22-1.702 1.11-0.855h-4.14l-1.07-2.84-0.45-1.197zm0 2.726l0.74 1.956 0.12 0.31h1.99l-1.64 1.256 0.11 0.322 0.59 1.82-1.64-1.113-0.27-0.179-0.27 0.179-1.7 1.156 0.54-1.878 0.09-0.305-0.25-0.201-1.31-1.057h2.07l0.11-0.312 0.72-1.954zm25.87 0.836l0.02 0.008 0.02-0.008h-0.04zm0.02 0.008l-0.83 0.246v1.594l0.83 0.061 0.54-0.039v-1.704l-0.54-0.158zm0 1.901l-0.02 0.002h0.04l-0.02-0.002zm-78.642-1.563c-0.296 1.253-0.587 2.366-0.951 3.649-0.349-1.167-0.694-2.331-1.006-3.52-0.287 0.046-0.601 0.082-0.908 0.107l0.004 0.11 0.271 0.115c0.093 0.038 0.125 0.119 0.127 0.264 0.01 0.591-0.091 2.651-0.199 3.91-0.021 0.266-0.037 0.309-0.203 0.443l-0.256 0.197 0.002 0.11c0.185-0.066 0.374-0.131 0.559-0.168 0.208-0.038 0.407-0.044 0.611-0.049l-0.002-0.111-0.248-0.096c-0.133-0.046-0.177-0.117-0.18-0.299-0.009-0.532 0.055-2.79 0.104-3.849l0.01-0.002c0.402 1.383 0.82 2.752 1.175 4.197l0.063-0.012c0.35-1.52 0.666-2.727 1.062-4.226l0.008 0.002c0.021 0.424 0.239 3.676 0.239 4.097 0.001 0.076-0.046 0.183-0.202 0.24l-0.216 0.092v0.115c0.206 0.018 0.412 0.032 0.625 0.083 0.215 0.051 0.428 0.134 0.634 0.216v-0.115l-0.242-0.185c-0.107-0.085-0.165-0.157-0.185-0.424-0.043-0.549-0.246-3.672-0.246-4.254 0-0.153 0.035-0.194 0.218-0.285l0.199-0.098v-0.115c-0.303-0.039-0.6-0.085-0.867-0.139zm79.952 0.049v1.416l0.9-0.065v-1.085l-0.9-0.266zm-2.77 0.045l-0.89 0.264v1.031l0.89 0.066v-1.361zm-67.99 0.039c-0.317 0.101-0.629 0.194-0.91 0.26-0.302 1.538-0.61 3.153-0.999 4.539-0.345-1.403-0.668-2.721-0.97-4.135-0.285 0.051-0.597 0.087-0.901 0.111v0.129l0.272 0.139c0.09 0.048 0.123 0.146 0.123 0.316 0.008 0.703-0.163 2.788-0.285 4.201-0.026 0.3-0.045 0.344-0.217 0.463l-0.26 0.172v0.122c0.192-0.032 0.383-0.067 0.574-0.067 0.211 0 0.418 0.035 0.625 0.067v-0.122l-0.252-0.164c-0.136-0.079-0.181-0.171-0.181-0.379-0.005-0.608 0.129-2.929 0.181-4.183l0.01-0.002c0.396 1.644 0.778 3.129 1.127 4.85h0.063c0.375-1.658 0.724-3.355 1.131-5.216l0.007-0.002c0.026 0.461 0.307 4.183 0.307 4.635 0 0.083-0.049 0.208-0.217 0.307l-0.24 0.154v0.122c0.225-0.032 0.453-0.067 0.686-0.067 0.232 0 0.463 0.035 0.689 0.067v-0.122l-0.266-0.135c-0.117-0.063-0.175-0.127-0.201-0.408-0.046-0.579-0.328-4.248-0.332-4.896-0.002-0.17 0.036-0.233 0.231-0.424l0.209-0.203-0.004-0.129zm-7.602 0.17l-0.006 0.115 0.256 0.35c0.058 0.084 0.059 0.145 0.043 0.937-0.012 0.507-0.018 1.023-0.031 1.529-0.016 0.504-0.036 1.014-0.053 1.518-0.019 0.647-0.033 0.676-0.111 0.719l-0.244 0.113-0.004 0.117c0.14 0.027 0.32 0.073 0.476 0.139 0.135 0.061 0.315 0.171 0.459 0.268l0.006-0.116-0.236-0.324c-0.075-0.11-0.084-0.147-0.069-0.797 0.01-0.506 0.018-1.02 0.034-1.525 0.012-0.506 0.035-1.016 0.052-1.52 0.03-0.788 0.032-0.846 0.092-0.881l0.27-0.121 0.002-0.117c-0.158-0.034-0.31-0.067-0.465-0.133-0.174-0.075-0.323-0.173-0.471-0.271zm8.481 0.209v0.129l0.375 0.326c0.083 0.081 0.09 0.144 0.097 1.019 0.005 0.559 0.014 1.125 0.014 1.682-0.001 0.559-0.012 1.124-0.016 1.68-0.003 0.714-0.02 0.749-0.129 0.814l-0.343 0.182v0.126c0.2 0 0.458 0.01 0.679 0.05 0.196 0.03 0.455 0.11 0.662 0.19v-0.13l-0.341-0.303c-0.112-0.103-0.124-0.141-0.129-0.859-0.005-0.559-0.012-1.127-0.012-1.684 0-0.558 0.007-1.121 0.014-1.677 0.009-0.874 0.014-0.936 0.097-0.987l0.375-0.195v-0.127c-0.223-0.004-0.441-0.006-0.662-0.043-0.248-0.044-0.466-0.119-0.681-0.193zm71.551 0.031v0.799l0.63-0.043v-0.57l-0.63-0.186zm-6.11 0.045l-0.63 0.184v0.515l0.63 0.045v-0.744zm-79.746 0.182c-0.105-0.01-0.215-0.006-0.33 0.015-1.013 0.188-1.635 1.364-1.635 2.873 0 1.229 0.51 2.385 1.553 2.192 0.998-0.186 1.592-1.486 1.592-2.985 0-1.208-0.449-2.025-1.18-2.095zm16.142 0.023v0.129c0.162 0.152 0.318 0.31 0.473 0.498l0.063 0.213-0.002 1.879c-0.001 1.216-0.039 2.615-0.059 2.908-0.006 0.09-0.05 0.15-0.121 0.18l-0.381 0.14v0.13c0.215 0.04 0.425 0.08 0.637 0.15 0.219 0.08 0.447 0.2 0.668 0.31v-0.13l-0.334-0.32c-0.147-0.13-0.18-0.22-0.195-0.38-0.016-0.183-0.021-2.059-0.02-3.31l0.002-1.061 0.008 0.002 1.019 2.943c0.34 0.994 0.51 1.201 0.826 2.216l0.12 0.04c-0.01-1.089 0.17-1.399 0.17-1.787 0-0.552 0.04-2.215 0.06-2.978 0-0.168 0.01-0.632 0.12-0.7l0.32-0.195v-0.184c-0.22 0.014-0.44 0.026-0.66 0.002-0.2-0.022-0.371 0.162-0.579 0.053v0.129l0.299 0.109c0.14 0.132 0.22 0.519 0.23 0.789 0.01 0.471 0.02 0.936 0.02 1.391l-0.01 2.297-0.01 0.016-1.415-4.104c-0.121-0.346-0.227-0.686-0.321-1.051-0.151-0.016-0.298-0.029-0.445-0.082-0.16-0.056-0.321-0.148-0.483-0.242zm-20.283 0.186c-0.387 0.033-0.708 0.116-0.869 0.13-0.187 0.016-0.371 0.003-0.578-0.013v0.107l0.404 0.19c0.108 0.047 0.124 0.1 0.127 0.841l-0.031 2.559h-0.002c0 0.583-0.018 0.612-0.158 0.658l-0.387 0.139v0.107c0.18-0.005 0.35-0.004 0.526 0.022 0.257 0.039 0.509 0.134 1.085 0.222 0.977 0.148 1.543-0.88 1.543-2.187 0-1.644-0.941-2.832-1.66-2.775zm3.756 0.068c0.829-0.155 1.059 1.01 1.059 2.273 0 1.032-0.272 2.129-1.033 2.27-0.733 0.137-1.1-0.825-1.1-2.389 0-1.077 0.377-2.026 1.074-2.154zm21.031 0.158c-0.34 1.787-0.67 3.706-1.05 5.805-0.11 0.13-0.24 0.25-0.35 0.35v0.13c0.17-0.04 0.34-0.09 0.51-0.1 0.19-0.01 0.37 0.03 0.55 0.06v-0.14l-0.4-0.3c0.05-0.57 0.08-1.245 0.21-1.75 0.2-0.01 0.39-0.02 0.59-0.02s0.4 0.01 0.6 0.02c0.07 0.296 0.22 1.23 0.28 1.64-0.15 0.12-0.35 0.25-0.47 0.31v0.14c0.21-0.04 0.42-0.08 0.64-0.08 0.25 0 0.49 0.04 0.74 0.08v-0.14l-0.39-0.29c-0.4-2.007-0.98-3.652-1.35-5.715h-0.11zm-24.955 0.049c0.732-0.059 1.352 0.891 1.352 2.408 0 1.759-0.586 2.102-1.295 1.994-0.113-0.017-0.252-0.055-0.389-0.09-0.029-0.491-0.015-0.259-0.031-0.847l0.02-2.328c-0.003-0.345 0.009-0.692 0.021-1.049 0.102-0.039 0.207-0.081 0.322-0.088zm24.895 1.389l0.66 2.209h-1.06l0.4-2.209zm-17.559 4.197c-0.15 0.07-0.302 0.14-0.461 0.17-0.19 0.04-0.384 0.04-0.576 0.04v0.13c0.223 0.09 0.379 0.16 0.379 0.27 0 0.1-0.018 0.21-0.049 0.39-0.176 1.1-0.458 2.52-0.767 3.98-0.24-0.96-0.89-3.8-0.893-4 0-0.1 0.049-0.16 0.281-0.33l0.176-0.13v-0.14c-0.213 0.09-0.427 0.17-0.642 0.21-0.234 0.05-0.473 0.06-0.708 0.07l0.004 0.13 0.141 0.07c0.164 0.07 0.198 0.09 0.277 0.43 0.321 1.31 0.842 3.61 1.172 5.28l0.119-0.02c0.465-2.48 0.86-4.44 1.178-5.81 0.082-0.34 0.153-0.46 0.369-0.61v-0.13zm1.457 0.33c-0.322 0.02-0.585 0.38-0.588 1.19-0.007 1.69 1.297 2.3 1.293 3.58-0.003 0.83-0.309 0.99-0.642 0.8-0.105-0.06-0.304-0.22-0.426-0.44l-0.137-1.24-0.058-0.03-0.076 1.43c0.235 0.33 0.413 0.48 0.615 0.59 0.824 0.45 1.096-0.29 1.099-1.08 0.008-1.85-1.301-2.22-1.295-3.63 0.004-0.6 0.249-0.9 0.51-0.76 0.147 0.08 0.282 0.21 0.424 0.41l0.16 1.09 0.049 0.02 0.029-1.22c-0.177-0.26-0.444-0.53-0.621-0.63-0.113-0.06-0.228-0.09-0.336-0.08zm-5.252 0.27c-0.222 0.06-0.441 0.12-0.656 0.15-0.197 0.02-0.401 0.01-0.601 0v0.12l0.322 0.21c0.142 0.09 0.182 0.15 0.189 0.4 0.016 0.44 0.022 0.87 0.022 1.3l0.002 2.15-0.008 0.02-1.387-3.22c-0.116-0.26-0.221-0.54-0.312-0.83-0.147 0.05-0.288 0.1-0.432 0.12-0.155 0.02-0.312 0-0.467-0.02v0.13c0.157 0.07 0.307 0.15 0.457 0.25l0.063 0.17 0.004 1.76c0 1.14-0.032 2.47-0.051 2.76-0.005 0.08-0.047 0.17-0.113 0.22l-0.37 0.3v0.13c0.209-0.06 0.411-0.12 0.618-0.15 0.211-0.03 0.429-0.02 0.644-0.01v-0.12l-0.322-0.15c-0.142-0.06-0.176-0.13-0.192-0.27-0.013-0.17-0.026-1.92-0.029-3.09v-1h0.01l0.994 2.3c0.334 0.78 0.67 1.55 0.981 2.36l0.113-0.02c-0.012-1.01-0.011-2.03-0.014-2.4 0-0.51 0.038-2.09 0.051-2.81 0.004-0.16 0.052-0.26 0.16-0.34l0.324-0.25v-0.01-0.16zm14.682 0.38v0.12l0.412 0.3c0.094 0.08 0.1 0.14 0.108 0.95 0.006 0.52 0.011 1.13 0.011 1.58 0 0.46-0.012 0.92-0.015 1.38-0.004 0.59-0.02 0.61-0.145 0.68l-0.387 0.2h-0.002v0.1c0.228-0.02 0.517-0.05 0.768-0.05 0.219 0 0.506 0.03 0.742 0.05v-0.1l-0.383-0.2c-0.125-0.07-0.141-0.09-0.146-0.68-0.005-0.46-0.016-0.92-0.016-1.38 0-0.45 0.008-1 0.014-1.52 0.009-0.81 0.013-0.87 0.107-0.92l0.412-0.18v-0.12c-0.245 0-0.487 0-0.73-0.04-0.274-0.03-0.515-0.1-0.75-0.17zm-1.014 0.09c-0.435 0.1-0.863 0.19-1.295 0.25-0.434 0.06-0.86 0.08-1.297 0.11v1.42l0.073-0.01 0.15-0.69c0.071-0.3 0.119-0.34 0.865-0.44v3.49c0 0.39-0.009 0.58-0.039 0.69-0.024 0.1-0.132 0.19-0.511 0.38v0.1c0.234-0.03 0.451-0.06 0.759-0.06 0.31 0 0.527 0.03 0.762 0.06v-0.1c-0.379-0.19-0.484-0.28-0.514-0.38-0.029-0.11-0.039-0.3-0.039-0.69v-3.55c0.745-0.1 0.795-0.08 0.864 0.2l0.15 0.65 0.072-0.01v-1.42zm4.908 0.47c-1.015 0-1.636 1.06-1.636 2.57 0 1.23 0.51 2.48 1.553 2.48 1.001 0 1.591-1.19 1.591-2.69 0-1.38-0.59-2.36-1.508-2.36zm-0.058 0.25c0.826 0 1.056 1.2 1.056 2.47 0 1.03-0.27 2.08-1.031 2.08-0.732 0-1.099-1.03-1.099-2.59 0-1.08 0.377-1.96 1.074-1.96zm-7.699 5.66v0.1l0.281 0.17c0.094 0.06 0.127 0.15 0.127 0.29 0.005 0.6 0.033 2.64-0.072 3.94-0.024 0.27-0.042 0.31-0.209 0.44l-0.252 0.19v0.12c0.187-0.06 0.374-0.12 0.562-0.15 0.206-0.03 0.405-0.02 0.612-0.02l-0.002-0.11-0.25-0.12c-0.132-0.05-0.178-0.13-0.18-0.32-0.01-0.55-0.08-2.79-0.018-3.84h0.01c0.429 1.57 0.842 3.02 1.168 4.43h0.063c0.377-1.46 0.754-2.83 1.189-4.34h0.01c0.023 0.39 0.242 3.52 0.24 3.91 0 0.07-0.049 0.17-0.217 0.24l-0.24 0.11v0.11c0.224-0.01 0.451-0.02 0.684 0.01 0.232 0.02 0.462 0.07 0.689 0.12v-0.1l-0.266-0.15c-0.118-0.06-0.176-0.12-0.199-0.37-0.045-0.5-0.248-3.55-0.248-4.1 0-0.14 0.041-0.19 0.244-0.32l0.217-0.14v-0.1c-0.332 0.03-0.658 0.05-0.947 0.06-0.329 1.25-0.671 2.51-1.065 3.73-0.344-1.24-0.686-2.48-0.994-3.73-0.297-0.01-0.621-0.03-0.937-0.06zm9.725 0.17c-0.36 1.52-0.89 3.46-1.323 5.19-0.118 0.11-0.258 0.2-0.377 0.28v0.11c0.183-0.03 0.368-0.06 0.55-0.06 0.2 0 0.39 0.03 0.58 0.06v-0.11l-0.42-0.26c0.07-0.47 0.15-0.97 0.28-1.4 0.21-0.01 0.41-0.02 0.62-0.02s0.42 0.01 0.63 0.02c0.07 0.25 0.22 1.04 0.29 1.4-0.15 0.1-0.36 0.21-0.49 0.26v0.11c0.22-0.03 0.44-0.06 0.66-0.06 0.26 0 0.52 0.03 0.78 0.06v-0.11l-0.41-0.24c-0.42-1.71-0.87-3.47-1.26-5.23h-0.11zm-4.917 0.01l-0.008 0.11 0.42 0.27c0.11 0.07 0.125 0.13 0.123 0.88l-0.005 2.94c0 0.62-0.022 0.65-0.161 0.7l-0.386 0.17v0.11c0.362 0.01 0.837 0.03 1.277 0.08 0.279 0.03 1.05 0.14 1.318 0.21v-0.62c0-0.23 0.022-0.47 0.032-0.7l-0.071-0.01c-0.094 0.46-0.153 0.71-0.213 0.83-0.051 0.09-0.128 0.09-0.664 0.03-0.223-0.02-0.456-0.07-0.691-0.1-0.01-0.34-0.023-0.72-0.023-1.08l0.001-1.1 0.52 0.05c0.605 0.07 0.659 0.09 0.703 0.27l0.129 0.63h0.074c-0.006-0.33-0.013-0.64-0.013-0.97 0-0.3 0.006-0.61 0.015-0.91l-0.074-0.01-0.127 0.56c-0.045 0.17-0.102 0.18-0.707 0.12l-0.52-0.06 0.002-0.99c0.003-0.35 0.015-0.64 0.028-0.92 0.183 0 0.412 0.02 0.703 0.05 0.583 0.07 0.625 0.07 0.674 0.3l0.127 0.62 0.072 0.01c-0.006-0.19-0.01-0.46-0.01-0.58s0.008-0.42 0.014-0.62c-0.441-0.01-0.911-0.03-1.387-0.08-0.38-0.04-0.757-0.11-1.172-0.19zm-11.39 0.06l-0.002 0.11 0.133 0.11c0.15 0.11 0.185 0.14 0.257 0.45 0.284 1.21 0.758 3.09 1.035 4.32l0.104 0.02c0.445-1.56 0.863-2.91 1.176-3.95 0.08-0.25 0.148-0.33 0.353-0.38l0.002-0.11c-0.142 0.01-0.285 0.01-0.431-0.02-0.183-0.03-0.362-0.09-0.543-0.16v0.11c0.206 0.15 0.353 0.26 0.353 0.35-0.002 0.09-0.022 0.18-0.053 0.31-0.179 0.86-0.479 1.89-0.771 2.8-0.202-0.73-0.784-3.21-0.781-3.38 0.001-0.09 0.044-0.12 0.265-0.18l0.166-0.05v-0.11c-0.198-0.01-0.402-0.01-0.601-0.05-0.221-0.04-0.445-0.11-0.662-0.19zm-6.346 0.21v0.1l0.422 0.22c0.109 0.05 0.125 0.1 0.125 0.82v3.26c0 0.58-0.002 0.53-0.137 0.59l-0.367 0.16-0.002 0.12c0.329 0 0.648 0.03 0.988-0.02 0.301-0.05 0.985-0.19 1.492-0.22l0.053-1.19-0.066 0.01-0.164 0.52c-0.098 0.3-0.135 0.36-0.397 0.4l-0.984 0.2v-3.77c0-0.78 0.016-0.83 0.127-0.88l0.457-0.22v-0.1c-0.307 0.03-0.553 0.06-0.807 0.06-0.253 0-0.5-0.03-0.74-0.06zm3.203 0v0.1l0.418 0.22c0.109 0.05 0.129 0.1 0.129 0.82l0.025 2.75c0.002 0.6-0.017 0.64-0.154 0.73l-0.375 0.27v0.1c0.339-0.08 0.672-0.17 1.002-0.23 0.293-0.05 0.948-0.13 1.422-0.18l0.035-1.26-0.062 0.01-0.149 0.56c-0.085 0.32-0.119 0.39-0.363 0.43l-0.947 0.16-0.004-0.48-0.016-2.8c0-0.78 0.016-0.83 0.127-0.88l0.455-0.22v-0.1c-0.304 0.03-0.553 0.06-0.805 0.06-0.255 0-0.498-0.03-0.738-0.06zm-5.713 0.05v0.1l0.418 0.22c0.096 0.05 0.101 0.1 0.111 0.82 0.005 0.45 0.014 1.16 0.014 1.61 0 0.46-0.009 1.25-0.014 1.71-0.003 0.59-0.021 0.62-0.146 0.71l-0.383 0.26v0.1c0.225-0.06 0.515-0.14 0.764-0.18 0.217-0.04 0.507-0.06 0.742-0.07v-0.1l-0.385-0.14c-0.124-0.04-0.14-0.07-0.146-0.65-0.004-0.46-0.014-1.18-0.014-1.64 0-0.45 0.01-1.16 0.014-1.61 0.012-0.72 0.017-0.77 0.113-0.82l0.418-0.22v-0.1c-0.251 0.03-0.493 0.06-0.742 0.06-0.279 0-0.524-0.03-0.764-0.06zm25.093 0.9l0.54 2.23h-1.11l0.57-2.23zm-17.386 25.03c-0.332 0-0.603 0.7-0.603 1.55 0 0.86 0.271 1.55 0.603 1.55 0.334 0 0.602-0.69 0.602-1.55 0-0.85-0.268-1.55-0.602-1.55zm30.396 0.91c-0.16 0-0.32 0.03-0.47 0.07-1.23 0.33-1.35 1.01-1.31 1.39v0.02l-0.01 0.01-0.09 0.22-0.01 0.01c-0.3 0.27-0.61 0.58-0.65 0.69h-0.05 0.02c0.01 0.01 0.01 0.02 0.01 0.02l0.02-0.02 1.27-0.2v-0.01l0.01 0.01c0.44 0.06 0.43 0.48 0.43 0.76v0.04c0 1.38 0.14 1.59 1.05 2.94l0.12 0.19c0.14 0.21 0.34 0.39 0.6 0.53 0.06 0.03 0.06 0.11 0.06 0.21 0 0.04 0.01 0.11 0.02 0.13l0.05 0.02-0.03 0.05-0.64 1.14-0.01 0.02h-0.02l-1.33 0.42-0.02-0.1 0.01 0.1c-0.03 0.01-0.07 0.03-0.09 0.06s-0.02 0.07-0.02 0.11c0.02 0.09 0.18 0.28 0.25 0.26 2.6-0.55 4.35-0.71 5.2-0.47 0.07 0.02 0.15-0.02 0.18-0.1 0.01-0.08-0.03-0.16-0.11-0.18-0.5-0.14-1.05-0.19-1.74-0.17h-0.03l-0.01-0.02-0.1-0.18v-0.02-0.02l0.28-0.82 0.01-0.04h0.03l0.55 0.02c0.91 0.03 1.62 0.06 2.13-0.28l0.04-0.02 0.03 0.03c0.78 1.08 4.63 2.68 5.19 2.71 0.09 0 0.15-0.02 0.19-0.08 0.12-0.18-0.11-0.84-0.22-1.16l-0.01-0.04 0.04-0.02 0.73-0.33c0.05-0.04 0.07-0.11 0.05-0.17s-0.08-0.1-0.15-0.09c-0.02 0-2.23 0.13-3.54-0.91-0.14-0.12-0.28-0.23-0.39-0.33-0.23-0.19-0.42-0.35-0.55-0.4h-0.01v-0.01c-0.16-0.1-0.58-0.65-1.23-1.6-1.88-2.77-3.75-2.78-4.28-2.72l-0.04 0.01-0.01-0.04c-0.43-1.31-0.92-1.63-1.4-1.64zm19.2 0c-0.16 0-0.31 0.03-0.46 0.07-1.24 0.33-1.37 1.01-1.33 1.39v0.02 0.01l-0.09 0.22-0.01 0.01c-0.3 0.27-0.61 0.58-0.65 0.69h-0.05 0.02c0.01 0.01 0.01 0.02 0.01 0.02l0.02-0.02 1.26-0.2 0.01-0.01 0.01 0.01c0.44 0.06 0.43 0.48 0.43 0.76v0.04c0 1.38 0.14 1.59 1.04 2.94l0.13 0.19c0.14 0.21 0.34 0.39 0.6 0.53 0.06 0.03 0.06 0.11 0.06 0.21 0 0.04 0.01 0.11 0.02 0.13l0.04 0.02-0.02 0.05-0.64 1.14-0.01 0.02h-0.02l-1.33 0.42-0.02-0.1 0.01 0.1c-0.04 0.01-0.07 0.03-0.09 0.06s-0.03 0.07-0.02 0.11c0.02 0.09 0.18 0.28 0.25 0.26 2.6-0.55 4.35-0.71 5.2-0.47 0.07 0.02 0.15-0.02 0.17-0.1s-0.02-0.16-0.1-0.18c-0.5-0.14-1.05-0.19-1.74-0.17h-0.03l-0.02-0.02-0.09-0.18-0.01-0.02 0.01-0.02 0.28-0.82 0.01-0.04h0.03l0.55 0.02c0.9 0.03 1.62 0.06 2.13-0.28l0.04-0.02 0.03 0.03c0.78 1.08 4.63 2.68 5.19 2.71 0.09 0 0.15-0.02 0.19-0.08 0.13-0.18-0.11-0.84-0.22-1.16l-0.01-0.04 0.03-0.02 0.73-0.33h0.01c0.05-0.04 0.07-0.11 0.05-0.17s-0.09-0.1-0.15-0.09c-0.02 0-2.24 0.13-3.54-0.91-0.15-0.12-0.28-0.23-0.39-0.33-0.24-0.19-0.42-0.35-0.55-0.4h-0.01v-0.01c-0.16-0.1-0.59-0.65-1.23-1.6-1.89-2.77-3.75-2.78-4.28-2.72l-0.04 0.01-0.01-0.04c-0.43-1.31-0.93-1.63-1.4-1.64zm-58.977 0.36c-0.043-0.01-0.085-0.01-0.125 0-0.32 0.09-0.388 0.83-0.156 1.65 0.236 0.83 0.685 1.42 1.006 1.33 0.318-0.09 0.388-0.83 0.154-1.66-0.205-0.71-0.575-1.26-0.879-1.32zm18.948 0c-0.303 0.06-0.674 0.61-0.879 1.32-0.234 0.83-0.165 1.57 0.156 1.66 0.319 0.09 0.77-0.5 1.004-1.33 0.233-0.82 0.165-1.56-0.156-1.65-0.04-0.01-0.082-0.01-0.125 0zm22.799 2.27c0.73-0.07 1.66 0.25 2.1 1.12 0.09 0.18 0.19 0.45 0.08 0.67-0.13 0.23-0.43 0.27-0.72 0.31-0.1 0.02-0.21 0.03-0.31 0.06-0.34 0.08-1.35 0.28-1.64 0.18-0.23-0.08-0.4-0.38-0.64-0.8l-0.1-0.17c-0.1-0.19-0.1-0.41 0.01-0.62 0.2-0.38 0.72-0.7 1.22-0.75zm19.2 0c0.73-0.07 1.66 0.25 2.1 1.12 0.09 0.18 0.19 0.45 0.07 0.67-0.12 0.23-0.42 0.27-0.71 0.31-0.11 0.02-0.22 0.03-0.31 0.06-0.34 0.08-1.35 0.28-1.64 0.18-0.23-0.08-0.4-0.38-0.64-0.8l-0.1-0.17c-0.11-0.19-0.1-0.41 0.01-0.62 0.19-0.38 0.72-0.7 1.22-0.75zm-16.77 2.34c0.49 0.04 0.71 0.48 0.77 0.63 0.04 0.09 0.03 0.19-0.03 0.28-0.15 0.21-0.56 0.38-0.96 0.38-0.51 0-0.82-0.41-0.94-0.57-0.02-0.01-0.03-0.04-0.04-0.04 0.01 0.01 0.03 0.02 0.05 0.01s0.03-0.03 0.03-0.04h-0.1c0-0.32 0.34-0.54 0.99-0.64 0.08-0.01 0.16-0.02 0.23-0.01zm19.19 0c0.5 0.04 0.72 0.48 0.78 0.63 0.04 0.09 0.02 0.19-0.04 0.28-0.14 0.21-0.55 0.38-0.95 0.38-0.52 0-0.83-0.41-0.94-0.57-0.02-0.01-0.03-0.04-0.04-0.04 0.01 0.01 0.03 0.02 0.05 0.01s0.02-0.03 0.02-0.04h-0.09c0-0.32 0.34-0.54 0.99-0.64 0.08-0.01 0.15-0.02 0.22-0.01zm-21.84 1.98c0.15 0.03 0.31 0.06 0.47 0.08 0.07 0.01 0.11 0.07 0.14 0.13 0.03 0.03 0.05 0.08 0.07 0.09h0.06l-0.01 0.06-0.28 0.89v0.03h-0.04l-0.42 0.03c-0.28 0.01-0.52 0.02-0.83 0.06l-0.06 0.01 0.01-0.06 0.03-0.27v-0.01h0.01l0.41-0.87 0.02-0.04 0.04 0.02c0.02 0 0.11-0.05 0.15-0.07 0.09-0.05 0.17-0.09 0.23-0.08zm19.2 0c0.15 0.03 0.31 0.06 0.47 0.08 0.07 0.01 0.11 0.07 0.14 0.13 0.03 0.03 0.05 0.08 0.07 0.09h0.06l-0.02 0.06-0.27 0.89-0.01 0.03h-0.03l-0.42 0.03c-0.28 0.01-0.52 0.02-0.83 0.06l-0.06 0.01 0.01-0.06 0.03-0.27v-0.01l0.42-0.87 0.02-0.04 0.04 0.02c0.02 0 0.1-0.05 0.15-0.07 0.09-0.05 0.17-0.09 0.23-0.08zm-14.02 10.79c-0.96 0-1.73 0.76-1.73 1.7 0 0.76 0.51 1.39 1.21 1.61 0.44-0.75 1.24-1.57 2.14-2.22-0.25-0.64-0.88-1.09-1.62-1.09zm8.82 0c-0.74 0-1.36 0.45-1.62 1.09 0.9 0.65 1.71 1.47 2.14 2.22 0.71-0.22 1.22-0.85 1.22-1.61 0-0.94-0.78-1.7-1.74-1.7zm-32.718 17.26c-0.961 0-1.738 0.76-1.738 1.69 0 0.76 0.512 1.4 1.215 1.61 0.435-0.75 1.238-1.56 2.14-2.22-0.252-0.63-0.879-1.08-1.617-1.08zm8.818 0c-0.74 0-1.37 0.45-1.62 1.08 0.9 0.66 1.7 1.47 2.14 2.22 0.7-0.21 1.21-0.85 1.21-1.61 0-0.93-0.77-1.69-1.73-1.69zm39.36 0c-0.96 0-1.74 0.76-1.74 1.69 0 0.76 0.51 1.4 1.21 1.61 0.44-0.75 1.24-1.56 2.14-2.22-0.25-0.63-0.87-1.08-1.61-1.08zm8.81 0c-0.74 0-1.37 0.45-1.62 1.08 0.91 0.66 1.71 1.47 2.15 2.22 0.7-0.21 1.21-0.85 1.21-1.61 0-0.93-0.78-1.69-1.74-1.69zm-55.564 3.28s1.291 0.37 1.364 1.25c0.09 0.95-0.107 2.99 0.19 3.29 0.23 0.23 0.83 0.23 1.14 0.22-0.53-0.07-0.79-0.39-0.77-0.89 0.02-0.44 0-2.39 0-2.83 0-0.45-0.07-1.04-0.52-1.04h-1.404zm2.694 4.76h0.05-0.05zm0.05 0h0.22l0.2-0.02h-0.03c-0.14 0.01-0.28 0.03-0.39 0.02zm0.39-0.02h0.03c-0.06-0.01-0.1 0-0.17-0.01l0.14 0.01zm0.03 0h0.04l0.13-0.01c-0.06 0.01-0.11 0-0.17 0.01zm0.04 0h-0.04l0.21 0.02h0.22c-0.11 0.01-0.25-0.01-0.39-0.02zm0.39 0.02h0.05-0.05zm0.05 0c0.31 0.01 0.91 0.01 1.14-0.22 0.29-0.3 0.1-2.34 0.18-3.29 0.08-0.88 1.37-1.25 1.37-1.25h-1.4c-0.45 0-0.52 0.59-0.52 1.04 0 0.44-0.02 2.39 0 2.83 0.02 0.5-0.24 0.83-0.77 0.89zm44.53-4.76s1.29 0.37 1.37 1.25c0.08 0.95-0.11 2.99 0.18 3.29 0.23 0.23 0.84 0.23 1.15 0.22-0.54-0.06-0.8-0.39-0.77-0.89 0.01-0.44 0-2.39 0-2.83 0-0.45-0.08-1.04-0.52-1.04h-1.41zm2.7 4.76h0.04-0.04zm0.04 0h0.22l0.21-0.02h-0.04c-0.13 0.01-0.27 0.03-0.39 0.02zm0.39-0.02h0.04c-0.06-0.01-0.11 0-0.17-0.01l0.13 0.01zm0.04 0h0.04l0.13-0.01c-0.06 0.01-0.11 0-0.17 0.01zm0.04 0h-0.04l0.21 0.02h0.21c-0.11 0.01-0.25-0.01-0.38-0.02zm0.38 0.02h0.05-0.05zm0.05 0c0.31 0.01 0.91 0.01 1.14-0.22 0.3-0.3 0.1-2.34 0.19-3.29 0.08-0.88 1.37-1.25 1.37-1.25h-1.41c-0.44 0-0.51 0.59-0.51 1.04 0 0.44-0.02 2.39 0 2.83 0.02 0.5-0.24 0.82-0.78 0.89zm-29.34 11.77c-0.96 0-1.73 0.76-1.73 1.7 0 0.76 0.51 1.39 1.21 1.61 0.44-0.75 1.24-1.57 2.14-2.22-0.25-0.64-0.88-1.09-1.62-1.09zm8.82 0c-0.74 0-1.36 0.45-1.62 1.09 0.9 0.65 1.71 1.47 2.14 2.22 0.71-0.22 1.22-0.85 1.22-1.61 0-0.94-0.78-1.7-1.74-1.7zm-7.39 3.29s1.29 0.36 1.37 1.25c0.08 0.94-0.11 2.99 0.18 3.28 0.24 0.23 0.83 0.23 1.14 0.22-0.53-0.06-0.79-0.39-0.77-0.88 0.02-0.44 0-2.39 0-2.83 0-0.45-0.07-1.04-0.51-1.04h-1.41zm2.69 4.75c0.02 0.01 0.04 0 0.06 0-0.02 0.01-0.04 0-0.06 0zm0.06 0h0.21l0.21-0.01h-0.04c-0.13 0.01-0.27 0.02-0.38 0.01zm0.38-0.01c0.01 0 0.02 0 0.04-0.01-0.06 0-0.11 0.01-0.17 0l0.13 0.01zm0.04-0.01c0.01 0.01 0.02 0.01 0.04 0.01l0.13-0.01c-0.07 0.01-0.11 0-0.17 0zm0.04 0.01h-0.04l0.21 0.01h0.21c-0.11 0.01-0.25 0-0.38-0.01zm0.38 0.01c0.01 0 0.04 0.01 0.05 0-0.02 0-0.04 0.01-0.05 0zm0.05 0c0.31 0.01 0.91 0.01 1.14-0.22 0.3-0.29 0.1-2.34 0.19-3.28 0.07-0.89 1.37-1.25 1.37-1.25h-1.41c-0.44 0-0.52 0.59-0.52 1.04 0 0.44-0.02 2.39 0 2.83 0.02 0.49-0.23 0.82-0.77 0.88z" transform="matrix(.8 0 0 -.8 61.928 496.26)"/><path d="m132.82 63.713l-1.41 3.117 1.41 3.117 1.4-3.117-1.4-3.117zm6.83 0l-1.4 3.117 1.4 3.117 1.41-3.117-1.41-3.117zm6.84 0l-1.41 3.117 1.41 3.117 1.4-3.117-1.4-3.117zm-21.21 61.457c-0.64 0-1.27 0.23-1.76 0.64l-0.09 0.07 0.09 0.08c0.15 0.13 0.28 0.28 0.38 0.44 0.07 0.11 0.14 0.23 0.19 0.36l0.05 0.13 0.1-0.09c0.34-0.3 0.77-0.46 1.21-0.46 0.66 0 1.26 0.35 1.59 0.93l0.04 0.07 0.07-0.02 0.05-0.02 0.01-0.04c0.09-0.26 0.21-0.49 0.37-0.7h0.01l0.04-0.06-0.03-0.05c-0.51-0.8-1.38-1.28-2.32-1.28zm0.17 1.66c-0.73 0-1.33 0.6-1.33 1.33 0 0.45 0.24 0.87 0.63 1.12l0.04 0.02 0.04-0.01c0.2-0.07 0.39-0.11 0.59-0.11 0.21 0 0.42 0.04 0.62 0.11l0.04 0.02 0.04-0.02c0.41-0.24 0.65-0.67 0.65-1.13 0-0.73-0.59-1.33-1.32-1.33zm-3.33 0.34l-0.13 0.03c-0.96 0.17-1.76 0.84-2.09 1.75-0.25 0.69-0.22 1.44 0.09 2.1 0.03 0.06 0.06 0.13 0.11 0.21l0.05 0.09 0.09-0.07c0.24-0.19 0.5-0.32 0.79-0.4h0.02l0.12-0.03c0.01 0-0.04-0.11-0.04-0.11-0.17-0.4-0.19-0.86-0.06-1.28 0.15-0.46 0.47-0.84 0.91-1.06h0.01s0-0.01 0.01-0.01c0.09-0.03 0.19-0.04 0.29-0.05 0.16-0.01 0.35-0.04 0.35-0.2 0-0.14-0.14-0.3-0.29-0.48-0.1-0.1-0.26-0.3-0.25-0.36l0.02-0.13zm6.92 0.58l-0.04 0.05c-0.13 0.15-0.28 0.28-0.44 0.39l-0.16 0.11 0.19 0.06c0.56 0.18 1 0.62 1.18 1.17 0.15 0.46 0.12 0.96-0.11 1.39-0.02 0.05-0.05 0.09-0.07 0.13l-0.08 0.12 0.14 0.03c0.14 0.02 0.27 0.05 0.38 0.1 0.06 0.02 0.11 0.04 0.15 0.05 0.1 0.03 0.15 0.05 0.26 0.13l0.09 0.07 0.05-0.11c0.23-0.46 0.46-0.95 0.35-1.54-0.12-0.73-0.53-1.35-1.13-1.78-0.21-0.15-0.45-0.27-0.7-0.35l-0.06-0.02zm-6.34 0.96c-0.17 0.01-0.34 0.06-0.5 0.14-0.31 0.16-0.55 0.43-0.66 0.77-0.11 0.33-0.08 0.69 0.08 1.01 0.16 0.31 0.44 0.55 0.77 0.66 0.34 0.1 0.7 0.08 1.01-0.08 0.03-0.02 0.04-0.02 0.04-0.02 0.05 0 0.08-0.02 0.13-0.06l0.03-0.03v-0.04c0-0.01 0.01-0.05 0.02-0.07 0.01-0.07 0.01-0.09 0.01-0.1 0-0.33 0.15-0.67 0.45-1.05l0.03-0.04-0.01-0.04c-0.03-0.13-0.07-0.24-0.12-0.34-0.16-0.31-0.43-0.55-0.77-0.65-0.17-0.06-0.34-0.08-0.51-0.06zm5.45 0.06c-0.17-0.01-0.35 0.01-0.52 0.06-0.43 0.14-0.76 0.49-0.87 0.94l-0.01 0.04 0.03 0.04c0.21 0.28 0.4 0.53 0.4 0.92 0 0.03 0.01 0.06 0.06 0.2 0.02 0.05 0.05 0.13 0.05 0.15v0.04l0.03 0.03c0.02 0.01 0.02 0.02 0.02 0.02l0.01 0.02c0.01 0.01 0.05 0.02 0.05 0.02s0.01 0.01 0.04 0.02c0.31 0.16 0.67 0.19 1.01 0.08s0.61-0.34 0.77-0.65c0.16-0.32 0.19-0.68 0.08-1.02-0.17-0.52-0.63-0.86-1.15-0.91zm-4.59 3.04c-0.35 0.06-0.66 0.24-0.87 0.53-0.2 0.28-0.29 0.63-0.23 0.98 0.05 0.35 0.24 0.66 0.53 0.87 0.28 0.21 0.63 0.29 0.98 0.23 0.35-0.05 0.66-0.24 0.86-0.53 0.21-0.28 0.3-0.63 0.24-0.98-0.01-0.1-0.08-0.16-0.14-0.22-0.03-0.04-0.06-0.07-0.07-0.09l-0.02-0.04-0.04-0.02c-0.35-0.11-0.53-0.24-0.75-0.56l-0.02-0.03-0.04-0.01c-0.04 0-0.09-0.03-0.14-0.05-0.09-0.05-0.19-0.1-0.29-0.08zm3.31 0.04h-0.04l-0.03 0.03c-0.23 0.32-0.45 0.6-0.82 0.7l-0.04 0.01-0.02 0.04c-0.25 0.52-0.25 0.95 0.01 1.31 0.42 0.59 1.26 0.72 1.85 0.29s0.72-1.26 0.29-1.85c-0.28-0.38-0.72-0.58-1.2-0.53zm-5.02 0.89c-0.11-0.02-0.2 0.02-0.28 0.05s-0.13 0.05-0.19 0.03c-0.07-0.03-0.15-0.02-0.21-0.02s-0.11 0-0.15-0.02l-0.02-0.01h-0.02c-0.09 0-0.16 0-0.22-0.01h-0.09l-0.02 0.09c-0.02 0.19-0.03 0.39-0.01 0.58 0.07 0.74 0.41 1.4 0.97 1.87s1.28 0.69 2.01 0.63c0.06 0 0.13-0.01 0.2-0.01 0.24-0.02 0.53-0.03 0.7-0.1l0.14-0.04-0.1-0.11c-0.06-0.06-0.06-0.1-0.07-0.17 0-0.06-0.01-0.13-0.06-0.23 0-0.02 0.01-0.09 0.02-0.14 0.02-0.13 0.03-0.19 0.01-0.24l-0.03-0.05h-0.06c-0.12 0.01-0.23 0.01-0.34 0.02-0.56 0.03-0.89 0.06-1.34-0.27s-0.75-1.17-0.76-1.76l-0.01-0.08-0.07-0.01zm7.12 0.31l-0.06 0.02-0.02 0.06c-0.12 0.47-0.41 1.14-0.83 1.51-0.48 0.42-1.17 0.4-1.65 0.24l-0.13-0.04c0-0.01 0.01 0.13 0.01 0.13v0.03 0.09c-0.02 0.32-0.1 0.63-0.26 0.91l-0.05 0.11 0.11 0.03c0.71 0.18 1.44 0.08 2.08-0.28 0.63-0.37 1.08-0.96 1.27-1.67 0.06-0.22 0.12-0.63 0.12-0.88v-0.08l-0.07-0.01c-0.05-0.01-0.1-0.04-0.15-0.07-0.09-0.06-0.21-0.13-0.37-0.1zm-7.02 36.87c-0.11-0.01-0.23 0-0.37 0.02-2.09 0.42-2.28 1.7-2.16 1.96 0.28 0.63 1.47 0.28 1.75 0.63 0.71 0.89-1.4 2.87-1.75 3.22s0.14 1.19 0 1.47-0.42 1.37 0.35 1.47c0.56 0.07 0.21-0.98 2.02-0.98 1.19 0 8.19 0.98 7.91-0.35 0 0-0.32-0.27-0.77-0.56-0.37-0.24 0.7-0.91 1.19 0.07 0.2 0.39 1.95 2.45 3.99 2.45 0.56 0 0.42-0.21 0.35-0.49s-0.77-0.91-0.63-1.75-0.14-2.17-0.91-2.45-8.12 0.98-8.96 0.14l-0.28-0.14c-0.26-0.33-0.03-4.53-1.73-4.71z" transform="matrix(.8 0 0 -.8 61.928 496.26)" fill="#bf2519"/></g></g></svg>
