<?xml version="1.0" encoding="UTF-8" standalone="no"?>
<!-- Created with Inkscape (http://www.inkscape.org/) -->

<svg
   xmlns:dc="http://purl.org/dc/elements/1.1/"
   xmlns:cc="http://creativecommons.org/ns#"
   xmlns:rdf="http://www.w3.org/1999/02/22-rdf-syntax-ns#"
   xmlns:svg="http://www.w3.org/2000/svg"
   xmlns="http://www.w3.org/2000/svg"
   xmlns:sodipodi="http://sodipodi.sourceforge.net/DTD/sodipodi-0.dtd"
   xmlns:inkscape="http://www.inkscape.org/namespaces/inkscape"
   width="2809.8982mm"
   height="1060.8134mm"
   viewBox="0 0 2809.8984 1060.8133"
   version="1.1"
   id="svg833"
   inkscape:version="0.92.3 (2405546, 2018-03-11)"
   sodipodi:docname="logo.svg"
   inkscape:export-filename="/home/pivarski/diana/aghast/docs/source/logo-300px.png"
   inkscape:export-xdpi="2.7510037"
   inkscape:export-ydpi="2.7510037">
  <defs
     id="defs827" />
  <sodipodi:namedview
     id="base"
     pagecolor="#ffffff"
     bordercolor="#666666"
     borderopacity="1.0"
     inkscape:pageopacity="0.0"
     inkscape:pageshadow="2"
     inkscape:zoom="0.044194174"
     inkscape:cx="4519.5626"
     inkscape:cy="3855.3099"
     inkscape:document-units="mm"
     inkscape:current-layer="layer1"
     showgrid="false"
     inkscape:snap-nodes="false"
     inkscape:snap-others="false"
     inkscape:window-width="954"
     inkscape:window-height="987"
     inkscape:window-x="0"
     inkscape:window-y="0"
     inkscape:window-maximized="0"
     fit-margin-top="20"
     fit-margin-left="20"
     fit-margin-right="20"
     fit-margin-bottom="20" />
  <metadata
     id="metadata830">
    <rdf:RDF>
      <cc:Work
         rdf:about="">
        <dc:format>image/svg+xml</dc:format>
        <dc:type
           rdf:resource="http://purl.org/dc/dcmitype/StillImage" />
        <dc:title></dc:title>
      </cc:Work>
    </rdf:RDF>
  </metadata>
  <g
     inkscape:label="Layer 1"
     inkscape:groupmode="layer"
     id="layer1"
     transform="translate(-13.635385,-89.35919)">
    <path
       inkscape:connector-curvature="0"
       id="path1398"
       style="font-style:normal;font-variant:normal;font-weight:normal;font-stretch:normal;font-size:medium;line-height:1.25;font-family:'Century Schoolbook L';-inkscape-font-specification:'Century Schoolbook L';text-align:start;letter-spacing:0px;word-spacing:0px;text-anchor:start;opacity:1;vector-effect:none;fill:#bcbcbc;fill-opacity:1;stroke:none;stroke-width:1.32291667;stroke-linecap:butt;stroke-linejoin:miter;stroke-miterlimit:4;stroke-dasharray:none;stroke-dashoffset:0;stroke-opacity:1;marker:none"
       d="M 418.32401,352.59241 C 386.84903,326.06024 323.7823,307.97622 261.10673,305.90348 151.42533,302.28124 62.180601,344.23549 59.847468,414.74467 c -1.238387,37.21759 20.513066,61.46274 54.790942,62.59929 30.35698,1.04213 53.56188,-18.81851 54.53404,-48.19567 0.46309,-12.73015 -4.01581,-26.6025 -13.35405,-40.63922 101.35004,-78.70306 196.6428,-3.65718 190.1585,94.90502 -109.46963,21.30224 -305.474765,76.63013 -312.270387,192.04842 -2.314526,69.53005 52.027307,116.42481 138.207537,119.27648 67.57212,2.24449 133.66054,-13.86911 177.42248,-62.43623 14.02061,50.46165 33.38678,61.56909 79.41353,63.09343 44.06974,1.46982 91.03738,-25.41862 91.97709,-53.81875 0.34738,-6.86283 -4.50187,-11.91184 -9.4088,-12.07647 -3.91167,-0.0219 -7.86958,0.69261 -14.82032,3.43726 -15.86418,5.34655 -19.81171,6.21472 -27.64891,5.93685 -114.895,-81.62277 26.58073,-302.03855 -50.52166,-386.3022 z M 311.11572,674.22997 c -25.68153,35.42601 -71.53813,58.41543 -113.64978,57.02202 -44.07089,-1.46988 -65.84655,-22.15637 -64.38604,-66.22502 1.3541,-41.129 22.89707,-69.82878 66.66827,-88.96819 30.81177,-12.71278 69.32884,-21.23384 146.13497,-31.44118 4.28199,50.59797 -12.34949,98.4532 -34.76742,129.60761 z"
       sodipodi:nodetypes="csccccccccccccccccccccc" />
    <path
       inkscape:connector-curvature="0"
       id="path1400"
       style="font-style:normal;font-variant:normal;font-weight:normal;font-stretch:normal;font-size:medium;line-height:1.25;font-family:'Century Schoolbook L';-inkscape-font-specification:'Century Schoolbook L';text-align:start;letter-spacing:0px;word-spacing:0px;text-anchor:start;opacity:1;vector-effect:none;fill:#bcbcbc;fill-opacity:1;stroke:none;stroke-width:1.32291667;stroke-linecap:butt;stroke-linejoin:miter;stroke-miterlimit:4;stroke-dasharray:none;stroke-dashoffset:0;stroke-opacity:1;marker:none"
       d="m 672.52018,842.15913 c -53.8813,1.22455 -43.41938,-5.27746 -55.44249,-11.69453 -36.18974,-55.35 39.30052,-65.18457 64.05392,-67.09776 92.93535,-5.6359 107.53923,-8.23991 139.26066,-24.21253 57.68189,-28.78925 88.92994,-81.03421 86.3411,-145.65174 -1.58551,-39.16373 -11.3646,-63.28643 -40.07013,-94.49619 15.93592,-18.29007 24.51266,-24.51849 32.34405,-24.83112 4.88377,-0.23447 7.93902,2.61486 10.3346,13.31482 4.86067,23.34004 21.03153,35.43992 45.50832,34.45813 24.47556,-1.03994 43.23301,-22.32524 42.17528,-48.76014 -1.33088,-33.28574 -28.71018,-55.72478 -66.89507,-54.19589 -31.32801,1.29615 -48.55893,11.7638 -91.94823,54.67744 -188.06257,-95.72438 -330.71879,-5.70539 -330.19802,124.35012 2.34921,57.76515 56.58824,120.00791 108.44312,141.4641 -65.00982,17.31416 -93.14365,45.85548 -90.98647,99.70444 1.6663,43.08144 24.22797,69.67718 70.87037,83.49858 -59.83788,23.97239 -88.07702,71.78814 -86.4684,111.92914 2.62712,64.6175 80.18085,107.553 210.62294,92.5637 160.7748,-18.4748 243.5734,-78.1601 239.66516,-179.8491 C 943.66494,832.87755 848.53764,835.2814 772.37731,838.15938 Z m 39.42231,-344.47428 c 61.68028,-2.4414 93.6115,14.86128 96.6332,90.24846 3.05525,76.36525 -22.62395,106.49231 -85.28337,109.00469 -60.70123,2.41793 -111.10241,-21.28943 -123.8141,-93.6714 -13.7209,-78.10692 46.86768,-102.95343 112.46427,-105.58175 z m 12.91518,426.71128 c 81.26168,-3.25165 87.13498,-3.495 101.90089,-2.08205 39.32018,2.3621 51.26353,22.79766 52.51801,54.12792 1.04147,48.4985 -50.27981,84.3203 -156.48817,110.4776 -79.91926,19.6832 -130.21643,-19.2969 -131.98247,-63.356 -1.30765,-32.30615 15.58878,-69.8635 61.60163,-96.22327 z"
       sodipodi:nodetypes="cccccccccccccccccsccccccsccccsccc" />
    <path
       inkscape:connector-curvature="0"
       id="path1402"
       style="font-style:normal;font-variant:normal;font-weight:normal;font-stretch:normal;font-size:medium;line-height:1.25;font-family:'Century Schoolbook L';-inkscape-font-specification:'Century Schoolbook L';text-align:start;letter-spacing:0px;word-spacing:0px;text-anchor:start;opacity:1;vector-effect:none;fill:#bcbcbc;fill-opacity:1;stroke:none;stroke-width:1.32291667;stroke-linecap:butt;stroke-linejoin:miter;stroke-miterlimit:4;stroke-dasharray:none;stroke-dashoffset:0;stroke-opacity:1;marker:none"
       d="m 1141.1456,112.28841 -181.56558,-2.92922 -3.17095,42.0109 46.89813,3.54126 c 36.1516,2.7323 41.496,10.02236 38.3192,52.03067 -25.0866,186.68777 -7.8233,341.181 -21.3636,520.31036 -2.9511,39.08169 -33.491,62.17682 -96.02653,57.44818 l -3.91166,-0.23447 -2.65001,35.17242 c 73.9291,-5.54343 158.532,3.78442 247.1957,18.6952 l 2.65,-35.17262 -3.9116,-0.23447 c -63.5088,-4.8144 -64.0921,-21.95034 -61.1363,-61.03004 -1.8055,-74.62796 -14.2082,-134.80388 30.9563,-230.76099 23.8427,-42.41474 60.471,-61.80055 102.4831,-58.62144 25.4049,1.91056 42.1255,18.69955 55.3036,39.34785 13.0358,22.60314 12.8518,52.31095 14.0299,100.30732 1.3309,53.99464 12.4756,106.44562 8.4019,160.21227 -2.9511,39.0819 -20.0813,60.37373 -83.5924,55.56978 l -3.9117,-0.23447 -2.6503,35.17372 c 74.2924,-10.31157 163.9642,10.76267 247.1945,18.69499 l -8.7837,-40.99549 c -32.844,-7.70783 -59.7974,-12.25927 -62.2821,-45.89388 -3.9001,-57.80685 -0.3474,-114.45629 -2.8469,-171.56773 5.3235,-70.34701 3.7265,-88.15555 -11.353,-122.70661 -57.7111,-137.50926 -219.4601,-148.03598 -268.1544,-59.36459 z"
       sodipodi:nodetypes="ccccccccccccccccsccccccccccc" />
    <path
       inkscape:connector-curvature="0"
       id="path1406"
       style="font-style:normal;font-variant:normal;font-weight:normal;font-stretch:normal;font-size:medium;line-height:1.25;font-family:'Century Schoolbook L';-inkscape-font-specification:'Century Schoolbook L';text-align:start;letter-spacing:0px;word-spacing:0px;text-anchor:start;opacity:1;vector-effect:none;fill:#bcbcbc;fill-opacity:1;stroke:none;stroke-width:1.32291667;stroke-linecap:butt;stroke-linejoin:miter;stroke-miterlimit:4;stroke-dasharray:none;stroke-dashoffset:0;stroke-opacity:1;marker:none"
       d="m 2433.0782,347.56374 -34.2304,-2.10595 -30.5585,33.43664 c -33.4956,-29.58187 -69.0116,-51.33656 -117.9094,-54.38954 -50.6052,-5.47375 -99.4755,2.36215 -121.5912,33.73732 -19.4936,27.64224 -42.4971,54.82486 -45.0385,95.53377 -2.418,38.13618 24.3587,82.64576 44.6529,103.54635 21.211,21.94249 43.092,33.12423 100.9137,50.4777 l 51.0982,14.97071 c 76.0979,23.40407 114.2414,47.34743 99.8175,83.78951 -40.6324,102.67034 -174.7975,48.79595 -215.583,-19.99244 -11.7535,-20.06754 -34.6436,-41.62315 -41.989,-68.73759 l -39.1222,-2.38255 c 5.6938,59.58452 -1.6066,121.92651 -11.5267,184.83127 l 34.2306,2.10597 36.7305,-37.95897 c 38.0816,34.77551 82.0901,53.23084 130.9869,56.28247 95.8381,5.98353 163.1288,-49.70194 168.8051,-140.64928 14.5021,-99.57133 -41.3685,-127.84275 -113.8927,-148.36057 -42.7608,-4.95312 -94.1031,-22.47331 -124.4057,-36.62705 -65.9924,-51.94861 1.205,-121.32603 49.1713,-119.38637 37.1618,2.3387 66.6822,16.93119 92.4155,45.03956 20.1728,22.85869 29.7091,43.08821 42.5481,89.05134 l 40.3604,-1.03995 c -6.9552,-43.82809 -0.2344,-103.91935 4.1202,-161.14173 z"
       sodipodi:nodetypes="ccccsscccscccccccccccccccc" />
    <path
       inkscape:connector-curvature="0"
       id="path1408"
       style="font-style:normal;font-variant:normal;font-weight:normal;font-stretch:normal;font-size:medium;line-height:1.25;font-family:'Century Schoolbook L';-inkscape-font-specification:'Century Schoolbook L';text-align:start;letter-spacing:0px;word-spacing:0px;text-anchor:start;opacity:1;vector-effect:none;fill:#bcbcbc;fill-opacity:1;stroke:none;stroke-width:1.32291667;stroke-linecap:butt;stroke-linejoin:miter;stroke-miterlimit:4;stroke-dasharray:none;stroke-dashoffset:0;stroke-opacity:1;marker:none"
       d="m 2641.4479,317.26258 12.2905,-178.39838 -40.1153,-2.17412 c -16.6858,126.66124 -66.9066,169.73576 -136.9853,180.95353 l -7.8931,47.67809 78.2704,10.07991 c -3.2173,120.48971 -34.4887,253.84808 -23.3981,369.28349 13.4233,41.94273 51.341,66.5687 108.0877,69.64595 38.1572,2.06039 89.3615,-17.30288 113.0316,-37.60053 33.9853,-29.55846 55.3884,-80.40651 58.3069,-134.21834 0.3474,-5.86757 0.6926,-12.71755 0.3474,-22.55473 l -35.4444,9.30483 c -7.7077,87.89784 -41.239,119.99647 -89.1825,117.39615 -22.5025,-1.22885 -41.4332,-14.02171 -47.3796,-31.0274 -44.5176,-55.71784 -9.5823,-203.34673 9.6635,-340.96195 19.0534,-7.30245 63.7343,-5.8094 143.826,7.80048 l 2.2799,-42.07148 c -50.2181,-11.96506 -104.6471,-34.70499 -145.6672,-23.12616 z"
       sodipodi:nodetypes="ccccccccccccccccccc" />
    <path
       id="path1477"
       style="opacity:1;vector-effect:none;fill:#bcbcbc;fill-opacity:1;fill-rule:evenodd;stroke:none;stroke-width:1.32291667;stroke-linecap:butt;stroke-linejoin:miter;stroke-miterlimit:4;stroke-dasharray:none;stroke-dashoffset:0;stroke-opacity:1;marker:none"
       d="m 1776.0616,591.35472 a 8.98735,6.1674218 68.542877 0 1 -9.0269,-6.11029 8.98735,6.1674218 68.542877 0 1 2.4416,-10.62398 8.98735,6.1674218 68.542877 0 1 9.027,6.11029 8.98735,6.1674218 68.542877 0 1 -2.4421,10.62398 z m -57.5639,-2.76465 a 16.915361,9.66592 82.476292 0 1 -7.3604,18.03409 16.915361,9.66592 82.476292 0 1 -11.8009,-15.50304 16.915361,9.66592 82.476292 0 1 7.3604,-18.03411 16.915361,9.66592 82.476292 0 1 11.8009,15.50306 z M 1875.869,482.67223 c 7.2562,21.77791 -3.9117,50.20437 -25.6863,57.4573 -21.7801,7.25618 -41.6475,3.43727 -48.9037,-18.34652 -7.2562,-21.77923 0.9249,-53.25973 22.6296,-60.51614 21.7793,-7.2562 44.7039,-0.34738 51.9604,21.40536 z m -224.2352,-3.27529 c 6.5736,17.48786 -1.4937,41.86066 -18.9633,48.43644 -17.4705,6.61986 -30.6638,-4.65219 -37.2406,-22.14136 -6.5735,-17.48786 -4.0622,-34.61706 13.4292,-41.19284 17.4705,-6.61964 36.1991,-2.60313 42.7747,14.89776 z m 72.9224,179.5764 c -23.1101,16.04692 -12.1169,49.35395 -6.9438,71.8214 3.9696,26.52973 -3.3908,71.54527 33.4574,75.98812 33.4562,0.81199 31.306,-39.34916 33.5997,-62.92082 -3.7844,-23.43771 -6.099,-49.28574 -19.6335,-69.50853 -11.0986,-5.75163 -28.3422,-23.08556 -40.4833,-15.38017 z M 1668.255,225.29223 c 130.9224,-42.53045 284.4651,1.58705 310.3377,182.52973 30.4737,213.07166 -87.7773,241.83158 -100.2172,351.22968 -11.7836,103.6692 -107.1734,267.78946 -182.3513,161.27893 -58.3021,-82.59932 -2.6618,-121.82124 -146.2542,-314.40656 -103.9239,-139.38445 -17.9577,-336.30955 118.485,-380.63178 z"
       inkscape:connector-curvature="0" />
    <path
       style="opacity:1;vector-effect:none;fill:#bcbcbc;fill-opacity:1;stroke:none;stroke-width:1.32291667;stroke-linecap:butt;stroke-linejoin:miter;stroke-miterlimit:4;stroke-dasharray:none;stroke-dashoffset:0;stroke-opacity:1;marker:none"
       d="m 1484.8748,365.69403 c -62.0889,57.42278 -54.5596,153.72118 -37.7811,227.05062 24.4328,106.77433 84.097,205.0543 90.762,316.55721 3.7612,62.46494 -6.7122,124.48194 -6.2494,186.47244 23.72,25.6848 13.6294,-88.9786 38.6872,-109.62819 29.5747,-77.25305 86.3131,-178.21627 26.6687,-251.46144 -53.3454,-65.51223 -95.8321,-137.92872 -107.8783,-221.89517 -7.9045,-49.0274 3.4023,-97.83294 -4.2705,-147.09438 z"
       id="path1503"
       inkscape:connector-curvature="0"
       sodipodi:nodetypes="cssccsccc" />
    <path
       style="opacity:1;vector-effect:none;fill:#bcbcbc;fill-opacity:1;stroke:none;stroke-width:1.32291667;stroke-linecap:butt;stroke-linejoin:miter;stroke-miterlimit:4;stroke-dasharray:none;stroke-dashoffset:0;stroke-opacity:1;marker:none"
       d="m 2007.215,368.54554 c 32.3056,30.97268 25.0251,82.54069 30.5456,123.14538 7.3834,54.3383 17.1659,111.14883 -5.6942,163.39726 -35.1897,80.46425 -77.2653,183.45307 -63.2772,264.78644 7.9507,46.20633 39.2446,78.93669 10.6007,122.28798 -10.858,16.433 -12.0866,70.9272 -17.2819,23.3716 -9.397,-63.8215 -35.7071,-122.22426 -47.0785,-185.91579 -8.8418,-49.50465 -16.362,-98.37226 2.4535,-147.25873 21.7039,-56.3557 65.3361,-101.25176 71.9732,-163.78506 5.6476,-53.39301 17.7647,-106.01509 12.419,-159.9092 -6.6546,-16.85715 13.1479,-25.93945 5.335,-40.11857 z"
       id="path1518"
       inkscape:connector-curvature="0"
       sodipodi:nodetypes="csssscsssccc" />
  </g>
</svg>
