<?xml version="1.0" encoding="utf-8"?>
<!-- Generator: Adobe Illustrator 23.0.2, SVG Export Plug-In . SVG Version: 6.00 Build 0)  -->
<svg version="1.1" id="Layer_1" xmlns="http://www.w3.org/2000/svg" xmlns:xlink="http://www.w3.org/1999/xlink" x="0px" y="0px"
	 viewBox="0 0 612 792" style="enable-background:new 0 0 612 792;" xml:space="preserve">
<style type="text/css">
	.st0{fill:url(#SVGID_1_);stroke:#575195;stroke-width:1.7;stroke-miterlimit:10;}
	.st1{fill:#0082CA;}
	.st2{fill:#575195;}
	.st3{fill:#270089;}
	.st4{fill:#8A84D6;}
	.st5{fill:url(#SVGID_4_);}
	.st6{fill:url(#SVGID_5_);}
	.st7{clip-path:url(#SVGID_7_);}
	.st8{clip-path:url(#SVGID_9_);fill:#A7A9AC;}
	.st9{clip-path:url(#SVGID_11_);}
	.st10{clip-path:url(#SVGID_13_);fill:#FFFFFF;}
</style>
<linearGradient id="SVGID_1_" gradientUnits="userSpaceOnUse" x1="132.3048" y1="184.7366" x2="185.4347" y2="184.7366">
	<stop  offset="0" style="stop-color:#7C76B7"/>
	<stop  offset="0.5" style="stop-color:#6561AB"/>
	<stop  offset="1" style="stop-color:#483F99"/>
</linearGradient>
<ellipse class="st0" cx="158.87" cy="184.74" rx="26.56" ry="26.85"/>
<g>
	<defs>
		<rect id="SVGID_2_" x="122.68" y="151.11" width="74.34" height="64.96"/>
	</defs>
	<clipPath id="SVGID_3_">
		<use xlink:href="#SVGID_2_"  style="overflow:visible;"/>
	</clipPath>
</g>
<path class="st1" d="M117.18,157.05c0,0,0.15-0.24,0.46-0.68c2.78-3.94,18.28-23.54,50.6-21.13c0,0,37.04,2.68,40.97,47.65
	c0,0,1.68,38.27-38.16,50.71c0,0-67.34,9.57-56.12-59.9h2.25c0,0-3.93,43.06,27.5,52.24c0,0,53.31,10.96,58.36-41.41
	c0,0-1.68-34.44-24.69-40.15c0,0-33.67-12.02-57.8,17.26"/>
<path class="st2" d="M188.92,205.34c0,0-0.11,0.18-0.34,0.49c-2.04,2.81-13.38,16.76-36.21,14.41c0,0-26.16-2.63-28.09-35.36
	c0,0-0.46-27.82,27.97-36.11c0,0,47.84-5.7,38.58,44.53l-1.59-0.04c0,0,3.6-31.19-18.47-38.44c0,0-37.52-8.95-42.09,28.98
	c0,0,0.54,25.04,16.71,29.61c0,0,23.6,9.35,41.23-11.46"/>
<path class="st3" d="M119.43,201.56c0,0-0.09-0.22-0.24-0.65c-1.31-3.82-6.98-23.99,10.53-45.51c0,0,20.01-24.71,52.4-6.13
	c0,0,26.76,16.98,15.62,50.82c0,0-26.59,51.77-68.14,10.94l1.1-1.57c0,0,27.24,23.18,48.9,5.5c0,0,33.6-32.19,0.6-60.57
	c0,0-24.16-15.16-39.33-1.73c0,0-24.68,17.91-16.69,48.72"/>
<path class="st4" d="M183.58,239.33c0,0-0.31,0.14-0.9,0.35c-5.3,1.96-33.29,10.58-62.38-13.26c0,0-33.39-27.23-6.71-73.28
	c0,0,24.28-38.09,70.56-23.59c0,0,70.46,35.57,12.82,95.19l-2.13-1.49c0,0,32.85-38.97,9.2-68.75c0,0-43.25-46.05-83.46,1.16
	c0,0-21.69,34.39-3.69,55.21c0,0,23.87,34.01,66.6,21.79"/>
<g>
	<path class="st4" d="M227.05,132.96v-5.95h5.53v5.95H227.05z M232.37,139.05v34.51h-5.11v-34.51H232.37z"/>
	<path class="st4" d="M247.56,139.05v7.21c0.98-2.45,3.36-8.61,9.94-8.12v5.74c-5.67-0.63-9.38,3.29-9.38,11.83v17.85h-5.11v-34.51
		H247.56z"/>
	<path class="st4" d="M262.12,132.96v-5.95h5.53v5.95H262.12z M267.44,139.05v34.51h-5.11v-34.51H267.44z"/>
	<path class="st4" d="M293.62,147.94c-0.56-1.47-1.96-5.6-6.72-5.6c-4.06,0-5.95,2.8-5.95,5.32c0,3.5,2.38,4.27,8.05,5.95
		c4.41,1.4,10.57,3.43,10.57,10.36c0,4.97-3.78,10.57-12.53,10.57c-10.36,0-11.83-7.28-12.39-9.87l4.76-1.05
		c0.35,1.82,1.33,6.65,7.98,6.65c4.97,0,6.86-3.22,6.86-5.67c0-3.85-3.64-4.97-6.72-5.95c-5.88-1.82-8.26-2.73-9.94-5.18
		c-1.05-1.47-1.68-3.22-1.68-5.11c0-4.13,3.36-10.29,11.27-10.29c8.4,0,10.22,6.23,10.92,8.75L293.62,147.94z"/>
</g>
<g>
	<path class="st1" d="M240.83,173.94v16.5c0.59-1.72,2.18-5.94,8.12-5.94c3.37,0,6.2,1.52,7.59,4.09c1.12,2.18,1.12,5.61,1.12,9.17
		v20.19h-4.82v-20.19c0-4.42,0-9.24-5.28-9.24c-6.07,0-6.73,8.38-6.73,12.41v17.03h-4.82v-44.02H240.83z"/>
	<path class="st1" d="M269.8,202.32c0,2.84-0.07,12.54,7.59,12.54c4.62,0,5.87-4.03,6.6-6.53l4.55,1.06
		c-2.05,7.59-6.73,9.5-11.42,9.5c-9.31,0-12.41-8.18-12.41-16.7c0-12.21,5.81-17.69,12.67-17.69c7.33,0,11.42,5.61,11.62,17.82
		H269.8z M283.53,198.36c0-4.88-1.52-9.83-6.67-9.83c-4.95,0-6.4,5.21-6.8,9.83H283.53z"/>
	<path class="st1" d="M299.96,185.42v5.68c0.86-1.98,2.71-6.34,8.65-6.34c7,0,11.42,6.47,11.42,16.5c0,3.3-0.73,17.36-11.42,17.36
		c-4.82,0-6.53-2.24-8.18-4.88v15.24h-4.82v-43.56H299.96z M300.42,204.17c0,2.71,0,5.21,1.78,7.59c1.32,1.78,3.1,2.84,5.35,2.84
		c2.18,0,3.83-0.79,5.21-3.23c1.58-2.77,1.91-7.06,1.91-9.83c0-4.69-0.99-12.74-7.13-12.74c-1.91,0-3.96,0.59-5.61,3.56
		c-1.52,2.71-1.52,4.75-1.52,6.93V204.17z"/>
</g>
<g>
	<path d="M192.45,232.69v8.67h-1.9v-8.67H192.45z"/>
	<path d="M195.9,234.95v0.87c0.26-0.53,0.6-1.01,1.6-1.01c0.25,0,0.98,0,1.42,0.68c0.26,0.4,0.26,1.03,0.26,1.66v4.21h-1.78v-4.21
		c0-0.57-0.05-0.95-0.61-0.95c-0.79,0-0.79,0.62-0.79,1.4v3.76h-1.78v-6.41H195.9z"/>
	<path d="M203.63,236.86c-0.1-0.33-0.29-0.87-0.94-0.87c-0.42,0-0.56,0.3-0.56,0.56c0,0.51,0.35,0.62,1.07,0.88
		c0.9,0.31,1.9,0.66,1.9,1.96c0,0.95-0.66,2.09-2.43,2.09c-2.11,0-2.33-1.43-2.4-1.91l1.42-0.23c0.05,0.25,0.21,0.96,1.01,0.96
		c0.18,0,0.71-0.04,0.71-0.6c0-0.51-0.39-0.64-1.03-0.85c-0.68-0.21-1.92-0.64-1.92-2.02s1.13-2.04,2.28-2.04
		c1.08,0,1.94,0.62,2.17,1.68L203.63,236.86z"/>
	<path d="M208.27,232.93v2.03h1.18v1.4h-1.18v2.35c0,1.21,0,1.36,1.27,1.29v1.37c-0.26,0.05-0.62,0.13-1.1,0.13
		c-0.58,0-1.23-0.14-1.6-0.66c-0.31-0.45-0.31-1.1-0.31-1.92v-2.55h-0.7v-1.4h0.79l0.14-1.89L208.27,232.93z"/>
	<path d="M210.52,234.41v-1.77h1.81v1.77H210.52z M212.31,234.95v6.41h-1.78v-6.41H212.31z"/>
	<path d="M215.9,232.93v2.03h1.18v1.4h-1.18v2.35c0,1.21,0,1.36,1.27,1.29v1.37c-0.26,0.05-0.62,0.13-1.1,0.13
		c-0.58,0-1.23-0.14-1.6-0.66c-0.31-0.45-0.31-1.1-0.31-1.92v-2.55h-0.7v-1.4h0.79l0.14-1.89L215.9,232.93z"/>
	<path d="M219.85,234.95v4.12c0,0.64,0,1.04,0.61,1.04c0.79,0,0.79-0.51,0.79-1.89v-3.28h1.78v6.41h-1.68v-0.88
		c-0.33,0.55-0.61,1.01-1.65,1.01c-1.64,0-1.64-1.2-1.64-2.37v-4.17H219.85z"/>
	<path d="M226.64,232.93v2.03h1.18v1.4h-1.18v2.35c0,1.21,0,1.36,1.27,1.29v1.37c-0.26,0.05-0.62,0.13-1.1,0.13
		c-0.58,0-1.23-0.14-1.6-0.66c-0.31-0.45-0.31-1.1-0.31-1.92v-2.55h-0.7v-1.4h0.79l0.14-1.89L226.64,232.93z"/>
	<path d="M230.47,238.45c-0.01,0.87-0.03,1.81,0.86,1.81c0.77,0,0.86-0.69,0.91-1.1l1.6,0.1c-0.13,0.6-0.48,2.24-2.55,2.24
		c-1.96,0-2.67-1.55-2.67-3.25c0-0.42,0.05-1.43,0.48-2.21c0.46-0.82,1.3-1.22,2.17-1.22c1.12,0,1.81,0.62,2.09,1.17
		c0.46,0.87,0.47,1.69,0.47,2.47H230.47z M232.15,237.42c0.01-0.35,0.04-1.43-0.83-1.43c-0.81,0-0.82,0.98-0.83,1.43H232.15z"/>
	<path d="M241.89,234.95v1.4h-1.13v5.01h-1.72v-5.01h-0.73v-1.4h0.73c0.03-1.09,0.06-1.7,0.69-2.2c0.34-0.27,0.72-0.4,1.38-0.4
		c0.38,0,0.61,0.04,0.84,0.06v1.39c-0.12-0.01-0.22-0.03-0.39-0.03c-0.78,0-0.81,0.31-0.81,1.17H241.89z"/>
	<path d="M247.71,238.15c0,2.05-0.74,3.34-2.61,3.34c-1.85,0-2.6-1.27-2.6-3.34c0-2,0.7-3.34,2.61-3.34
		C247.01,234.81,247.71,236.15,247.71,238.15z M245.1,236.06c-0.57,0-0.75,0.52-0.75,2.09c0,1.7,0.23,2.09,0.77,2.09
		c0.52,0,0.75-0.38,0.75-2.09c0-1.65-0.21-2.09-0.75-2.09H245.1z"/>
	<path d="M250.61,234.95v1.55c0.16-0.55,0.47-1.64,1.51-1.64c0.13,0,0.22,0.01,0.31,0.04v1.74c-0.16-0.03-0.23-0.03-0.3-0.03
		c-1.31,0-1.31,1.48-1.31,1.98v2.77h-1.78v-6.41H250.61z"/>
	<path d="M259.76,232.69c0.87,0,1.72,0,2.38,0.74c0.46,0.51,0.62,1.2,0.62,1.88c0,1.53-0.79,2-1.22,2.26l1.6,3.78h-2.08l-1.16-3.42
		h-0.96v3.42h-1.9v-8.67H259.76z M258.94,234.1v2.44h0.84c0.82,0,1.12-0.53,1.12-1.25c0-1.2-0.87-1.2-1.2-1.2H258.94z"/>
	<path d="M265.82,238.45c-0.01,0.87-0.03,1.81,0.86,1.81c0.77,0,0.86-0.69,0.91-1.1l1.6,0.1c-0.13,0.6-0.48,2.24-2.55,2.24
		c-1.96,0-2.67-1.55-2.67-3.25c0-0.42,0.05-1.43,0.48-2.21c0.46-0.82,1.3-1.22,2.17-1.22c1.12,0,1.81,0.62,2.09,1.17
		c0.46,0.87,0.47,1.69,0.47,2.47H265.82z M267.5,237.42c0.01-0.35,0.04-1.43-0.83-1.43c-0.81,0-0.82,0.98-0.83,1.43H267.5z"/>
	<path d="M273.45,236.86c-0.1-0.33-0.29-0.87-0.94-0.87c-0.42,0-0.56,0.3-0.56,0.56c0,0.51,0.35,0.62,1.07,0.88
		c0.9,0.31,1.9,0.66,1.9,1.96c0,0.95-0.66,2.09-2.43,2.09c-2.11,0-2.33-1.43-2.4-1.91l1.42-0.23c0.05,0.25,0.21,0.96,1.01,0.96
		c0.18,0,0.71-0.04,0.71-0.6c0-0.51-0.39-0.64-1.03-0.85c-0.68-0.21-1.92-0.64-1.92-2.02s1.13-2.04,2.28-2.04
		c1.08,0,1.94,0.62,2.17,1.68L273.45,236.86z"/>
	<path d="M277.66,238.45c-0.01,0.87-0.03,1.81,0.86,1.81c0.77,0,0.86-0.69,0.91-1.1l1.6,0.1c-0.13,0.6-0.48,2.24-2.55,2.24
		c-1.96,0-2.67-1.55-2.67-3.25c0-0.42,0.05-1.43,0.48-2.21c0.46-0.82,1.3-1.22,2.17-1.22c1.12,0,1.81,0.62,2.09,1.17
		c0.46,0.87,0.47,1.69,0.47,2.47H277.66z M279.34,237.42c0.01-0.35,0.04-1.43-0.83-1.43c-0.81,0-0.82,0.98-0.83,1.43H279.34z"/>
	<path d="M282.36,236.81c0.05-0.36,0.16-1.13,1.07-1.65c0.46-0.26,0.99-0.35,1.52-0.35c0.68,0,1.38,0.17,1.86,0.68
		c0.39,0.39,0.42,1.12,0.42,1.9v2.55c0,1.09,0.04,1.21,0.1,1.43h-1.65c-0.08-0.26-0.09-0.4-0.09-0.99
		c-0.23,0.42-0.65,1.12-1.77,1.12c-0.86,0-1.68-0.49-1.68-1.75c0-1.78,1.39-2.25,3.3-2.35v-0.25c0-0.56,0-1.14-0.64-1.14
		c-0.6,0-0.71,0.48-0.77,0.99L282.36,236.81z M285.44,238.29c-1.03,0.13-1.46,0.38-1.46,1.21c0,0.46,0.17,0.81,0.6,0.81
		c0.22,0,0.42-0.1,0.58-0.35c0.25-0.36,0.27-0.77,0.27-1.35V238.29z"/>
	<path d="M290.39,234.95v1.55c0.16-0.55,0.47-1.64,1.51-1.64c0.13,0,0.22,0.01,0.31,0.04v1.74c-0.16-0.03-0.23-0.03-0.3-0.03
		c-1.31,0-1.31,1.48-1.31,1.98v2.77h-1.78v-6.41H290.39z"/>
	<path d="M296.01,237.37c-0.06-0.92-0.29-1.2-0.7-1.2c-0.53,0-0.9,0.43-0.9,1.9c0,0.96,0.1,1.98,0.86,1.98
		c0.57,0,0.7-0.52,0.74-1.18l1.66,0.1c-0.08,0.66-0.27,2.52-2.51,2.52c-2.18,0-2.55-1.96-2.55-3.33c0-1.73,0.62-3.35,2.64-3.35
		c0.58,0,1.22,0.12,1.73,0.66c0.6,0.65,0.65,1.29,0.69,1.83L296.01,237.37z"/>
	<path d="M300.7,232.69v2.94c0.18-0.29,0.53-0.82,1.57-0.82c1.61,0,1.61,1.33,1.61,2.43v4.12h-1.78v-4.12c0-0.61,0-1.04-0.6-1.04
		c-0.78,0-0.81,0.57-0.81,1.09v4.07h-1.78v-8.67H300.7z"/>
	<path d="M316.17,236.66c-0.3,1.29-0.7,2.07-1.17,2.78c0.49,0.51,0.71,0.48,1.17,0.46v1.47c-0.18,0.04-0.38,0.09-0.65,0.09
		c-0.84,0-1.3-0.43-1.69-0.82c-0.49,0.39-1.12,0.86-2.34,0.86c-2.67,0-2.77-2.2-2.77-2.56c0-1.22,0.77-1.99,1.96-2.5
		c-0.2-0.29-0.81-1.12-0.81-1.95c0-0.94,0.83-1.92,2.29-1.92c1.52,0,2.22,1.05,2.22,2.07c0,1.25-1.03,1.83-1.5,2.08l1.2,1.6
		c0.39-0.66,0.57-1.43,0.68-1.91L316.17,236.66z M311.41,237.44c-0.53,0.33-0.88,0.77-0.88,1.38c0,0.56,0.3,1.25,1.25,1.25
		c0.65,0,0.99-0.31,1.21-0.51L311.41,237.44z M312.15,235.72c0.46-0.26,0.78-0.65,0.78-1.2c0-0.22-0.08-0.73-0.68-0.73
		c-0.48,0-0.68,0.33-0.68,0.68C311.58,234.93,311.98,235.49,312.15,235.72z"/>
	<path d="M323.3,232.69v8.67h-1.9v-8.67H323.3z"/>
	<path d="M326.75,234.95v0.87c0.26-0.53,0.6-1.01,1.6-1.01c0.25,0,0.97,0,1.42,0.68c0.26,0.4,0.26,1.03,0.26,1.66v4.21h-1.78v-4.21
		c0-0.57-0.05-0.95-0.61-0.95c-0.79,0-0.79,0.62-0.79,1.4v3.76h-1.78v-6.41H326.75z"/>
	<path d="M333.22,234.95v0.87c0.26-0.53,0.6-1.01,1.6-1.01c0.25,0,0.97,0,1.42,0.68c0.26,0.4,0.26,1.03,0.26,1.66v4.21h-1.78v-4.21
		c0-0.57-0.05-0.95-0.61-0.95c-0.79,0-0.79,0.62-0.79,1.4v3.76h-1.78v-6.41H333.22z"/>
	<path d="M342.93,238.15c0,2.05-0.74,3.34-2.61,3.34c-1.85,0-2.6-1.27-2.6-3.34c0-2,0.7-3.34,2.61-3.34
		C342.23,234.81,342.93,236.15,342.93,238.15z M340.32,236.06c-0.57,0-0.75,0.52-0.75,2.09c0,1.7,0.23,2.09,0.77,2.09
		c0.52,0,0.75-0.38,0.75-2.09c0-1.65-0.21-2.09-0.75-2.09H340.32z"/>
	<path d="M345.18,234.95l0.88,3.78l0.88-3.78h1.5l-1.77,6.41h-1.4l-1.82-6.41H345.18z"/>
	<path d="M348.81,236.81c0.05-0.36,0.16-1.13,1.07-1.65c0.46-0.26,0.99-0.35,1.52-0.35c0.68,0,1.38,0.17,1.86,0.68
		c0.39,0.39,0.42,1.12,0.42,1.9v2.55c0,1.09,0.04,1.21,0.1,1.43h-1.65c-0.08-0.26-0.09-0.4-0.09-0.99
		c-0.23,0.42-0.65,1.12-1.77,1.12c-0.86,0-1.68-0.49-1.68-1.75c0-1.78,1.39-2.25,3.3-2.35v-0.25c0-0.56,0-1.14-0.64-1.14
		c-0.6,0-0.71,0.48-0.77,0.99L348.81,236.81z M351.89,238.29c-1.03,0.13-1.46,0.38-1.46,1.21c0,0.46,0.17,0.81,0.6,0.81
		c0.22,0,0.42-0.1,0.58-0.35c0.25-0.36,0.27-0.77,0.27-1.35V238.29z"/>
	<path d="M357.27,232.93v2.03h1.18v1.4h-1.18v2.35c0,1.21,0,1.36,1.27,1.29v1.37c-0.26,0.05-0.62,0.13-1.11,0.13
		c-0.58,0-1.24-0.14-1.6-0.66c-0.31-0.45-0.31-1.1-0.31-1.92v-2.55h-0.7v-1.4h0.79l0.14-1.89L357.27,232.93z"/>
	<path d="M359.52,234.41v-1.77h1.81v1.77H359.52z M361.32,234.95v6.41h-1.78v-6.41H361.32z"/>
	<path d="M367.83,238.15c0,2.05-0.74,3.34-2.61,3.34c-1.85,0-2.6-1.27-2.6-3.34c0-2,0.7-3.34,2.61-3.34
		C367.13,234.81,367.83,236.15,367.83,238.15z M365.22,236.06c-0.57,0-0.75,0.52-0.75,2.09c0,1.7,0.23,2.09,0.77,2.09
		c0.52,0,0.75-0.38,0.75-2.09c0-1.65-0.21-2.09-0.75-2.09H365.22z"/>
	<path d="M370.85,234.95v0.87c0.26-0.53,0.6-1.01,1.6-1.01c0.25,0,0.97,0,1.42,0.68c0.26,0.4,0.26,1.03,0.26,1.66v4.21h-1.78v-4.21
		c0-0.57-0.05-0.95-0.61-0.95c-0.79,0-0.79,0.62-0.79,1.4v3.76h-1.78v-6.41H370.85z"/>
	<path d="M190.38,250.01v-1.77h1.81v1.77H190.38z M192.18,250.55v6.41h-1.78v-6.41H192.18z"/>
	<path d="M195.45,250.55v0.87c0.26-0.53,0.6-1.01,1.6-1.01c0.25,0,0.98,0,1.42,0.68c0.26,0.4,0.26,1.03,0.26,1.66v4.21h-1.78v-4.21
		c0-0.57-0.05-0.95-0.61-0.95c-0.79,0-0.79,0.62-0.79,1.4v3.76h-1.78v-6.41H195.45z"/>
	<path d="M207.7,250.79c-0.1-0.31-0.35-1.08-1.22-1.08c-0.64,0-0.91,0.44-0.91,0.79c0,0.6,0.57,0.81,1.5,1.16
		c0.97,0.38,2.39,0.91,2.39,2.67c0,1.48-1.04,2.77-3.08,2.77c-0.62,0-1.56-0.12-2.26-0.91c-0.48-0.56-0.64-1.09-0.74-1.47l1.66-0.47
		c0.1,0.39,0.35,1.3,1.39,1.3c0.65,0,1.1-0.36,1.1-0.94c0-0.61-0.55-0.86-1.2-1.09c-1.18-0.43-2.61-0.94-2.61-2.7
		c0-1.35,0.87-2.65,2.77-2.65c2.16,0,2.61,1.44,2.79,2.02L207.7,250.79z"/>
	<path d="M215.67,253.75c0,2.05-0.74,3.34-2.61,3.34c-1.85,0-2.6-1.27-2.6-3.34c0-2,0.7-3.34,2.61-3.34
		C214.97,250.41,215.67,251.75,215.67,253.75z M213.06,251.66c-0.57,0-0.75,0.52-0.75,2.09c0,1.7,0.23,2.09,0.77,2.09
		c0.52,0,0.75-0.38,0.75-2.09c0-1.65-0.21-2.09-0.75-2.09H213.06z"/>
	<path d="M220.14,250.55v1.4h-1.13v5.01h-1.72v-5.01h-0.73v-1.4h0.73c0.03-1.09,0.06-1.7,0.69-2.2c0.34-0.27,0.72-0.4,1.38-0.4
		c0.38,0,0.61,0.04,0.84,0.06v1.39c-0.12-0.01-0.22-0.03-0.39-0.03c-0.78,0-0.81,0.31-0.81,1.17H220.14z"/>
	<path d="M223.04,248.53v2.03h1.18v1.4h-1.18v2.35c0,1.21,0,1.37,1.27,1.29v1.37c-0.26,0.05-0.62,0.13-1.1,0.13
		c-0.58,0-1.23-0.14-1.6-0.66c-0.31-0.46-0.31-1.1-0.31-1.92v-2.55h-0.7v-1.4h0.79l0.14-1.89L223.04,248.53z"/>
	<path d="M226.28,250.55l0.75,3.9l0.71-3.9h1.74l0.57,3.9l0.87-3.9h1.4l-1.61,6.41h-1.5l-0.82-4.35l-0.81,4.35h-1.46l-1.61-6.41
		H226.28z"/>
	<path d="M232.72,252.41c0.05-0.36,0.16-1.13,1.07-1.65c0.46-0.26,0.99-0.35,1.52-0.35c0.68,0,1.38,0.17,1.86,0.68
		c0.39,0.39,0.42,1.12,0.42,1.9v2.55c0,1.09,0.04,1.21,0.1,1.43h-1.65c-0.08-0.26-0.09-0.4-0.09-0.99
		c-0.23,0.42-0.65,1.12-1.77,1.12c-0.86,0-1.68-0.49-1.68-1.75c0-1.78,1.39-2.25,3.3-2.35v-0.25c0-0.56,0-1.14-0.64-1.14
		c-0.6,0-0.71,0.48-0.77,0.99L232.72,252.41z M235.81,253.89c-1.03,0.13-1.46,0.38-1.46,1.21c0,0.45,0.17,0.81,0.6,0.81
		c0.22,0,0.42-0.1,0.59-0.35c0.25-0.36,0.27-0.77,0.27-1.35V253.89z"/>
	<path d="M240.76,250.55v1.55c0.16-0.55,0.47-1.64,1.51-1.64c0.13,0,0.22,0.01,0.31,0.04v1.74c-0.16-0.03-0.23-0.03-0.3-0.03
		c-1.31,0-1.31,1.48-1.31,1.98v2.77h-1.78v-6.41H240.76z"/>
	<path d="M245.02,254.05c-0.01,0.87-0.03,1.81,0.86,1.81c0.77,0,0.86-0.69,0.91-1.1l1.6,0.1c-0.13,0.6-0.48,2.24-2.55,2.24
		c-1.96,0-2.67-1.55-2.67-3.25c0-0.42,0.05-1.43,0.48-2.21c0.46-0.82,1.3-1.22,2.17-1.22c1.12,0,1.81,0.62,2.09,1.17
		c0.46,0.87,0.47,1.69,0.47,2.47H245.02z M246.7,253.02c0.01-0.35,0.04-1.43-0.83-1.43c-0.81,0-0.82,0.98-0.83,1.43H246.7z"/>
	<path d="M256.44,250.55v1.4h-1.13v5.01h-1.72v-5.01h-0.73v-1.4h0.73c0.03-1.09,0.06-1.7,0.69-2.2c0.34-0.27,0.72-0.4,1.38-0.4
		c0.38,0,0.61,0.04,0.84,0.06v1.39c-0.12-0.01-0.22-0.03-0.39-0.03c-0.78,0-0.81,0.31-0.81,1.17H256.44z"/>
	<path d="M262.26,253.75c0,2.05-0.74,3.34-2.61,3.34c-1.85,0-2.6-1.27-2.6-3.34c0-2,0.7-3.34,2.61-3.34
		C261.56,250.41,262.26,251.75,262.26,253.75z M259.65,251.66c-0.57,0-0.75,0.52-0.75,2.09c0,1.7,0.23,2.09,0.77,2.09
		c0.52,0,0.75-0.38,0.75-2.09c0-1.65-0.21-2.09-0.75-2.09H259.65z"/>
	<path d="M265.16,250.55v1.55c0.16-0.55,0.47-1.64,1.51-1.64c0.13,0,0.22,0.01,0.31,0.04v1.74c-0.16-0.03-0.23-0.03-0.3-0.03
		c-1.31,0-1.31,1.48-1.31,1.98v2.77h-1.78v-6.41H265.16z"/>
	<path d="M277.48,256.96h-1.9v-3.55h-2.09v3.55h-1.9v-8.67h1.9v3.5h2.09v-3.5h1.9V256.96z"/>
	<path d="M279.22,250.01v-1.77h1.81v1.77H279.22z M281.02,250.55v6.41h-1.78v-6.41H281.02z"/>
	<path d="M288.05,250.66c-0.1-0.03-0.22-0.05-0.39-0.05c-0.21,0-0.56,0.03-0.68,0.58c0.48,0.49,0.48,1.14,0.48,1.29
		c0,1.29-1.09,1.92-2.31,1.92c-0.39,0-0.62-0.06-0.84-0.12c-0.42,0.23-0.42,0.48-0.42,0.53c0,0.35,0.38,0.38,1.07,0.43
		c1.46,0.08,1.9,0.1,2.35,0.43c0.49,0.34,0.66,0.87,0.66,1.42c0,1.99-2.09,2.13-3.13,2.13c-0.55,0-2.63,0-2.63-1.52
		c0-0.79,0.64-1.05,1.04-1.2c-0.21-0.1-0.83-0.39-0.83-1.1c0-0.78,0.68-1.17,1.1-1.42c-0.39-0.21-0.95-0.52-0.95-1.6
		c0-1.52,1.29-1.98,2.39-1.98c0.7,0,1.07,0.16,1.38,0.3c0.09-0.66,0.23-1.27,1.21-1.27c0.25,0,0.36,0.04,0.49,0.06V250.66z
		 M283.7,257.46c0,0.46,0.46,0.65,1.42,0.65c0.92,0,1.31-0.19,1.31-0.68c0-0.49-0.43-0.61-0.7-0.62c-0.21-0.03-1.24-0.09-1.47-0.12
		C284.05,256.79,283.7,256.98,283.7,257.46z M284.42,252.45c0,0.39,0.04,0.99,0.61,0.99c0.47,0,0.58-0.35,0.58-1.03
		c0-0.79-0.19-1.04-0.56-1.04C284.59,251.37,284.42,251.71,284.42,252.45z"/>
	<path d="M290.64,248.29v2.94c0.18-0.29,0.53-0.82,1.57-0.82c1.61,0,1.61,1.33,1.61,2.43v4.12h-1.78v-4.12c0-0.61,0-1.04-0.6-1.04
		c-0.78,0-0.81,0.57-0.81,1.09v4.07h-1.78v-8.67H290.64z"/>
	<path d="M304.34,248.29v1.5h-3.37v2h2.61v1.5h-2.61v2.13h3.37v1.55h-5.27v-8.67H304.34z"/>
	<path d="M307.08,250.55v0.87c0.26-0.53,0.6-1.01,1.6-1.01c0.25,0,0.97,0,1.42,0.68c0.26,0.4,0.26,1.03,0.26,1.66v4.21h-1.78v-4.21
		c0-0.57-0.05-0.95-0.61-0.95c-0.79,0-0.79,0.62-0.79,1.4v3.76h-1.78v-6.41H307.08z"/>
	<path d="M313.44,254.05c-0.01,0.87-0.03,1.81,0.86,1.81c0.77,0,0.86-0.69,0.91-1.1l1.6,0.1c-0.13,0.6-0.48,2.24-2.55,2.24
		c-1.96,0-2.67-1.55-2.67-3.25c0-0.42,0.05-1.43,0.48-2.21c0.46-0.82,1.3-1.22,2.17-1.22c1.12,0,1.81,0.62,2.09,1.17
		c0.46,0.87,0.47,1.69,0.47,2.47H313.44z M315.12,253.02c0.01-0.35,0.04-1.43-0.83-1.43c-0.81,0-0.82,0.98-0.83,1.43H315.12z"/>
	<path d="M319.69,250.55v1.55c0.16-0.55,0.47-1.64,1.51-1.64c0.13,0,0.22,0.01,0.31,0.04v1.74c-0.16-0.03-0.23-0.03-0.3-0.03
		c-1.31,0-1.31,1.48-1.31,1.98v2.77h-1.78v-6.41H319.69z"/>
	<path d="M327.83,250.66c-0.1-0.03-0.22-0.05-0.39-0.05c-0.21,0-0.56,0.03-0.68,0.58c0.48,0.49,0.48,1.14,0.48,1.29
		c0,1.29-1.09,1.92-2.31,1.92c-0.39,0-0.62-0.06-0.84-0.12c-0.42,0.23-0.42,0.48-0.42,0.53c0,0.35,0.38,0.38,1.07,0.43
		c1.46,0.08,1.9,0.1,2.35,0.43c0.49,0.34,0.66,0.87,0.66,1.42c0,1.99-2.09,2.13-3.13,2.13c-0.55,0-2.63,0-2.63-1.52
		c0-0.79,0.64-1.05,1.04-1.2c-0.21-0.1-0.83-0.39-0.83-1.1c0-0.78,0.68-1.17,1.1-1.42c-0.39-0.21-0.95-0.52-0.95-1.6
		c0-1.52,1.29-1.98,2.39-1.98c0.7,0,1.07,0.16,1.38,0.3c0.09-0.66,0.23-1.27,1.21-1.27c0.25,0,0.36,0.04,0.49,0.06V250.66z
		 M323.48,257.46c0,0.46,0.46,0.65,1.42,0.65c0.92,0,1.31-0.19,1.31-0.68c0-0.49-0.43-0.61-0.7-0.62c-0.21-0.03-1.24-0.09-1.47-0.12
		C323.83,256.79,323.48,256.98,323.48,257.46z M324.2,252.45c0,0.39,0.04,0.99,0.61,0.99c0.47,0,0.58-0.35,0.58-1.03
		c0-0.79-0.19-1.04-0.56-1.04C324.37,251.37,324.2,251.71,324.2,252.45z"/>
	<path d="M329.84,250.55l0.87,3.93l0.83-3.93h1.53l-1.92,6.53c-0.36,1.21-0.65,2.16-2.07,2.16c-0.35,0-0.55-0.05-0.77-0.1v-1.4
		c0.17,0.03,0.3,0.04,0.51,0.04c0.7,0,0.85-0.16,1.07-0.92l-1.83-6.29H329.84z"/>
	<path d="M340.06,248.29c0.91,0,1.86,0,2.51,0.66c0.6,0.62,0.73,1.46,0.73,2.05c0,0.86-0.23,1.73-0.91,2.25
		c-0.65,0.51-1.72,0.51-2.25,0.51h-0.68v3.2h-1.9v-8.67H340.06z M339.46,249.7v2.57h0.6c0.66,0,1.22-0.14,1.22-1.3
		c0-1.27-0.81-1.27-1.22-1.27H339.46z"/>
	<path d="M346.11,248.29v2.94c0.18-0.29,0.53-0.82,1.57-0.82c1.61,0,1.61,1.33,1.61,2.43v4.12h-1.78v-4.12c0-0.61,0-1.04-0.6-1.04
		c-0.78,0-0.81,0.57-0.81,1.09v4.07h-1.78v-8.67H346.11z"/>
	<path d="M351.62,250.55l0.87,3.93l0.83-3.93h1.53l-1.92,6.53c-0.36,1.21-0.65,2.16-2.07,2.16c-0.35,0-0.55-0.05-0.77-0.1v-1.4
		c0.17,0.03,0.3,0.04,0.51,0.04c0.7,0,0.85-0.16,1.07-0.92l-1.83-6.29H351.62z"/>
	<path d="M358.55,252.46c-0.1-0.33-0.29-0.87-0.94-0.87c-0.42,0-0.56,0.3-0.56,0.56c0,0.51,0.35,0.62,1.07,0.88
		c0.9,0.31,1.9,0.66,1.9,1.96c0,0.95-0.66,2.09-2.43,2.09c-2.11,0-2.33-1.43-2.41-1.91l1.42-0.23c0.05,0.25,0.21,0.96,1.01,0.96
		c0.18,0,0.72-0.04,0.72-0.6c0-0.51-0.39-0.64-1.03-0.85c-0.68-0.21-1.92-0.64-1.92-2.02s1.13-2.04,2.27-2.04
		c1.08,0,1.94,0.62,2.17,1.68L358.55,252.46z"/>
	<path d="M361.18,250.01v-1.77h1.81v1.77H361.18z M362.97,250.55v6.41h-1.78v-6.41H362.97z"/>
	<path d="M367.67,252.97c-0.07-0.92-0.29-1.2-0.7-1.2c-0.53,0-0.9,0.43-0.9,1.9c0,0.96,0.1,1.98,0.86,1.98
		c0.57,0,0.7-0.52,0.74-1.18l1.66,0.1c-0.08,0.66-0.27,2.52-2.51,2.52c-2.18,0-2.55-1.96-2.55-3.33c0-1.73,0.62-3.35,2.64-3.35
		c0.58,0,1.22,0.12,1.73,0.66c0.6,0.65,0.65,1.29,0.69,1.83L367.67,252.97z"/>
	<path d="M373.54,252.46c-0.1-0.33-0.29-0.87-0.94-0.87c-0.42,0-0.56,0.3-0.56,0.56c0,0.51,0.35,0.62,1.07,0.88
		c0.9,0.31,1.9,0.66,1.9,1.96c0,0.95-0.66,2.09-2.43,2.09c-2.11,0-2.33-1.43-2.41-1.91l1.42-0.23c0.05,0.25,0.21,0.96,1.01,0.96
		c0.18,0,0.72-0.04,0.72-0.6c0-0.51-0.39-0.64-1.03-0.85c-0.68-0.21-1.92-0.64-1.92-2.02s1.13-2.04,2.27-2.04
		c1.08,0,1.94,0.62,2.17,1.68L373.54,252.46z"/>
</g>
<linearGradient id="SVGID_4_" gradientUnits="userSpaceOnUse" x1="136.2314" y1="184.499" x2="181.4584" y2="184.499">
	<stop  offset="0" style="stop-color:#2BC4F3"/>
	<stop  offset="0.5" style="stop-color:#00AEEE"/>
	<stop  offset="1" style="stop-color:#0095DA"/>
</linearGradient>
<ellipse class="st5" cx="158.84" cy="184.5" rx="22.61" ry="22.86"/>
<linearGradient id="SVGID_5_" gradientUnits="userSpaceOnUse" x1="140.3149" y1="184.7627" x2="177.4247" y2="184.7627" gradientTransform="matrix(-6.731633e-03 1 -1 -6.731633e-03 344.6977 27.1403)">
	<stop  offset="0" style="stop-color:#2BC4F3"/>
	<stop  offset="0.5" style="stop-color:#00AEEE"/>
	<stop  offset="1" style="stop-color:#0095DA"/>
</linearGradient>
<path class="st6" d="M158.74,203.32c-10.36-0.07-18.7-8.43-18.63-18.68c0.07-10.25,8.52-18.5,18.88-18.43
	c10.36,0.07,18.7,8.43,18.63,18.68C177.56,195.14,169.1,203.39,158.74,203.32z"/>
<g>
	<g>
		<defs>
			<rect id="SVGID_6_" x="120.28" y="135.03" width="109.75" height="147.68"/>
		</defs>
		<clipPath id="SVGID_7_">
			<use xlink:href="#SVGID_6_"  style="overflow:visible;"/>
		</clipPath>
		<g class="st7">
			<defs>
				<rect id="SVGID_8_" x="120.28" y="135.03" width="109.75" height="147.68"/>
			</defs>
			<clipPath id="SVGID_9_">
				<use xlink:href="#SVGID_8_"  style="overflow:visible;"/>
			</clipPath>
			<path class="st8" d="M144.43,161.29l3.71,6.23l10.6,16.85l-23.5-13.2C135.24,171.17,137.96,165.84,144.43,161.29"/>
			<path class="st8" d="M185.48,180.33l-22.82,5.11c0,0,20.95,2.18,23.21,2.99C185.87,188.43,186.18,180.89,185.48,180.33"/>
			<path class="st8" d="M160.16,191.58c0,0,3.64,15.79,4.11,15.79l-3.96,0.22L160.16,191.58z"/>
		</g>
	</g>
</g>
<g>
	<g>
		<defs>
			<rect id="SVGID_10_" x="117.28" y="131.45" width="119.65" height="158.28"/>
		</defs>
		<clipPath id="SVGID_11_">
			<use xlink:href="#SVGID_10_"  style="overflow:visible;"/>
		</clipPath>
		<g class="st9">
			<defs>
				<rect id="SVGID_12_" x="117.28" y="131.45" width="119.65" height="158.28"/>
			</defs>
			<clipPath id="SVGID_13_">
				<use xlink:href="#SVGID_12_"  style="overflow:visible;"/>
			</clipPath>
			<path class="st10" d="M145.01,158.77c0,0,3.44,10.29,4.2,11.07c0,0-6.11-8.85-6.37-9.64l-1.53,1.3l7.9,11.07l-9.17-10.29
				l-1.27,1.3l9.51,9.9l-5.69-5.03l-0.93,1.04l6.2,5.9l-6.79-5.12l-0.93,1.39l13.59,9.72c0,0-13.16-5.82-22.34-6.34l-0.76,2.69
				c0,0,13.42,1.04,25.9,7.38c0,0-8.58,1.82-9.09,2.34l0.51,2.78c0,0,5.77-3.13,10.45-3.99c0,0,2.46,3.99-0.42,23.27l2.97,0.43
				c0,0,0.34-12.76,0-14.32c0,0,1.61,8.33,3.48,11.29l2.72-0.61c0,0-4.16-7.47-6.03-18.06c0,0,4.59,4.69,6.03,6.94l1.27-0.78
				c0,0-4.76-5.73-7.73-8.07c0,0,7.98,6.94,9.34,8.51l1.1-1.48c0,0-8.24-6.16-8.92-6.68c0,0,12.65,1.3,25.73,5.9l0.85-3.91
				c0,0-16.22-2.94-21.57-3.21c-5.35-0.26,19.11-0.26,21.57,0.34v-2.08c0,0-8.34,0.3-11.69,0.63c0,0,10.24-1.58,11.69-1.41v-1.74
				c0,0-10.62,1.13-13.93,2c0,0,11.72-3.82,13.33-4.86l-1.19-3.47c0,0-9.94,7.51-26.07,9.48c0,0,7.05-11.74,7.39-27.8l-3.4-0.95
				c0,0,0.79,13.02-5.72,27.17c0,0-9.48-11.2-11.35-25.09L145.01,158.77z"/>
		</g>
	</g>
</g>
</svg>
