<?xml version="1.0" encoding="UTF-8" standalone="no"?>
<!-- Generator: Adobe Illustrator 23.0.2, SVG Export Plug-In . SVG Version: 6.00 Build 0)  -->

<svg
   version="1.1"
   id="Layer_1"
   x="0px"
   y="0px"
   viewBox="0 0 116.38725 116.54973"
   xml:space="preserve"
   sodipodi:docname="Iris-hep-5-just-graphic.svg"
   width="116.38725"
   height="116.54973"
   xmlns:inkscape="http://www.inkscape.org/namespaces/inkscape"
   xmlns:sodipodi="http://sodipodi.sourceforge.net/DTD/sodipodi-0.dtd"
   xmlns:xlink="http://www.w3.org/1999/xlink"
   xmlns="http://www.w3.org/2000/svg"
   xmlns:svg="http://www.w3.org/2000/svg"><defs
   id="defs19" /><sodipodi:namedview
   id="namedview19"
   pagecolor="#ffffff"
   bordercolor="#000000"
   borderopacity="0.25"
   inkscape:showpageshadow="2"
   inkscape:pageopacity="0.0"
   inkscape:pagecheckerboard="0"
   inkscape:deskcolor="#d1d1d1" />
<style
   type="text/css"
   id="style1">
	.st0{fill:url(#SVGID_1_);stroke:#575195;stroke-width:1.7;stroke-miterlimit:10;}
	.st1{fill:#0082CA;}
	.st2{fill:#575195;}
	.st3{fill:#270089;}
	.st4{fill:#8A84D6;}
	.st5{fill:url(#SVGID_4_);}
	.st6{fill:url(#SVGID_5_);}
	.st7{clip-path:url(#SVGID_7_);}
	.st8{clip-path:url(#SVGID_9_);fill:#A7A9AC;}
	.st9{clip-path:url(#SVGID_11_);}
	.st10{clip-path:url(#SVGID_13_);fill:#FFFFFF;}
</style>
<linearGradient
   id="SVGID_1_"
   gradientUnits="userSpaceOnUse"
   x1="132.30479"
   y1="184.7366"
   x2="185.43469"
   y2="184.7366"
   gradientTransform="translate(-103.25262,-126.25749)">
	<stop
   offset="0"
   style="stop-color:#7C76B7"
   id="stop1" />
	<stop
   offset="0.5"
   style="stop-color:#6561AB"
   id="stop2" />
	<stop
   offset="1"
   style="stop-color:#483F99"
   id="stop3" />
</linearGradient>
<ellipse
   class="st0"
   cx="55.617378"
   cy="58.482521"
   rx="26.559999"
   ry="26.85"
   id="ellipse3"
   style="fill:url(#SVGID_1_)" />
<g
   id="g3"
   transform="translate(-103.25262,-126.25749)">
	<defs
   id="defs3">
		<rect
   id="SVGID_2_"
   x="122.68"
   y="151.11"
   width="74.339996"
   height="64.959999" />
	</defs>
	<clipPath
   id="SVGID_3_">
		<use
   xlink:href="#SVGID_2_"
   style="overflow:visible"
   id="use3" />
	</clipPath>
</g>
<path
   class="st1"
   d="m 13.927382,30.792514 c 0,0 0.15,-0.24 0.46,-0.68 2.78,-3.94 18.28,-23.5399996 50.6,-21.1299996 0,0 37.039998,2.6799996 40.969998,47.6499996 0,0 1.68,38.27 -38.159998,50.709996 0,0 -67.33999992,9.57 -56.12,-59.899996 h 2.25 c 0,0 -3.9299999,43.06 27.5,52.24 0,0 53.31,10.959996 58.36,-41.41 0,0 -1.68,-34.44 -24.69,-40.15 0,0 -33.67,-12.0199996 -57.8,17.26"
   id="path3" />
<path
   class="st2"
   d="m 85.667382,79.082514 c 0,0 -0.11,0.18 -0.34,0.49 -2.04,2.81 -13.38,16.76 -36.21,14.41 0,0 -26.16,-2.63 -28.09,-35.36 0,0 -0.46,-27.82 27.97,-36.11 0,0 47.84,-5.7 38.58,44.53 l -1.59,-0.04 c 0,0 3.6,-31.19 -18.47,-38.44 0,0 -37.52,-8.95 -42.09,28.98 0,0 0.54,25.04 16.71,29.61 0,0 23.6,9.35 41.23,-11.46"
   id="path4" />
<path
   class="st3"
   d="m 16.177382,75.302514 c 0,0 -0.09,-0.22 -0.24,-0.65 -1.31,-3.82 -6.9799999,-23.99 10.53,-45.51 0,0 20.01,-24.7099996 52.4,-6.13 0,0 26.759998,16.98 15.62,50.82 0,0 -26.59,51.769996 -68.14,10.94 l 1.1,-1.57 c 0,0 27.24,23.179996 48.9,5.5 0,0 33.599998,-32.19 0.6,-60.57 0,0 -24.16,-15.16 -39.33,-1.73 0,0 -24.68,17.91 -16.69,48.72"
   id="path5" />
<path
   class="st4"
   d="m 80.327382,113.07251 c 0,0 -0.31,0.14 -0.9,0.35 -5.3,1.96 -33.29,10.58 -62.38,-13.26 0,0 -33.39,-27.229996 -6.71,-73.279996 0,0 24.28,-38.09 70.56,-23.5899996 0,0 70.459998,35.5699996 12.82,95.1899996 l -2.13,-1.49 c 0,0 32.849998,-38.97 9.199998,-68.75 0,0 -43.249998,-46.05 -83.459998,1.16 0,0 -21.6899999,34.39 -3.69,55.21 0,0 23.87,34.009996 66.6,21.789996"
   id="path6" />
<linearGradient
   id="SVGID_4_"
   gradientUnits="userSpaceOnUse"
   x1="136.2314"
   y1="184.49899"
   x2="181.4584"
   y2="184.49899"
   gradientTransform="translate(-103.25262,-126.25749)">
	<stop
   offset="0"
   style="stop-color:#2BC4F3"
   id="stop6" />
	<stop
   offset="0.5"
   style="stop-color:#00AEEE"
   id="stop7" />
	<stop
   offset="1"
   style="stop-color:#0095DA"
   id="stop8" />
</linearGradient>
<ellipse
   class="st5"
   cx="55.587379"
   cy="58.242516"
   rx="22.610001"
   ry="22.860001"
   id="ellipse8"
   style="fill:url(#SVGID_4_)" />
<linearGradient
   id="SVGID_5_"
   gradientUnits="userSpaceOnUse"
   x1="140.3149"
   y1="184.7627"
   x2="177.4247"
   y2="184.7627"
   gradientTransform="matrix(-0.00673163,1,-1,-0.00673163,241.44508,-99.117186)">
	<stop
   offset="0"
   style="stop-color:#2BC4F3"
   id="stop9" />
	<stop
   offset="0.5"
   style="stop-color:#00AEEE"
   id="stop10" />
	<stop
   offset="1"
   style="stop-color:#0095DA"
   id="stop11" />
</linearGradient>
<path
   class="st6"
   d="m 55.487382,77.062514 c -10.36,-0.07 -18.7,-8.43 -18.63,-18.68 0.07,-10.25 8.52,-18.5 18.88,-18.43 10.36,0.07 18.7,8.43 18.63,18.68 -0.06,10.25 -8.52,18.5 -18.88,18.43 z"
   id="path11"
   style="fill:url(#SVGID_5_)" />
<g
   id="g16"
   transform="translate(-103.25262,-126.25749)">
	<g
   id="g15">
		<defs
   id="defs11">
			<rect
   id="SVGID_6_"
   x="120.28"
   y="135.03"
   width="109.75"
   height="147.67999" />
		</defs>
		<clipPath
   id="SVGID_7_">
			<use
   xlink:href="#SVGID_6_"
   style="overflow:visible"
   id="use11" />
		</clipPath>
		<g
   class="st7"
   clip-path="url(#SVGID_7_)"
   id="g14">
			<defs
   id="defs12">
				<rect
   id="SVGID_8_"
   x="120.28"
   y="135.03"
   width="109.75"
   height="147.67999" />
			</defs>
			<clipPath
   id="SVGID_9_">
				<use
   xlink:href="#SVGID_8_"
   style="overflow:visible"
   id="use12" />
			</clipPath>
			<path
   class="st8"
   d="m 144.43,161.29 3.71,6.23 10.6,16.85 -23.5,-13.2 c 0,0 2.72,-5.33 9.19,-9.88"
   clip-path="url(#SVGID_9_)"
   id="path12" />
			<path
   class="st8"
   d="m 185.48,180.33 -22.82,5.11 c 0,0 20.95,2.18 23.21,2.99 0,0 0.31,-7.54 -0.39,-8.1"
   clip-path="url(#SVGID_9_)"
   id="path13" />
			<path
   class="st8"
   d="m 160.16,191.58 c 0,0 3.64,15.79 4.11,15.79 l -3.96,0.22 z"
   clip-path="url(#SVGID_9_)"
   id="path14" />
		</g>
	</g>
</g>
<g
   id="g19"
   transform="translate(-103.25262,-126.25749)">
	<g
   id="g18">
		<defs
   id="defs16">
			<rect
   id="SVGID_10_"
   x="117.28"
   y="131.45"
   width="119.65"
   height="158.28" />
		</defs>
		<clipPath
   id="SVGID_11_">
			<use
   xlink:href="#SVGID_10_"
   style="overflow:visible"
   id="use16" />
		</clipPath>
		<g
   class="st9"
   clip-path="url(#SVGID_11_)"
   id="g17">
			<defs
   id="defs17">
				<rect
   id="SVGID_12_"
   x="117.28"
   y="131.45"
   width="119.65"
   height="158.28" />
			</defs>
			<clipPath
   id="SVGID_13_">
				<use
   xlink:href="#SVGID_12_"
   style="overflow:visible"
   id="use17" />
			</clipPath>
			<path
   class="st10"
   d="m 145.01,158.77 c 0,0 3.44,10.29 4.2,11.07 0,0 -6.11,-8.85 -6.37,-9.64 l -1.53,1.3 7.9,11.07 -9.17,-10.29 -1.27,1.3 9.51,9.9 -5.69,-5.03 -0.93,1.04 6.2,5.9 -6.79,-5.12 -0.93,1.39 13.59,9.72 c 0,0 -13.16,-5.82 -22.34,-6.34 l -0.76,2.69 c 0,0 13.42,1.04 25.9,7.38 0,0 -8.58,1.82 -9.09,2.34 l 0.51,2.78 c 0,0 5.77,-3.13 10.45,-3.99 0,0 2.46,3.99 -0.42,23.27 l 2.97,0.43 c 0,0 0.34,-12.76 0,-14.32 0,0 1.61,8.33 3.48,11.29 l 2.72,-0.61 c 0,0 -4.16,-7.47 -6.03,-18.06 0,0 4.59,4.69 6.03,6.94 l 1.27,-0.78 c 0,0 -4.76,-5.73 -7.73,-8.07 0,0 7.98,6.94 9.34,8.51 l 1.1,-1.48 c 0,0 -8.24,-6.16 -8.92,-6.68 0,0 12.65,1.3 25.73,5.9 l 0.85,-3.91 c 0,0 -16.22,-2.94 -21.57,-3.21 -5.35,-0.26 19.11,-0.26 21.57,0.34 v -2.08 c 0,0 -8.34,0.3 -11.69,0.63 0,0 10.24,-1.58 11.69,-1.41 v -1.74 c 0,0 -10.62,1.13 -13.93,2 0,0 11.72,-3.82 13.33,-4.86 L 187,174.87 c 0,0 -9.94,7.51 -26.07,9.48 0,0 7.05,-11.74 7.39,-27.8 l -3.4,-0.95 c 0,0 0.79,13.02 -5.72,27.17 0,0 -9.48,-11.2 -11.35,-25.09 z"
   clip-path="url(#SVGID_13_)"
   id="path17" />
		</g>
	</g>
</g>
</svg>
