<?xml version="1.0" encoding="utf-8"?>
<!-- Generator: Adobe Illustrator 23.0.2, SVG Export Plug-In . SVG Version: 6.00 Build 0)  -->
<svg version="1.1" id="Layer_1" xmlns="http://www.w3.org/2000/svg" xmlns:xlink="http://www.w3.org/1999/xlink" x="0px" y="0px"
	 viewBox="0 0 612 792" style="enable-background:new 0 0 612 792;" xml:space="preserve">
<style type="text/css">
	.st0{fill:url(#SVGID_1_);stroke:#575195;stroke-width:1.7;stroke-miterlimit:10;}
	.st1{fill:#0082CA;}
	.st2{fill:#575195;}
	.st3{fill:#270089;}
	.st4{fill:#8A84D6;}
	.st5{fill:url(#SVGID_4_);}
	.st6{fill:url(#SVGID_5_);}
	.st7{clip-path:url(#SVGID_7_);}
	.st8{clip-path:url(#SVGID_9_);fill:#A7A9AC;}
	.st9{clip-path:url(#SVGID_11_);}
	.st10{clip-path:url(#SVGID_13_);fill:#FFFFFF;}
</style>
<linearGradient id="SVGID_1_" gradientUnits="userSpaceOnUse" x1="132.3048" y1="184.7366" x2="185.4347" y2="184.7366">
	<stop  offset="0" style="stop-color:#7C76B7"/>
	<stop  offset="0.5" style="stop-color:#6561AB"/>
	<stop  offset="1" style="stop-color:#483F99"/>
</linearGradient>
<ellipse class="st0" cx="158.87" cy="184.74" rx="26.56" ry="26.85"/>
<g>
	<defs>
		<rect id="SVGID_2_" x="122.68" y="151.11" width="74.34" height="64.96"/>
	</defs>
	<clipPath id="SVGID_3_">
		<use xlink:href="#SVGID_2_"  style="overflow:visible;"/>
	</clipPath>
</g>
<path class="st1" d="M117.18,157.05c0,0,0.15-0.24,0.46-0.68c2.78-3.94,18.28-23.54,50.6-21.13c0,0,37.04,2.68,40.97,47.65
	c0,0,1.68,38.27-38.16,50.71c0,0-67.34,9.57-56.12-59.9h2.25c0,0-3.93,43.06,27.5,52.24c0,0,53.31,10.96,58.36-41.41
	c0,0-1.68-34.44-24.69-40.15c0,0-33.67-12.02-57.8,17.26"/>
<path class="st2" d="M188.92,205.34c0,0-0.11,0.18-0.34,0.49c-2.04,2.81-13.38,16.76-36.21,14.41c0,0-26.16-2.63-28.09-35.36
	c0,0-0.46-27.82,27.97-36.11c0,0,47.84-5.7,38.58,44.53l-1.59-0.04c0,0,3.6-31.19-18.47-38.44c0,0-37.52-8.95-42.09,28.98
	c0,0,0.54,25.04,16.71,29.61c0,0,23.6,9.35,41.23-11.46"/>
<path class="st3" d="M119.43,201.56c0,0-0.09-0.22-0.24-0.65c-1.31-3.82-6.98-23.99,10.53-45.51c0,0,20.01-24.71,52.4-6.13
	c0,0,26.76,16.98,15.62,50.82c0,0-26.59,51.77-68.14,10.94l1.1-1.57c0,0,27.24,23.18,48.9,5.5c0,0,33.6-32.19,0.6-60.57
	c0,0-24.16-15.16-39.33-1.73c0,0-24.68,17.91-16.69,48.72"/>
<path class="st4" d="M183.58,239.33c0,0-0.31,0.14-0.9,0.35c-5.3,1.96-33.29,10.58-62.38-13.26c0,0-33.39-27.23-6.71-73.28
	c0,0,24.28-38.09,70.56-23.59c0,0,70.46,35.57,12.82,95.19l-2.13-1.49c0,0,32.85-38.97,9.2-68.75c0,0-43.25-46.05-83.46,1.16
	c0,0-21.69,34.39-3.69,55.21c0,0,23.87,34.01,66.6,21.79"/>
<g>
	<path class="st4" d="M227.05,138.96v-5.95h5.53v5.95H227.05z M232.37,145.05v34.51h-5.11v-34.51H232.37z"/>
	<path class="st4" d="M247.56,145.05v7.21c0.98-2.45,3.36-8.61,9.94-8.12v5.74c-5.67-0.63-9.38,3.29-9.38,11.83v17.85h-5.11v-34.51
		H247.56z"/>
	<path class="st4" d="M262.12,138.96v-5.95h5.53v5.95H262.12z M267.44,145.05v34.51h-5.11v-34.51H267.44z"/>
	<path class="st4" d="M293.62,153.94c-0.56-1.47-1.96-5.6-6.72-5.6c-4.06,0-5.95,2.8-5.95,5.32c0,3.5,2.38,4.27,8.05,5.95
		c4.41,1.4,10.57,3.43,10.57,10.36c0,4.97-3.78,10.57-12.53,10.57c-10.36,0-11.83-7.28-12.39-9.87l4.76-1.05
		c0.35,1.82,1.33,6.65,7.98,6.65c4.97,0,6.86-3.22,6.86-5.67c0-3.85-3.64-4.97-6.72-5.95c-5.88-1.82-8.26-2.73-9.94-5.18
		c-1.05-1.47-1.68-3.22-1.68-5.11c0-4.13,3.36-10.29,11.27-10.29c8.4,0,10.22,6.23,10.92,8.75L293.62,153.94z"/>
</g>
<g>
	<path class="st1" d="M240.83,179.94v16.5c0.59-1.72,2.18-5.94,8.12-5.94c3.37,0,6.2,1.52,7.59,4.09c1.12,2.18,1.12,5.61,1.12,9.17
		v20.19h-4.82v-20.19c0-4.42,0-9.24-5.28-9.24c-6.07,0-6.73,8.38-6.73,12.41v17.03h-4.82v-44.02H240.83z"/>
	<path class="st1" d="M269.8,208.32c0,2.84-0.07,12.54,7.59,12.54c4.62,0,5.87-4.03,6.6-6.53l4.55,1.06
		c-2.05,7.59-6.73,9.5-11.42,9.5c-9.31,0-12.41-8.18-12.41-16.7c0-12.21,5.81-17.69,12.67-17.69c7.33,0,11.42,5.61,11.62,17.82
		H269.8z M283.53,204.36c0-4.88-1.52-9.83-6.67-9.83c-4.95,0-6.4,5.21-6.8,9.83H283.53z"/>
	<path class="st1" d="M299.96,191.42v5.68c0.86-1.98,2.71-6.34,8.65-6.34c7,0,11.42,6.47,11.42,16.5c0,3.3-0.73,17.36-11.42,17.36
		c-4.82,0-6.53-2.24-8.18-4.88v15.24h-4.82v-43.56H299.96z M300.42,210.17c0,2.71,0,5.21,1.78,7.59c1.32,1.78,3.1,2.84,5.35,2.84
		c2.18,0,3.83-0.79,5.21-3.23c1.58-2.77,1.91-7.06,1.91-9.83c0-4.69-0.99-12.74-7.13-12.74c-1.91,0-3.96,0.59-5.61,3.56
		c-1.52,2.71-1.52,4.75-1.52,6.93V210.17z"/>
</g>
<linearGradient id="SVGID_4_" gradientUnits="userSpaceOnUse" x1="136.2314" y1="184.499" x2="181.4584" y2="184.499">
	<stop  offset="0" style="stop-color:#2BC4F3"/>
	<stop  offset="0.5" style="stop-color:#00AEEE"/>
	<stop  offset="1" style="stop-color:#0095DA"/>
</linearGradient>
<ellipse class="st5" cx="158.84" cy="184.5" rx="22.61" ry="22.86"/>
<linearGradient id="SVGID_5_" gradientUnits="userSpaceOnUse" x1="140.3149" y1="184.7627" x2="177.4247" y2="184.7627" gradientTransform="matrix(-6.731633e-03 1 -1 -6.731633e-03 344.6977 27.1403)">
	<stop  offset="0" style="stop-color:#2BC4F3"/>
	<stop  offset="0.5" style="stop-color:#00AEEE"/>
	<stop  offset="1" style="stop-color:#0095DA"/>
</linearGradient>
<path class="st6" d="M158.74,203.32c-10.36-0.07-18.7-8.43-18.63-18.68c0.07-10.25,8.52-18.5,18.88-18.43
	c10.36,0.07,18.7,8.43,18.63,18.68C177.56,195.14,169.1,203.39,158.74,203.32z"/>
<g>
	<g>
		<defs>
			<rect id="SVGID_6_" x="120.28" y="135.03" width="109.75" height="147.68"/>
		</defs>
		<clipPath id="SVGID_7_">
			<use xlink:href="#SVGID_6_"  style="overflow:visible;"/>
		</clipPath>
		<g class="st7">
			<defs>
				<rect id="SVGID_8_" x="120.28" y="135.03" width="109.75" height="147.68"/>
			</defs>
			<clipPath id="SVGID_9_">
				<use xlink:href="#SVGID_8_"  style="overflow:visible;"/>
			</clipPath>
			<path class="st8" d="M144.43,161.29l3.71,6.23l10.6,16.85l-23.5-13.2C135.24,171.17,137.96,165.84,144.43,161.29"/>
			<path class="st8" d="M185.48,180.33l-22.82,5.11c0,0,20.95,2.18,23.21,2.99C185.87,188.43,186.18,180.89,185.48,180.33"/>
			<path class="st8" d="M160.16,191.58c0,0,3.64,15.79,4.11,15.79l-3.96,0.22L160.16,191.58z"/>
		</g>
	</g>
</g>
<g>
	<g>
		<defs>
			<rect id="SVGID_10_" x="117.28" y="131.45" width="119.65" height="158.28"/>
		</defs>
		<clipPath id="SVGID_11_">
			<use xlink:href="#SVGID_10_"  style="overflow:visible;"/>
		</clipPath>
		<g class="st9">
			<defs>
				<rect id="SVGID_12_" x="117.28" y="131.45" width="119.65" height="158.28"/>
			</defs>
			<clipPath id="SVGID_13_">
				<use xlink:href="#SVGID_12_"  style="overflow:visible;"/>
			</clipPath>
			<path class="st10" d="M145.01,158.77c0,0,3.44,10.29,4.2,11.07c0,0-6.11-8.85-6.37-9.64l-1.53,1.3l7.9,11.07l-9.17-10.29
				l-1.27,1.3l9.51,9.9l-5.69-5.03l-0.93,1.04l6.2,5.9l-6.79-5.12l-0.93,1.39l13.59,9.72c0,0-13.16-5.82-22.34-6.34l-0.76,2.69
				c0,0,13.42,1.04,25.9,7.38c0,0-8.58,1.82-9.09,2.34l0.51,2.78c0,0,5.77-3.13,10.45-3.99c0,0,2.46,3.99-0.42,23.27l2.97,0.43
				c0,0,0.34-12.76,0-14.32c0,0,1.61,8.33,3.48,11.29l2.72-0.61c0,0-4.16-7.47-6.03-18.06c0,0,4.59,4.69,6.03,6.94l1.27-0.78
				c0,0-4.76-5.73-7.73-8.07c0,0,7.98,6.94,9.34,8.51l1.1-1.48c0,0-8.24-6.16-8.92-6.68c0,0,12.65,1.3,25.73,5.9l0.85-3.91
				c0,0-16.22-2.94-21.57-3.21c-5.35-0.26,19.11-0.26,21.57,0.34v-2.08c0,0-8.34,0.3-11.69,0.63c0,0,10.24-1.58,11.69-1.41v-1.74
				c0,0-10.62,1.13-13.93,2c0,0,11.72-3.82,13.33-4.86l-1.19-3.47c0,0-9.94,7.51-26.07,9.48c0,0,7.05-11.74,7.39-27.8l-3.4-0.95
				c0,0,0.79,13.02-5.72,27.17c0,0-9.48-11.2-11.35-25.09L145.01,158.77z"/>
		</g>
	</g>
</g>
</svg>
