<?xml version="1.0" encoding="UTF-8"?>
<svg id="Layer_2" data-name="Layer 2" xmlns="http://www.w3.org/2000/svg" xmlns:xlink="http://www.w3.org/1999/xlink" viewBox="0 0 407.21 145.52">
  <defs>
    <style>
      .cls-1 {
        fill: aqua;
      }

      .cls-2 {
        fill: #00245a;
      }

      .cls-3, .cls-4 {
        fill: #fff;
      }

      .cls-4 {
        stroke-width: 2px;
      }

      .cls-4, .cls-5 {
        stroke: #fff;
        stroke-miterlimit: 10;
      }

      .cls-6 {
        filter: url(#drop-shadow-1);
      }

      .cls-5 {
        fill: none;
        stroke-width: .75px;
      }
    </style>
    <filter id="drop-shadow-1" filterUnits="userSpaceOnUse">
      <feOffset dx="7" dy="7"/>
      <feGaussianBlur result="blur" stdDeviation="3"/>
      <feFlood flood-color="#000" flood-opacity=".4"/>
      <feComposite in2="blur" operator="in"/>
      <feComposite in="SourceGraphic"/>
    </filter>
  </defs>
  <g id="Layer_2-2" data-name="Layer 2">
    <g>
      <g>
        <rect class="cls-2" x=".38" y=".38" width="406.46" height="144.77"/>
        <rect class="cls-5" x=".38" y=".38" width="406.46" height="144.77"/>
      </g>
      <g class="cls-6">
        <path class="cls-4" d="M35.49,112.46c-1.16,0-2.16-.38-3-1.15-.84-.76-1.27-1.67-1.27-2.72v-34.63c0-3.71,1.28-7.05,3.83-10.02,3.18-3.62,7.59-5.43,13.23-5.43h12.72c4.1,0,7.78,1.16,11.06,3.47,3.95,2.79,5.93,6.79,5.93,11.98,0,3.8-.82,7.51-2.46,11.13-2.02,4.5-5.06,8.12-9.11,10.87-4.87,3.32-10.92,4.98-18.15,4.98-1.21,0-2.22-.37-3.04-1.11-.82-.74-1.23-1.66-1.23-2.75s.41-2.01,1.23-2.75c.82-.74,1.83-1.11,3.04-1.11,6.8,0,12.03-1.86,15.69-5.57,3.71-3.75,5.57-8.31,5.57-13.68,0-3.01-1.18-5.17-3.54-6.48-1.49-.83-3.16-1.24-4.99-1.24h-12.72c-3.33,0-5.71,1.07-7.16,3.21-.92,1.35-1.37,2.86-1.37,4.52v34.63c0,1.09-.41,2.01-1.23,2.75-.82,.74-1.83,1.11-3.04,1.11Z"/>
        <path class="cls-3" d="M132.99,40.54c0,1.72-.64,3.16-1.93,4.32-1.29,1.17-2.84,1.75-4.66,1.75h-20.01c-3.11,0-5.72,.62-7.84,1.85-3.71,2.06-5.57,5.49-5.57,10.29s1.82,8.17,5.46,10.09c2.35,1.3,5,1.96,7.96,1.96,1.82,0,3.37,.58,4.66,1.75,1.29,1.17,1.93,2.61,1.93,4.32s-.64,3.16-1.93,4.32c-1.29,1.17-2.84,1.75-4.66,1.75-6.44,0-12.24-1.82-17.39-5.46-6.29-4.46-9.44-10.71-9.44-18.73s3.11-14.45,9.32-18.84c5.15-3.64,10.99-5.46,17.51-5.46h20.01c1.82,0,3.37,.58,4.66,1.75s1.93,2.61,1.93,4.32Z"/>
        <path class="cls-3" d="M79.68,95.05c0-1.72,.64-3.16,1.93-4.32,1.29-1.17,2.84-1.75,4.66-1.75h28.4c3.11,0,5.72-.62,7.84-1.85,3.71-2.06,5.57-5.49,5.57-10.29s-1.82-8.17-5.46-10.09c-2.35-1.3-5-1.96-7.96-1.96-1.82,0-3.37-.58-4.66-1.75-1.29-1.17-1.93-2.61-1.93-4.32s.64-3.16,1.93-4.32c1.29-1.17,2.84-1.75,4.66-1.75,6.44,0,12.24,1.82,17.39,5.46,6.29,4.46,9.44,10.71,9.44,18.73s-3.11,14.45-9.32,18.84c-5.15,3.64-10.99,5.46-17.51,5.46h-28.4c-1.82,0-3.37-.58-4.66-1.75s-1.93-2.61-1.93-4.32Z"/>
        <path class="cls-3" d="M173.23,101.12c-1.81,0-3.36-.58-4.64-1.74-1.28-1.16-1.93-2.6-1.93-4.31V58.88c0-6.02,1.96-11.24,5.89-15.69,4.91-5.67,11.81-8.51,20.72-8.51,6.72,0,11.06,1.88,13.4,3.05,7.97,4,10.47,7.5,14.58,13.36,5.16,7.35,8.61,15.52,8.61,25.84,0,5.81-2,11.04-6,15.69-4.98,5.67-11.89,8.51-20.72,8.51h-13.46c-1.89,0-3.47-.58-4.76-1.74-1.28-1.16-1.92-2.6-1.92-4.31s.64-3.14,1.92-4.31,2.87-1.74,4.76-1.74h13.46c5.21,0,8.94-1.68,11.21-5.02,1.44-2.12,2.15-4.48,2.15-7.07,0-9.64-5.82-21.91-8.71-24.45-2.26-1.99-5.22-5.69-14.51-5.69-5.21,0-8.95,1.67-11.21,5.02-1.43,2.12-2.15,4.48-2.15,7.07v36.19c0,1.71-.64,3.14-1.92,4.31-1.28,1.16-2.87,1.74-4.76,1.74Z"/>
        <path class="cls-4" d="M319.26,62.23c0,1.09-.41,2.01-1.23,2.75-.82,.74-1.81,1.11-2.96,1.11l-19.15,.22c-1.98,0-3.64,.39-4.99,1.18-2.36,1.31-3.54,3.49-3.54,6.55s1.16,5.19,3.47,6.42c1.49,.83,3.18,1.24,5.06,1.24,1.16,0,2.14,.37,2.96,1.11,.82,.74,1.23,1.66,1.23,2.75s-.41,2.01-1.23,2.75c-.82,.74-1.81,1.11-2.96,1.11-4.1,0-7.78-1.16-11.06-3.47-4-2.84-6-6.81-6-11.92s1.98-9.19,5.93-11.98c3.28-2.31,6.99-3.47,11.13-3.47l19.15-.22c1.16,0,2.14,.37,2.96,1.11s1.23,1.66,1.23,2.75Zm-40.4,35.02c0-1.09,.41-2.01,1.23-2.75,.82-.74,1.81-1.11,2.96-1.11l19.15-.22c1.98,0,3.64-.39,4.99-1.18,2.36-1.31,3.54-3.49,3.54-6.55s-1.16-5.19-3.47-6.42c-1.49-.83-3.18-1.24-5.06-1.24-1.16,0-2.14-.37-2.96-1.11-.82-.74-1.23-1.66-1.23-2.75s.41-2.01,1.23-2.75c.82-.74,1.81-1.11,2.96-1.11,4.1,0,7.78,1.16,11.06,3.47,4,2.84,6,6.81,6,11.92s-1.98,9.19-5.93,11.98c-3.28,2.31-6.99,3.47-11.13,3.47l-19.15,.22c-1.16,0-2.14-.37-2.96-1.11s-1.23-1.66-1.23-2.75Z"/>
        <path class="cls-4" d="M329.13,47.17c1.2,0,2.22,.37,3.04,1.11,.82,.74,1.23,1.66,1.23,2.75v34.63c0,1.09-.41,2.01-1.23,2.75s-1.83,1.11-3.04,1.11-2.16-.38-3-1.15c-.84-.76-1.27-1.67-1.27-2.72V51.04c0-1.09,.41-2.01,1.23-2.75,.82-.74,1.83-1.11,3.04-1.11Zm-4.27,50.08c0-1.09,.41-2.01,1.23-2.75s1.83-1.11,3.04-1.11c1.93,0,3.59-.39,4.99-1.18,2.36-1.31,3.54-3.49,3.54-6.55v-11.52c0-3.84,1.25-7.18,3.76-10.02,3.13-3.62,7.54-5.43,13.23-5.43s10.07,1.79,13.16,5.37c2.55,2.97,3.83,6.33,3.83,10.08v23.11c0,1-.41,1.9-1.23,2.68s-1.81,1.18-2.96,1.18-2.22-.37-3.04-1.11c-.82-.74-1.23-1.66-1.23-2.75v-23.11c0-1.75-.43-3.25-1.3-4.52-1.45-2.14-3.86-3.21-7.23-3.21s-5.71,1.07-7.16,3.21c-.92,1.35-1.37,2.86-1.37,4.52v11.52c0,5.19-1.98,9.19-5.93,11.98-3.23,2.31-6.92,3.47-11.06,3.47-1.16,0-2.16-.38-3-1.15-.84-.76-1.27-1.67-1.27-2.72Z"/>
        <path class="cls-4" d="M269.39,101.12c1.17,0,2.16-.37,2.99-1.12,.83-.75,1.24-1.67,1.24-2.77v-23.29c0-3.87-1.26-7.24-3.79-10.09-3.16-3.65-7.6-5.48-13.33-5.48-4.32,0-7.12,1.21-8.62,1.96-5.13,2.57-6.74,4.83-9.38,8.59-3.32,4.73-5.54,9.98-5.54,16.63,0,3.74,1.29,7.1,3.86,10.09,3.21,3.65,7.65,5.48,13.33,5.48h7.11c1.21,0,2.23-.37,3.06-1.12,.83-.75,1.24-1.67,1.24-2.77s-.41-2.02-1.24-2.77-1.85-1.12-3.06-1.12h-7.11c-3.35,0-5.76-1.08-7.21-3.23-.92-1.36-1.38-2.88-1.38-4.55,0-6.2,3.74-14.1,5.61-15.73,1.45-1.28,3.36-3.66,9.34-3.66,3.35,0,5.76,1.08,7.21,3.23,.92,1.36,1.38,2.88,1.38,4.55v23.29c0,1.1,.41,2.02,1.24,2.77,.83,.75,1.85,1.12,3.06,1.12Z"/>
        <g>
          <circle class="cls-1" cx="130.85" cy="40.54" r="7.49"/>
          <circle class="cls-1" cx="145.78" cy="49.54" r="3.09"/>
          <circle class="cls-1" cx="151.96" cy="62.47" r="3.09"/>
          <circle class="cls-1" cx="158.43" cy="89.53" r="3.09"/>
          <path class="cls-1" d="M155.05,76.66c0,1.71-1.39,3.09-3.09,3.09s-3.09-1.39-3.09-3.09,1.39-3.09,3.09-3.09,3.09,1.39,3.09,3.09Z"/>
          <circle class="cls-1" cx="173.07" cy="95.29" r="7.49"/>
        </g>
      </g>
    </g>
  </g>
</svg>